<svg width="210" height="62" viewBox="0 0 210 62" fill="none" xmlns="http://www.w3.org/2000/svg">
<g clip-path="url(#clip0_634_2357)">
<path d="M51.5505 29.5255V20.5518H55.5818L62.5036 29.5255H68.8409L61.1854 19.8584C64.2976 18.8667 66.7889 16.6333 66.7889 12.2392C66.7889 5.75677 61.5885 3.89026 56.6058 3.89026H46.0558V29.5255H51.5505ZM51.5505 8.72383H56.8638C59.1697 8.72383 61.1854 9.71151 61.1854 12.348C61.1854 14.9482 59.1697 15.9762 56.8638 15.9762H51.5505V8.72383Z" fill="#0274CA"/>
<path d="M70.1229 16.7059C70.1229 23.668 74.6622 30.0416 83.7448 30.0416C92.8314 30.0416 97.3707 23.668 97.3707 16.7059C97.3707 9.74781 92.8314 3.37427 83.7448 3.37427C74.6622 3.37427 70.1229 9.74781 70.1229 16.7059ZM91.7309 16.7059C91.7309 21.2129 89.0581 24.95 83.7448 24.95C78.3993 24.95 75.7265 21.2129 75.7265 16.7059C75.7265 12.2029 78.3993 8.46585 83.7448 8.46585C89.0581 8.46585 91.7309 12.2029 91.7309 16.7059Z" fill="#0274CA"/>
<path d="M106.933 29.5255V16.3068C106.933 15.1337 106.893 13.8517 106.82 12.7874L118.761 29.5255H123.925V3.89026H118.43V17.109C118.43 18.2821 118.467 19.5641 118.543 20.6284L106.602 3.89026H101.438V29.5255H106.933Z" fill="#0274CA"/>
<path d="M132.459 29.5255L134.366 24.7282H146.085L147.952 29.5255H153.632L143.191 3.89026H137.257L126.783 29.5255H132.459ZM139.639 10.9935C139.861 10.4815 140.042 9.96951 140.224 8.9778C140.409 9.96951 140.591 10.4815 140.776 10.9935L144.364 20.1889H136.088L139.639 10.9935Z" fill="#0274CA"/>
<path d="M161.981 29.5255V20.5518H166.012L172.934 29.5255H179.271L171.616 19.8584C174.728 18.8667 177.219 16.6333 177.219 12.2392C177.219 5.75677 172.019 3.89026 167.036 3.89026H156.486V29.5255H161.981ZM161.981 8.72383H167.294C169.6 8.72383 171.616 9.71151 171.616 12.348C171.616 14.9482 169.6 15.9762 167.294 15.9762H161.981V8.72383Z" fill="#0274CA"/>
<path d="M185.387 29.5255L187.29 24.7282H199.013L200.879 29.5255H206.555L196.118 3.89026H190.184L179.711 29.5255H185.387ZM192.567 10.9935C192.784 10.4815 192.97 9.96951 193.151 8.9778C193.337 9.96951 193.518 10.4815 193.699 10.9935L197.291 20.1889H189.011L192.567 10.9935Z" fill="#0274CA"/>
<path d="M20.1142 3.89026V29.5417H31.1439C35.6147 29.5417 41.2223 28.1871 41.2223 22.3578C41.2223 18.5845 38.8398 16.7139 36.3121 15.9843C38.5858 15.2143 40.1983 13.38 40.1983 10.3767C40.1983 5.97849 36.7878 3.89026 31.3294 3.89026H20.1142ZM35.7235 21.7733C35.7235 24.5589 33.5265 25.0709 31.0714 25.0709H25.5726V18.4756H31.3657C33.5627 18.4756 35.7235 19.0602 35.7235 21.7733ZM34.7359 11.3281C34.7359 13.3075 33.2322 14.2589 31.1439 14.2589H25.6089V8.39729H30.8496C33.2684 8.39729 34.7359 9.31241 34.7359 11.3281Z" fill="#0274CA"/>
<path d="M117.019 32.7909C117.052 32.7788 117.088 32.7627 117.116 32.7425L117.144 32.7264C117.169 32.7103 117.193 32.6941 117.217 32.674C117.394 32.5329 117.499 32.3354 117.523 32.1257C117.547 31.9161 117.491 31.6984 117.35 31.521L111.013 23.8252C110.936 23.7204 110.835 23.6317 110.718 23.5712L110.694 23.5591C110.585 23.5067 110.464 23.4785 110.339 23.4785C110.114 23.4785 109.908 23.5712 109.759 23.7204C109.61 23.8696 109.517 24.0752 109.517 24.3009V35.9152C109.517 36.1208 109.686 36.2901 109.892 36.2901C109.965 36.2901 110.029 36.2699 110.086 36.2377C111.488 35.5645 112.803 34.9033 114.121 34.2381C115.113 33.7383 116.108 33.2384 117.019 32.7909Z" fill="#5FCE8C"/>
<path d="M109.912 2.92675C109.884 2.93884 109.856 2.95497 109.832 2.96706L109.807 2.98319C109.787 2.99528 109.767 3.00738 109.747 3.0235C109.598 3.14444 109.513 3.30973 109.493 3.48711C109.473 3.66045 109.517 3.84589 109.638 3.99102L114.939 10.4331C115.004 10.5218 115.088 10.5943 115.185 10.6468L115.209 10.6548C115.298 10.6992 115.399 10.7234 115.504 10.7234C115.693 10.7234 115.862 10.6468 115.987 10.5218C116.116 10.3968 116.193 10.2235 116.193 10.034V0.314444C116.193 0.141097 116.052 0 115.879 0C115.818 0 115.762 0.0161253 115.717 0.0443447C114.544 0.608732 113.444 1.16102 112.339 1.71735C111.509 2.13258 110.674 2.55184 109.912 2.92675Z" fill="#FFAB00"/>
<path fill-rule="evenodd" clip-rule="evenodd" d="M204.79 37.6608L17.7276 41.1277C17.3083 41.1317 14.9984 44.5261 14.9379 48.6744C14.8775 52.8226 17.0907 56.1968 17.5059 56.2089L204.342 61.1393C206.281 61.1876 209.897 54.4795 209.958 50.3313C210.091 41.1519 205.415 37.8664 204.79 37.6608Z" fill="#FFAB00"/>
<path d="M25.9879 45.4856H27.4512V52.9678H25.9879V49.8677H23.2062V52.9678H21.7308V45.4856H23.2062V48.4567H25.9879V45.4856ZM35.143 51.9922C34.3851 52.742 33.466 53.1209 32.3816 53.1209C31.2971 53.1209 30.382 52.742 29.6282 51.9922C28.8783 51.2383 28.4994 50.3192 28.4994 49.2267C28.4994 48.1382 28.8783 47.215 29.6282 46.4612C30.382 45.7113 31.2971 45.3364 32.3816 45.3364C33.466 45.3364 34.3851 45.7113 35.143 46.4612C35.8969 47.215 36.2758 48.1382 36.2758 49.2267C36.2758 50.3192 35.8969 51.2383 35.143 51.9922ZM30.6602 50.9843C31.1238 51.4479 31.6962 51.6737 32.3816 51.6737C33.0669 51.6737 33.6393 51.4479 34.1029 50.9843C34.5665 50.5248 34.8004 49.9402 34.8004 49.2267C34.8004 48.5131 34.5665 47.9246 34.1029 47.4609C33.6393 46.9973 33.0669 46.7676 32.3816 46.7676C31.6962 46.7676 31.1238 46.9973 30.6602 47.4609C30.1966 47.9246 29.9668 48.5131 29.9668 49.2267C29.9668 49.9402 30.1966 50.5248 30.6602 50.9843ZM41.835 49.0896C42.4922 49.4645 42.8187 50.037 42.8187 50.7989C42.8187 51.4318 42.5929 51.9519 42.1455 52.359C41.698 52.7662 41.1457 52.9678 40.4886 52.9678H37.3119V45.4856H40.2628C40.9038 45.4856 41.444 45.6831 41.8834 46.0782C42.3228 46.4733 42.5405 46.9772 42.5405 47.59C42.5405 48.2108 42.3067 48.7107 41.835 49.0896ZM40.2628 46.8643H38.7874V48.5091H40.2628C40.4926 48.5091 40.6821 48.4325 40.8353 48.2753C40.9885 48.1181 41.0651 47.9205 41.0651 47.6867C41.0651 47.4529 40.9925 47.2554 40.8393 47.0981C40.6901 46.9409 40.5007 46.8643 40.2628 46.8643ZM40.4886 51.589C40.7385 51.589 40.9441 51.5084 41.1094 51.3391C41.2707 51.1698 41.3553 50.9601 41.3553 50.7021C41.3553 50.4522 41.2707 50.2466 41.1094 50.0773C40.9441 49.908 40.7385 49.8273 40.4886 49.8273H38.7874V51.589H40.4886ZM43.7822 52.9678V45.4856H45.2577V47.9447H46.5719C47.2935 47.9447 47.8982 48.1866 48.39 48.6703C48.8818 49.1541 49.1277 49.7507 49.1277 50.4562C49.1277 51.1617 48.8818 51.7583 48.39 52.2421C47.8982 52.7259 47.2935 52.9678 46.5719 52.9678H43.7822ZM49.8131 52.9678V45.4856H51.2764V52.9678H49.8131ZM45.2577 51.589H46.5719C46.8863 51.589 47.1483 51.4842 47.3539 51.2706C47.5595 51.0569 47.6644 50.7868 47.6644 50.4562C47.6644 50.1297 47.5595 49.8596 47.3539 49.6459C47.1483 49.4323 46.8863 49.3234 46.5719 49.3234H45.2577V51.589ZM54.1427 51.5568H57.2993V52.9678H52.6673V45.4856H57.2468V46.8966H54.1427V48.4889H56.9767V49.8798H54.1427V51.5568ZM63.8018 45.4856C64.5194 45.4856 65.1281 45.7275 65.6199 46.2112C66.1118 46.695 66.3577 47.2916 66.3577 47.9971C66.3577 48.7026 66.1118 49.2992 65.6199 49.783C65.1281 50.2668 64.5194 50.5086 63.8018 50.5086H62.4836V52.9678H61.0081V45.4856H63.8018ZM63.8018 49.1299C64.1122 49.1299 64.3743 49.0211 64.5798 48.8034C64.7854 48.5857 64.8903 48.3196 64.8903 47.9971C64.8903 47.6706 64.7854 47.4005 64.5798 47.1828C64.3743 46.9691 64.1122 46.8643 63.8018 46.8643H62.4836V49.1299H63.8018ZM68.7926 51.5568H71.9491V52.9678H67.3171V45.4856H71.8967V46.8966H68.7926V48.4889H71.6266V49.8798H68.7926V51.5568ZM80.2053 45.4856H81.6808V52.9678H72.9852V45.4856H74.4607V51.5568H76.6013V45.4856H78.0647V51.5568H80.2053V45.4856ZM84.5471 51.5568H87.6996V52.9678H83.0716V45.4856H87.6472V46.8966H84.5471V48.4889H87.3811V49.8798H84.5471V51.5568ZM92.9927 45.4856H94.4601V52.9678H92.9927V49.8677H90.2151V52.9678H88.7356V45.4856H90.2151V48.4567H92.9927V45.4856ZM100.181 52.9678V48.4043L96.9716 52.9678H95.8509V45.4856H97.3264V50.0612L100.531 45.4856H101.656V52.9678H100.181ZM108.328 45.4856V52.9678H106.852V50.3716H106.01L104.289 52.9678H102.628L104.458 50.2103C103.978 50.041 103.591 49.7467 103.293 49.3355C102.994 48.9203 102.841 48.4648 102.841 47.9649C102.841 47.2795 103.087 46.695 103.571 46.2112C104.055 45.7275 104.643 45.4856 105.333 45.4856H108.328ZM105.333 49.0775H106.852V46.8643H105.333C105.058 46.8643 104.817 46.9691 104.619 47.1828C104.418 47.4005 104.321 47.6585 104.321 47.9649C104.321 48.2712 104.418 48.5333 104.619 48.751C104.817 48.9687 105.058 49.0775 105.333 49.0775ZM116.915 49.0896C117.572 49.4645 117.898 50.037 117.898 50.7989C117.898 51.4318 117.677 51.9519 117.225 52.359C116.778 52.7662 116.225 52.9678 115.568 52.9678H112.392V45.4856H115.342C115.983 45.4856 116.524 45.6831 116.963 46.0782C117.402 46.4733 117.62 46.9772 117.62 47.59C117.62 48.2108 117.386 48.7107 116.915 49.0896ZM115.342 46.8643H113.867V48.5091H115.342C115.572 48.5091 115.762 48.4325 115.915 48.2753C116.068 48.1181 116.145 47.9205 116.145 47.6867C116.145 47.4529 116.072 47.2554 115.923 47.0981C115.77 46.9409 115.58 46.8643 115.342 46.8643ZM115.568 51.589C115.818 51.589 116.024 51.5084 116.189 51.3391C116.354 51.1698 116.435 50.9601 116.435 50.7021C116.435 50.4522 116.354 50.2466 116.189 50.0773C116.024 49.908 115.818 49.8273 115.568 49.8273H113.867V51.589H115.568ZM125.086 53.1209C123.957 53.1209 123.03 52.746 122.292 51.9962C121.559 51.2464 121.192 50.3232 121.192 49.2267C121.192 48.1221 121.559 47.1989 122.292 46.4531C123.03 45.7073 123.957 45.3364 125.086 45.3364C125.763 45.3364 126.388 45.4937 126.961 45.8121C127.537 46.1266 127.985 46.5579 128.303 47.0981L127.033 47.8359C126.848 47.5013 126.582 47.2392 126.239 47.0498C125.896 46.8603 125.513 46.7676 125.086 46.7676C124.357 46.7676 123.772 46.9973 123.324 47.4529C122.881 47.9084 122.659 48.501 122.659 49.2267C122.659 49.9483 122.881 50.5369 123.324 50.9924C123.772 51.4479 124.357 51.6737 125.086 51.6737C125.513 51.6737 125.901 51.581 126.247 51.3915C126.59 51.202 126.852 50.944 127.033 50.6175L128.303 51.3552C127.985 51.8954 127.537 52.3268 126.969 52.6452C126.396 52.9597 125.771 53.1209 125.086 53.1209ZM136.003 47.1425C136.624 47.6746 136.934 48.372 136.934 49.2267C136.934 50.0813 136.624 50.7787 136.003 51.3109C135.382 51.847 134.552 52.1655 133.512 52.2623V53.129H132.068V52.2623C131.02 52.1575 130.19 51.839 129.577 51.3068C128.964 50.7747 128.658 50.0813 128.658 49.2267C128.658 48.372 128.964 47.6786 129.577 47.1465C130.19 46.6144 131.02 46.2959 132.068 46.1911V45.3243H133.512V46.1911C134.552 46.2878 135.382 46.6063 136.003 47.1425ZM133.512 50.9158C134.81 50.7666 135.459 50.2023 135.459 49.2267C135.459 48.243 134.81 47.6746 133.512 47.5254V50.9158ZM130.121 49.2267C130.121 50.2023 130.77 50.7626 132.068 50.9077V47.5375C130.77 47.6786 130.121 48.243 130.121 49.2267ZM139.341 51.5568H142.493V52.9678H137.866V45.4856H142.441V46.8966H139.341V48.4889H142.175V49.8798H139.341V51.5568ZM146.323 45.4856C147.045 45.4856 147.65 45.7275 148.141 46.2112C148.633 46.695 148.879 47.2916 148.879 47.9971C148.879 48.7026 148.633 49.2992 148.141 49.783C147.65 50.2668 147.045 50.5086 146.323 50.5086H145.009V52.9678H143.534V45.4856H146.323ZM146.323 49.1299C146.638 49.1299 146.896 49.0211 147.105 48.8034C147.311 48.5857 147.412 48.3196 147.412 47.9971C147.412 47.6706 147.311 47.4005 147.105 47.1828C146.896 46.9691 146.638 46.8643 146.323 46.8643H145.009V49.1299H146.323ZM151.318 51.5568H154.471V52.9678H149.843V45.4856H154.418V46.8966H151.318V48.4889H154.152V49.8798H151.318V51.5568ZM163.134 45.4856V46.8966H161.11V52.9678H159.639V46.8966H157.627V45.4856H163.134ZM168.096 45.4856H169.572L167.327 50.9077C166.726 52.359 165.742 53.0484 164.376 52.9678V51.589C164.775 51.6253 165.097 51.5689 165.343 51.4237C165.589 51.2786 165.791 51.0408 165.956 50.7142L163.509 45.4856H164.984L166.621 49.0977L168.096 45.4856ZM173.164 45.4856C173.886 45.4856 174.49 45.7275 174.982 46.2112C175.474 46.695 175.72 47.2916 175.72 47.9971C175.72 48.7026 175.474 49.2992 174.982 49.783C174.49 50.2668 173.886 50.5086 173.164 50.5086H171.85V52.9678H170.374V45.4856H173.164ZM173.164 49.1299C173.478 49.1299 173.736 49.0211 173.946 48.8034C174.152 48.5857 174.256 48.3196 174.256 47.9971C174.256 47.6706 174.152 47.4005 173.946 47.1828C173.736 46.9691 173.478 46.8643 173.164 46.8643H171.85V49.1299H173.164ZM181.013 52.9678V48.4043L177.804 52.9678H176.683V45.4856H178.159V50.0612L181.368 45.4856H182.488V52.9678H181.013ZM187.761 49.0977C188.475 49.4766 188.83 50.0692 188.83 50.8755C188.83 51.5447 188.576 52.0849 188.072 52.5001C187.564 52.9113 186.911 53.1209 186.113 53.1209C184.726 53.1209 183.795 52.5324 183.323 51.3552L184.597 50.6376C184.823 51.3673 185.33 51.7301 186.113 51.7301C186.52 51.7301 186.83 51.6455 187.044 51.4721C187.257 51.3028 187.366 51.069 187.366 50.7787C187.366 50.4844 187.261 50.2547 187.048 50.0813C186.838 49.912 186.54 49.8273 186.145 49.8273H185.218V48.5091H185.923C186.294 48.5091 186.58 48.4285 186.79 48.2712C186.995 48.11 187.096 47.8883 187.096 47.6141C187.096 47.336 187.008 47.1143 186.83 46.953C186.653 46.7958 186.387 46.7151 186.04 46.7151C185.399 46.7151 184.947 47.0256 184.694 47.6545L183.44 46.9288C183.948 45.8645 184.814 45.3364 186.04 45.3364C186.782 45.3364 187.386 45.534 187.858 45.9331C188.326 46.3322 188.564 46.8603 188.564 47.5174C188.564 48.1866 188.294 48.7147 187.761 49.0977ZM197.118 45.4856V52.9678H195.651V48.114L193.546 51.589H193.377L191.269 48.1261V52.9678H189.793V45.4856H191.313L193.462 49.0251L195.598 45.4856H197.118ZM203.318 52.9678L202.871 51.6213H199.888L199.44 52.9678H197.844L200.464 45.4856H202.294L204.923 52.9678H203.318ZM200.359 50.2426H202.411L201.383 47.1828L200.359 50.2426Z" fill="#FEFEFE"/>
<path d="M0.191321 43.0546C0.175196 43.0385 0.15907 43.0183 0.142945 42.9982L0.134882 42.978C0.122788 42.9619 0.110694 42.9458 0.102632 42.9256C0.0300676 42.7886 0.022005 42.6354 0.0663496 42.4983C0.110694 42.3612 0.203415 42.2403 0.344512 42.1677L6.46408 39.1402C6.54068 39.0958 6.62533 39.0717 6.71805 39.0676L6.73821 39.0636C6.81884 39.0636 6.9035 39.0797 6.98009 39.112C7.12119 39.1765 7.22197 39.2934 7.27438 39.4304C7.32679 39.5635 7.32679 39.7167 7.26228 39.8618L4.00093 47.1142C3.94046 47.2432 3.7913 47.2996 3.6623 47.2432C3.61796 47.223 3.58167 47.1908 3.55346 47.1545C2.86813 46.3402 2.23521 45.5581 1.59423 44.772C1.11853 44.1834 0.634768 43.5908 0.191321 43.0546Z" fill="#5FCE8C"/>
</g>
<defs>
<clipPath id="clip0_634_2357">
<rect width="210" height="61.1392" fill="white"/>
</clipPath>
</defs>
</svg>
