<svg width="36" height="36" viewBox="0 0 36 36" fill="none" xmlns="http://www.w3.org/2000/svg">
<circle cx="18" cy="18" r="18" fill="#EFF3F7"/>
<g clip-path="url(#clip0_1368_12332)">
<path d="M13.8548 20.1266L19.276 14.7054C19.5886 14.3929 20.0125 14.2173 20.4545 14.2173C20.8965 14.2173 21.3205 14.3929 21.633 14.7054V14.7054C21.9456 15.018 22.1212 15.4419 22.1212 15.884C22.1212 16.326 21.9456 16.7499 21.633 17.0625L16.2076 22.4879C15.7075 22.988 15.0293 23.2689 14.322 23.2689C13.6148 23.2689 12.9365 22.988 12.4364 22.4879V22.4879C11.9363 21.9878 11.6553 21.3095 11.6553 20.6022C11.6553 19.895 11.9363 19.2167 12.4364 18.7166L18.337 12.8161C19.0468 12.1718 19.9711 11.815 20.9297 11.815C21.8883 11.815 22.8126 12.1718 23.5224 12.8161V12.8161C24.1665 13.526 24.5233 14.4502 24.5233 15.4088C24.5233 16.3673 24.1665 17.2916 23.5224 18.0015L17.6261 23.8978" stroke="#0274CA" stroke-miterlimit="10"/>
</g>
<defs>
<clipPath id="clip0_1368_12332">
<rect width="16" height="16" fill="white" transform="translate(10 10)"/>
</clipPath>
</defs>
</svg>
