<svg width="46" height="46" viewBox="0 0 46 46" fill="none" xmlns="http://www.w3.org/2000/svg">
<rect width="46" height="46" rx="8" fill="white"/>
<path d="M15.5934 19.0164V26.8851C15.5934 27.7095 16.1225 28.5339 16.9539 28.8336L20.7332 30.2575C20.96 30.3324 21.1867 30.4073 21.4891 30.4073C21.867 30.4073 22.3205 30.2575 22.6984 30.0327C22.8496 29.8828 23.0763 29.7329 23.152 29.583H26.0242C27.158 29.583 28.1406 28.6837 28.1406 27.4847V26.7353C28.1406 26.4355 27.9139 26.1357 27.5359 26.1357C27.158 26.1357 26.9312 26.3605 26.9312 26.7353V27.4847C26.9312 28.0093 26.4777 28.3839 26.0242 28.3839H23.5299V17.5925H26.0242C26.5533 17.5925 26.9312 17.9672 26.9312 18.4918V19.2412C26.9312 19.541 27.158 19.8407 27.5359 19.8407C27.9139 19.8407 28.1406 19.541 28.1406 19.2412V18.4918C28.1406 17.3677 27.2336 16.3935 26.0242 16.3935H23.152C23.0008 16.2436 22.8496 16.0937 22.6984 15.9438C22.0938 15.5691 21.4135 15.4942 20.7332 15.719L16.9539 17.1429C16.198 17.3677 15.5934 18.192 15.5934 19.0164Z" fill="#0274CA"/>
<path d="M28.2899 25.0865C28.441 25.0865 28.5922 25.0116 28.6678 24.9366L30.1795 23.4378C30.2551 23.3629 30.2551 23.288 30.3307 23.288C30.3307 23.213 30.4062 23.138 30.4062 23.0632C30.4062 22.9882 30.4062 22.9132 30.3307 22.8383C30.3307 22.7634 30.2551 22.6884 30.1795 22.6884L28.6678 21.1896C28.441 20.9648 28.0631 20.9648 27.8363 21.1896C27.6096 21.4144 27.6096 21.7892 27.8363 22.014L28.3654 22.5386H25.2664C24.9641 22.5386 24.6617 22.7634 24.6617 23.138C24.6617 23.5128 24.9641 23.5877 25.2664 23.5877H28.441L27.9119 24.1123C27.6852 24.3371 27.6852 24.7118 27.9119 24.9366C27.9875 25.0116 28.1387 25.0865 28.2899 25.0865Z" fill="#0274CA"/>
</svg>
