<svg width="40" height="40" viewBox="0 0 40 40" fill="none" xmlns="http://www.w3.org/2000/svg">
<g clip-path="url(#clip0_1359_5687)">
<path d="M20.505 0.00833706C12.3818 -0.265418 5.71094 6.23797 5.71094 14.2993C5.71094 23.448 14.4906 30.0876 19.4116 39.6361C19.6614 40.1209 20.3593 40.1215 20.61 39.6368C25.0618 31.045 32.6704 25.2838 34.0804 17.0066C35.5404 8.44141 29.1887 0.301096 20.505 0.00833706ZM20.0101 21.7893C15.8735 21.7893 12.5201 18.4358 12.5201 14.2993C12.5201 10.1628 15.8736 6.80931 20.0101 6.80931C24.1466 6.80931 27.5002 10.1628 27.5002 14.2993C27.5002 18.4358 24.1466 21.7893 20.0101 21.7893Z" fill="#0274CA"/>
</g>
<defs>
<clipPath id="clip0_1359_5687">
<rect width="40" height="40" fill="white"/>
</clipPath>
</defs>
</svg>
