<svg width="20" height="20" viewBox="0 0 20 20" fill="none" xmlns="http://www.w3.org/2000/svg">
<rect width="20" height="20" rx="3" fill="#0274CA"/>
<g clip-path="url(#clip0_634_2383)">
<path d="M10.1261 5.00208C8.09534 4.93365 6.42761 6.55949 6.42761 8.57483C6.42761 10.862 8.62252 12.5219 9.85277 14.909C9.91523 15.0302 10.0897 15.0304 10.1524 14.9092C11.2653 12.7613 13.1675 11.3209 13.52 9.25166C13.885 7.11035 12.2971 5.07527 10.1261 5.00208ZM10.0024 10.4473C8.96826 10.4473 8.1299 9.60895 8.1299 8.57483C8.1299 7.54071 8.96828 6.70233 10.0024 6.70233C11.0365 6.70233 11.8749 7.54071 11.8749 8.57483C11.8749 9.60895 11.0365 10.4473 10.0024 10.4473Z" fill="white"/>
</g>
<defs>
<clipPath id="clip0_634_2383">
<rect width="10" height="10" fill="white" transform="translate(5 5)"/>
</clipPath>
</defs>
</svg>
