<svg width="20" height="20" viewBox="0 0 20 20" fill="none" xmlns="http://www.w3.org/2000/svg">
<rect width="20" height="20" rx="3" fill="#0274CA"/>
<path d="M5.20653 6.85852C6.57899 8.02084 8.98723 10.0657 9.69505 10.7033C9.79007 10.7894 9.89198 10.8331 9.99778 10.8331C10.1034 10.8331 10.2051 10.7898 10.2999 10.7041C11.0083 10.0659 13.4166 8.02084 14.7891 6.85852C14.8745 6.78629 14.8875 6.65934 14.8183 6.57104C14.6584 6.36699 14.42 6.25 14.1644 6.25H5.83112C5.57559 6.25 5.33714 6.36699 5.17723 6.57105C5.10805 6.65934 5.12108 6.78629 5.20653 6.85852Z" fill="white"/>
<path d="M14.8803 7.48836C14.8064 7.45398 14.7196 7.46597 14.6581 7.51847C13.7593 8.28039 12.575 9.28707 11.6818 10.0553C11.6348 10.0956 11.6084 10.1548 11.6094 10.2168C11.6104 10.2787 11.6391 10.3371 11.6875 10.3757C12.5174 11.0404 13.768 11.9547 14.6711 12.6045C14.7071 12.6306 14.7499 12.6438 14.7928 12.6438C14.8254 12.6438 14.8579 12.6363 14.8878 12.6208C14.9574 12.5852 15.0011 12.5136 15.0011 12.4354V7.67736C15.0011 7.59619 14.9539 7.52234 14.8803 7.48836Z" fill="white"/>
<path d="M5.33 12.6044C6.23332 11.9546 7.48414 11.0403 8.31381 10.3756C8.36223 10.3369 8.39092 10.2785 8.39193 10.2167C8.39295 10.1547 8.3665 10.0955 8.31951 10.0552C7.42635 9.28695 6.24186 8.28027 5.34303 7.51835C5.28117 7.46585 5.1941 7.45427 5.12086 7.48824C5.04721 7.52222 5 7.59607 5 7.67724V12.4353C5 12.5135 5.04375 12.5851 5.11332 12.6207C5.14322 12.6362 5.17578 12.6437 5.20834 12.6437C5.25127 12.6437 5.29398 12.6305 5.33 12.6044Z" fill="white"/>
<path d="M14.7442 13.1713C13.872 12.5473 12.2654 11.384 11.3063 10.6055C11.2282 10.5419 11.115 10.5439 11.0382 10.6102C10.85 10.7744 10.6925 10.9128 10.5808 11.0133C10.2378 11.3229 9.76169 11.3229 9.41786 11.0128C9.30657 10.9126 9.14911 10.7738 8.96091 10.6102C8.88462 10.5435 8.7713 10.5414 8.69296 10.6055C7.73714 11.3813 6.12866 12.546 5.25505 13.1713C5.20642 13.2063 5.17509 13.2602 5.16899 13.3198C5.1631 13.3794 5.18282 13.4386 5.22372 13.4825C5.38142 13.6524 5.60358 13.7499 5.83288 13.7499H14.1662C14.3955 13.7499 14.6175 13.6524 14.7756 13.4825C14.8162 13.4388 14.8362 13.3796 14.8303 13.32C14.8242 13.2604 14.7928 13.2063 14.7442 13.1713Z" fill="white"/>
</svg>
