<svg width="40" height="40" viewBox="0 0 40 40" fill="none" xmlns="http://www.w3.org/2000/svg">
<path d="M0.833932 7.43406C6.32378 12.0834 15.9567 20.2629 18.788 22.8133C19.1681 23.1575 19.5757 23.3325 19.9989 23.3325C20.4213 23.3325 20.8282 23.1591 21.2075 22.8166C24.0411 20.2637 33.6741 12.0834 39.164 7.43406C39.5058 7.14516 39.5579 6.63734 39.2812 6.28414C38.6415 5.46797 37.6878 5 36.6656 5H3.33229C2.31018 5 1.35635 5.46797 0.716744 6.28422C0.440025 6.63734 0.492135 7.14516 0.833932 7.43406Z" fill="#0274CA"/>
<path d="M39.5172 9.95342C39.2218 9.81592 38.8743 9.86389 38.6285 10.0739C35.0331 13.1215 30.296 17.1483 26.7234 20.2212C26.5354 20.3823 26.4296 20.6191 26.4337 20.8673C26.4378 21.1148 26.5525 21.3483 26.7462 21.5029C30.0658 24.1616 35.0682 27.8188 38.6806 30.4181C38.8247 30.5223 38.9955 30.5751 39.1673 30.5751C39.2975 30.5751 39.4277 30.5451 39.5473 30.4832C39.8257 30.3408 40.0006 30.0543 40.0006 29.7418V10.7094C40.0005 10.3848 39.8117 10.0894 39.5172 9.95342Z" fill="#0274CA"/>
<path d="M1.32 30.4178C4.93328 27.8185 9.93656 24.1613 13.2552 21.5025C13.4489 21.3479 13.5637 21.1143 13.5677 20.867C13.5718 20.6188 13.466 20.382 13.278 20.2208C9.70539 17.1479 4.96742 13.1212 1.37211 10.0735C1.12469 9.86354 0.776406 9.81721 0.483438 9.95307C0.188828 10.089 0 10.3844 0 10.7091V29.7415C0 30.054 0.175 30.3405 0.453281 30.4829C0.572891 30.5448 0.703125 30.5749 0.833359 30.5749C1.00508 30.5749 1.17594 30.522 1.32 30.4178Z" fill="#0274CA"/>
<path d="M38.9768 32.6852C35.4881 30.1893 29.0615 25.536 25.2252 22.4223C24.9127 22.1676 24.4602 22.1757 24.1526 22.441C23.3999 23.0978 22.77 23.6512 22.3232 24.0532C20.9511 25.2918 19.0468 25.2918 17.6714 24.0515C17.2263 23.6503 16.5964 23.0953 15.8436 22.441C15.5385 22.174 15.0852 22.1659 14.7718 22.4222C10.9486 25.5253 4.51465 30.1843 1.02019 32.6851C0.825663 32.8251 0.700351 33.0408 0.675976 33.2792C0.652382 33.5176 0.731288 33.7544 0.894882 33.9302C1.52566 34.6098 2.41434 34.9997 3.33152 34.9997H36.6649C37.5821 34.9997 38.4699 34.6098 39.1022 33.9303C39.265 33.7553 39.3447 33.5185 39.3211 33.2801C39.2967 33.0417 39.1714 32.8252 38.9768 32.6852Z" fill="#0274CA"/>
</svg>
