<svg width="40" height="40" viewBox="0 0 40 40" fill="none" xmlns="http://www.w3.org/2000/svg">
<g clip-path="url(#clip0_1359_5677)">
<path d="M38.9123 29.3559L33.3302 23.7738C31.3365 21.7802 27.9474 22.5777 27.15 25.1694C26.5519 26.9637 24.5583 27.9605 22.764 27.5617C18.7768 26.5649 13.394 21.3815 12.3972 17.1949C11.7991 15.4006 12.9953 13.407 14.7895 12.809C17.3812 12.0115 18.1787 8.62238 16.1851 6.62876L10.603 1.04665C9.00807 -0.348882 6.61573 -0.348882 5.2202 1.04665L1.43233 4.83451C-2.35553 8.82174 1.83106 19.3879 11.201 28.7579C20.571 38.1278 31.1372 42.5139 35.1244 38.5266L38.9123 34.7387C40.3079 33.1438 40.3079 30.7515 38.9123 29.3559Z" fill="#0274CA"/>
</g>
<defs>
<clipPath id="clip0_1359_5677">
<rect width="40" height="40" fill="white"/>
</clipPath>
</defs>
</svg>
