<svg width="20" height="20" viewBox="0 0 20 20" fill="none" xmlns="http://www.w3.org/2000/svg">
<rect width="20" height="20" rx="3" fill="#0274CA"/>
<g clip-path="url(#clip0_1368_17263)">
<path d="M14.7251 12.339L13.3296 10.9435C12.8312 10.4451 11.9839 10.6444 11.7846 11.2923C11.635 11.7409 11.1366 11.9901 10.6881 11.8904C9.69126 11.6412 8.34557 10.3454 8.09637 9.29873C7.94685 8.85015 8.24589 8.35174 8.69446 8.20224C9.34238 8.00288 9.54174 7.15559 9.04334 6.65719L7.64781 5.26166C7.24909 4.91278 6.651 4.91278 6.30212 5.26166L5.35515 6.20863C4.40819 7.20543 5.45483 9.84697 7.79733 12.1895C10.1398 14.532 12.7814 15.6285 13.7782 14.6316L14.7251 13.6847C15.074 13.286 15.074 12.6879 14.7251 12.339Z" fill="white"/>
</g>
<defs>
<clipPath id="clip0_1368_17263">
<rect width="10" height="10" fill="white" transform="translate(5 5)"/>
</clipPath>
</defs>
</svg>
