<svg width="46" height="46" viewBox="0 0 46 46" fill="none" xmlns="http://www.w3.org/2000/svg">
<rect width="46" height="46" rx="8" fill="white"/>
<g clip-path="url(#clip0_634_2373)">
<path d="M22.886 22.7072C23.9448 22.7072 24.8617 22.3275 25.6108 21.5782C26.36 20.8291 26.7397 19.9125 26.7397 18.8535C26.7397 17.7949 26.36 16.8782 25.6107 16.1288C24.8614 15.3798 23.9447 15 22.886 15C21.827 15 20.9104 15.3798 20.1613 16.1289C19.4121 16.878 19.0322 17.7948 19.0322 18.8535C19.0322 19.9125 19.4121 20.8292 20.1614 21.5783C20.9106 22.3274 21.8274 22.7072 22.886 22.7072Z" fill="#0274CA"/>
<path d="M29.629 27.3032C29.6074 26.9914 29.5637 26.6514 29.4994 26.2922C29.4344 25.9304 29.3508 25.5884 29.2507 25.2757C29.1473 24.9526 29.0067 24.6335 28.8329 24.3278C28.6525 24.0104 28.4406 23.734 28.2028 23.5066C27.9541 23.2687 27.6497 23.0774 27.2976 22.9379C26.9468 22.7991 26.558 22.7288 26.1421 22.7288C25.9788 22.7288 25.8208 22.7958 25.5157 22.9944C25.328 23.1168 25.1084 23.2584 24.8633 23.415C24.6537 23.5486 24.3698 23.6737 24.019 23.787C23.6769 23.8977 23.3295 23.9539 22.9866 23.9539C22.6437 23.9539 22.2964 23.8977 21.9539 23.787C21.6035 23.6738 21.3196 23.5487 21.1102 23.4152C20.8674 23.26 20.6477 23.1184 20.4572 22.9943C20.1525 22.7957 19.9944 22.7286 19.8311 22.7286C19.415 22.7286 19.0264 22.7991 18.6757 22.938C18.3239 23.0773 18.0193 23.2686 17.7704 23.5067C17.5327 23.7342 17.3207 24.0105 17.1405 24.3278C16.9668 24.6335 16.8262 24.9525 16.7227 25.2759C16.6227 25.5885 16.5391 25.9304 16.4741 26.2922C16.4098 26.6509 16.3661 26.9911 16.3445 27.3036C16.3232 27.6097 16.3125 27.9275 16.3125 28.2484C16.3125 29.0836 16.578 29.7597 17.1016 30.2584C17.6187 30.7505 18.3029 31.0001 19.1349 31.0001H26.839C27.671 31.0001 28.355 30.7506 28.8722 30.2584C29.3959 29.7601 29.6614 29.0838 29.6614 28.2483C29.6613 27.9259 29.6504 27.6079 29.629 27.3032Z" fill="#0274CA"/>
</g>
<defs>
<clipPath id="clip0_634_2373">
<rect width="16" height="16" fill="white" transform="translate(15 15)"/>
</clipPath>
</defs>
</svg>
