<svg width="46" height="46" viewBox="0 0 46 46" fill="none" xmlns="http://www.w3.org/2000/svg">
<rect width="46" height="46" rx="8" fill="#0274CA"/>
<g clip-path="url(#clip0_1405_171)">
<path d="M22.886 22.7072C23.9448 22.7072 24.8617 22.3275 25.6108 21.5782C26.36 20.8291 26.7397 19.9125 26.7397 18.8535C26.7397 17.7949 26.36 16.8782 25.6107 16.1288C24.8614 15.3798 23.9447 15 22.886 15C21.827 15 20.9104 15.3798 20.1613 16.1289C19.4121 16.878 19.0322 17.7948 19.0322 18.8535C19.0322 19.9125 19.4121 20.8292 20.1614 21.5783C20.9106 22.3274 21.8274 22.7072 22.886 22.7072Z" fill="white"/>
<path d="M29.629 27.3031C29.6074 26.9913 29.5637 26.6512 29.4994 26.2921C29.4344 25.9303 29.3508 25.5882 29.2507 25.2756C29.1473 24.9525 29.0067 24.6334 28.8329 24.3276C28.6525 24.0102 28.4406 23.7339 28.2028 23.5065C27.9541 23.2686 27.6497 23.0773 27.2976 22.9377C26.9468 22.7989 26.558 22.7286 26.1421 22.7286C25.9788 22.7286 25.8208 22.7957 25.5157 22.9943C25.328 23.1167 25.1084 23.2583 24.8633 23.4149C24.6537 23.5485 24.3698 23.6736 24.019 23.7869C23.6769 23.8976 23.3295 23.9537 22.9866 23.9537C22.6437 23.9537 22.2964 23.8976 21.9539 23.7869C21.6035 23.6737 21.3196 23.5486 21.1102 23.415C20.8674 23.2599 20.6477 23.1183 20.4572 22.9941C20.1525 22.7955 19.9944 22.7285 19.8311 22.7285C19.415 22.7285 19.0264 22.7989 18.6757 22.9379C18.3239 23.0771 18.0193 23.2684 17.7704 23.5066C17.5327 23.7341 17.3207 24.0104 17.1405 24.3276C16.9668 24.6334 16.8262 24.9524 16.7227 25.2757C16.6227 25.5884 16.5391 25.9303 16.4741 26.2921C16.4098 26.6507 16.3661 26.991 16.3445 27.3035C16.3232 27.6096 16.3125 27.9273 16.3125 28.2483C16.3125 29.0835 16.578 29.7596 17.1016 30.2583C17.6187 30.7503 18.3029 31 19.1349 31H26.839C27.671 31 28.355 30.7505 28.8722 30.2583C29.3959 29.76 29.6614 29.0837 29.6614 28.2481C29.6613 27.9258 29.6504 27.6078 29.629 27.3031Z" fill="white"/>
</g>
<defs>
<clipPath id="clip0_1405_171">
<rect width="16" height="16" fill="white" transform="translate(15 15)"/>
</clipPath>
</defs>
</svg>
