<svg width="46" height="46" viewBox="0 0 46 46" fill="none" xmlns="http://www.w3.org/2000/svg">
<circle cx="23" cy="23" r="23" fill="white"/>
<g clip-path="url(#clip0_778_284)">
<path d="M22.8582 22.6341C24.1818 22.6341 25.3278 22.1594 26.2643 21.2228C27.2007 20.2863 27.6754 19.1406 27.6754 17.8169C27.6754 16.4936 27.2007 15.3477 26.2641 14.411C25.3275 13.4747 24.1816 13 22.8582 13C21.5345 13 20.3887 13.4747 19.4523 14.4111C18.5159 15.3476 18.041 16.4935 18.041 17.8169C18.041 19.1406 18.5159 20.2865 19.4525 21.2229C20.389 22.1592 21.535 22.6341 22.8582 22.6341Z" fill="#0274CA"/>
<path d="M31.2863 28.379C31.2593 27.9893 31.2046 27.5642 31.1242 27.1152C31.0431 26.663 30.9385 26.2354 30.8134 25.8447C30.6842 25.4408 30.5084 25.0419 30.2911 24.6597C30.0656 24.2629 29.8007 23.9175 29.5034 23.6332C29.1926 23.3358 28.8121 23.0967 28.372 22.9223C27.9335 22.7488 27.4475 22.6609 26.9276 22.6609C26.7234 22.6609 26.526 22.7447 26.1447 22.9929C25.91 23.146 25.6355 23.323 25.3291 23.5188C25.0671 23.6857 24.7122 23.8421 24.2738 23.9837C23.8461 24.1221 23.4118 24.1923 22.9832 24.1923C22.5546 24.1923 22.1205 24.1221 21.6923 23.9837C21.2544 23.8423 20.8995 23.6858 20.6378 23.5189C20.3343 23.325 20.0596 23.148 19.8214 22.9928C19.4406 22.7445 19.243 22.6608 19.0388 22.6608C18.5188 22.6608 18.033 22.7488 17.5946 22.9225C17.1548 23.0966 16.7741 23.3357 16.463 23.6334C16.1659 23.9178 15.9008 24.2631 15.6756 24.6597C15.4585 25.0419 15.2827 25.4406 15.1533 25.8448C15.0284 26.2356 14.9238 26.663 14.8427 27.1152C14.7622 27.5636 14.7076 27.9888 14.6806 28.3794C14.6541 28.7621 14.6406 29.1593 14.6406 29.5605C14.6406 30.6045 14.9725 31.4496 15.627 32.073C16.2733 32.688 17.1286 33.0001 18.1686 33.0001H27.7987C28.8388 33.0001 29.6937 32.6882 30.3402 32.073C30.9948 31.4501 31.3267 30.6048 31.3267 29.5603C31.3266 29.1573 31.313 28.7598 31.2863 28.379Z" fill="#0274CA"/>
</g>
<defs>
<clipPath id="clip0_778_284">
<rect width="20" height="20" fill="white" transform="translate(13 13)"/>
</clipPath>
</defs>
</svg>
