<svg width="16" height="16" viewBox="0 0 16 16" fill="none" xmlns="http://www.w3.org/2000/svg">
<g clip-path="url(#clip0_1359_3580)">
<path d="M12.7895 8.97382C12.5694 8.97382 12.3526 8.88969 12.1844 8.72142C9.87393 6.41422 6.12026 6.41422 3.80982 8.72142C3.47652 9.05472 2.93288 9.05472 2.59958 8.72142C2.26628 8.38812 2.26628 7.84449 2.59958 7.51119C5.57663 4.53415 10.4176 4.53415 13.3946 7.51119C13.7279 7.84449 13.7279 8.38812 13.3946 8.72142C13.2263 8.88969 13.0063 8.97382 12.7895 8.97382Z" fill="white"/>
<path d="M10.4721 11.2875C10.252 11.2875 10.0352 11.2033 9.86694 11.0351C9.36861 10.5368 8.70201 10.2617 7.99658 10.2617C7.29115 10.2617 6.62455 10.5368 6.12622 11.0351C5.79292 11.3684 5.24929 11.3684 4.91599 11.0351C4.58269 10.7018 4.58269 10.1581 4.91599 9.82485C5.73791 9.00292 6.83165 8.5499 7.99658 8.5499C9.16151 8.5499 10.2553 9.00292 11.0772 9.82808C11.4105 10.1614 11.4105 10.705 11.0772 11.0383C10.9121 11.2033 10.6921 11.2875 10.4721 11.2875Z" fill="white"/>
<path d="M7.99677 14.0513C8.62763 14.0513 9.13904 13.5398 9.13904 12.909C9.13904 12.2781 8.62763 11.7667 7.99677 11.7667C7.36591 11.7667 6.85449 12.2781 6.85449 12.909C6.85449 13.5398 7.36591 14.0513 7.99677 14.0513Z" fill="white"/>
<path d="M15.1417 6.62149C14.9216 6.62149 14.7048 6.53736 14.5366 6.36909C10.9285 2.76427 5.06502 2.76427 1.46021 6.36909C1.12691 6.70239 0.583274 6.70239 0.249975 6.36909C-0.0833249 6.03579 -0.0833249 5.49215 0.249975 5.15885C2.32096 3.08787 5.07149 1.94882 8 1.94882C10.9285 1.94882 13.679 3.08787 15.75 5.15885C16.0833 5.49215 16.0833 6.03579 15.75 6.36909C15.5785 6.53736 15.3585 6.62149 15.1417 6.62149Z" fill="white"/>
</g>
<defs>
<clipPath id="clip0_1359_3580">
<rect width="16" height="16" fill="white"/>
</clipPath>
</defs>
</svg>
