<svg width="340" height="20" viewBox="0 0 340 20" fill="none" xmlns="http://www.w3.org/2000/svg">
<line x1="-4.37114e-08" y1="10.5" x2="150" y2="10.5" stroke="#92A8B8" stroke-dasharray="5 5"/>
<line x1="190" y1="10.5" x2="340" y2="10.5" stroke="#92A8B8" stroke-dasharray="5 5"/>
<g clip-path="url(#clip0_1359_3789)">
<path d="M176.667 7.77775H172.698L169.049 1.39095C169 1.30591 168.93 1.23525 168.845 1.1861C168.76 1.13696 168.664 1.11108 168.566 1.11108L166.292 1.11108C165.923 1.11108 165.657 1.46421 165.758 1.81907L167.46 7.77775H163.889L162.389 5.77775C162.284 5.63782 162.119 5.55553 161.944 5.55553H160.556C160.194 5.55553 159.929 5.89511 160.017 6.24581L161.111 9.99997L160.017 13.7541C159.929 14.1048 160.194 14.4444 160.556 14.4444H161.944C162.119 14.4444 162.284 14.3621 162.389 14.2222L163.889 12.2222H167.46L165.758 18.1805C165.657 18.5354 165.923 18.8889 166.292 18.8889H168.566C168.766 18.8889 168.95 18.7819 169.049 18.609L172.698 12.2222H176.667C177.894 12.2222 180 11.2274 180 9.99997C180 8.77254 177.894 7.77775 176.667 7.77775Z" fill="#92A8B8"/>
</g>
<defs>
<clipPath id="clip0_1359_3789">
<rect width="20" height="20" fill="white" transform="translate(160)"/>
</clipPath>
</defs>
</svg>
