<svg width="1440" height="4858" viewBox="0 0 1440 4858" fill="none" xmlns="http://www.w3.org/2000/svg">
<rect width="1440" height="5169" fill="#274158"/>
<mask id="mask0_713_3" style="mask-type:alpha" maskUnits="userSpaceOnUse" x="0" y="0" width="1440" height="5169">
<rect width="1440" height="5169" fill="#E5EFFF"/>
</mask>
<g mask="url(#mask0_713_3)">
<path d="M306.506 1455.97C254.756 1420.34 197.679 1445.23 143.348 1431.49C87.9412 1417.49 36.6637 1358.84 0 1275.25V1612H391.326C374.889 1540.46 343.958 1481.75 306.506 1455.97Z" fill="white" fill-opacity="0.03"/>
<path d="M237.341 184.404C262.688 138.138 276.947 67.4681 275.996 0.0108643H0V192.968C24.39 218.715 49.8488 239.682 76.7475 252.041C132.221 277.542 195.39 261.008 237.341 184.404Z" fill="white" fill-opacity="0.03"/>
<path d="M525.578 173.142C568.474 238.965 622.575 267.051 674.944 294.612C727.313 322.172 781.313 352.498 822.938 421.522C861.778 485.957 885.938 577.639 913.995 661.451C942.053 745.263 978.041 827.206 1026.98 852.55C1072.71 876.226 1121.13 845.744 1163.61 804.582C1206.09 763.421 1246.38 710.886 1291.98 686.314C1339.94 660.466 1390.02 667.283 1440 671.179V478.099C1433.95 483.053 1427.67 486.879 1421.26 489.528C1387.94 503.196 1353.05 493.883 1319.7 507.383C1278.73 523.962 1243.42 573.34 1206.91 613.92C1170.41 654.499 1128.16 687.803 1087.53 668.201C1044.97 647.671 1014.41 574.169 991.536 499.883C968.664 425.597 949.258 344.068 915.75 287.974C885.341 237.073 846.281 212.288 808.11 190.359C769.939 168.429 730.654 147.361 698.124 101.923C679.635 76.109 663.604 40.3542 654.081 -0.0239258H468.377C475.74 67.1758 497.734 130.413 525.578 173.142Z" fill="white" fill-opacity="0.05"/>
<path d="M698.119 101.958C730.648 147.362 769.928 168.419 808.105 190.393C846.281 212.368 885.336 237.108 915.745 288.008C949.258 344.103 968.62 425.621 991.536 499.918C1014.45 574.215 1044.97 647.683 1087.53 668.236C1128.17 687.826 1170.41 654.534 1206.91 613.955C1243.42 573.375 1278.73 523.997 1319.7 507.418C1353.05 493.917 1387.94 503.231 1421.26 489.563C1427.67 486.903 1433.95 483.065 1440 478.1V0.0108643H654.075C663.598 40.4337 679.63 76.1326 698.119 101.958Z" fill="white" fill-opacity="0.03"/>
<path d="M1019.48 133.56C1055.66 164.4 1098.23 158.87 1134.23 127.19C1161.04 103.604 1184.29 66.8188 1207.2 30.4483L1226.36 0.0108643H956.469C966.476 59.05 990.433 108.787 1019.48 133.56Z" fill="white" fill-opacity="0.05"/>
<path d="M1327.42 0.0108643C1340.17 50.2237 1359.84 92.1878 1384.12 121.011C1401.26 141.114 1420.27 154.156 1440 159.363V0.0108643H1327.42Z" fill="white" fill-opacity="0.05"/>
<path d="M607.5 1436.98C597.345 1359.91 573.505 1292.77 540.394 1247.98C484.099 1172.48 411.317 1173.55 343.434 1174.69C275.552 1175.83 202.028 1170.57 148.894 1086.48C109.896 1024.75 88.515 930.509 63.7256 844.48C47.025 786.617 26.4375 728.54 0 689.394V1275.25C36.6638 1358.84 87.9413 1417.49 143.348 1431.49C197.679 1445.23 254.723 1420.3 306.506 1455.97C343.958 1481.72 374.889 1540.46 391.326 1612H605.734C614.154 1555.38 614.897 1494.18 607.5 1436.98Z" fill="white" fill-opacity="0.05"/>
<path d="M1291.98 686.315C1246.38 710.853 1206.09 763.467 1163.61 804.583C1121.13 845.7 1072.71 876.228 1026.98 852.551C978.047 827.207 942.047 745.22 913.995 661.452C885.943 577.685 861.778 485.958 822.938 421.524C781.313 352.499 727.313 322.162 674.955 294.613C622.598 267.064 568.485 238.966 525.589 173.143C497.734 130.414 475.74 67.1771 468.377 0.0108643H381.116C401.13 117.932 446.979 218.984 505.198 265.519C569.216 316.688 643.573 305.348 704.857 368.451C824.569 491.757 849.898 847.234 973.733 953.155C1044.24 1013.47 1125.88 972.186 1196.92 914.355C1267.95 856.525 1338.19 781.602 1414.84 774.997C1423.23 774.269 1431.61 774.392 1440 774.997V671.18C1390.02 667.329 1339.94 660.479 1291.98 686.315Z" fill="white" fill-opacity="0.03"/>
<path d="M1266.36 1289.52C1227.58 1283.2 1187.35 1291.76 1152.67 1326.87C1118 1361.97 1089.6 1426.25 1082.67 1502.43C1079.34 1538.98 1081.71 1577.74 1088.93 1612H1440V1368.95L1380.46 1336.62C1342.93 1316.3 1305.13 1295.86 1266.36 1289.52Z" fill="white" fill-opacity="0.03"/>
<path d="M938.436 1472.07C897.671 1448.86 849.977 1494.46 833.608 1572.33C830.955 1585.11 828.983 1598.4 827.725 1612H1000.36C994.376 1547.97 970.166 1490.13 938.436 1472.07Z" fill="white" fill-opacity="0.05"/>
<path d="M708.486 1332.66C675.956 1230.79 623.323 1154.99 564.486 1125.43C504.861 1095.46 442.226 1111.99 380.773 1117.16C319.32 1122.34 253.648 1113.47 203.743 1041.99C166.185 988.261 142.088 905.311 122.321 822.069C102.555 738.828 85.6912 651.658 57.8925 578.032C42.3675 536.949 22.5394 500.108 0 475.369V689.394C26.4375 728.574 47.025 786.617 63.7031 844.48C88.4925 930.509 109.873 1024.71 148.871 1086.48C202.005 1170.57 275.529 1175.83 343.412 1174.69C411.294 1173.55 484.076 1172.45 540.371 1247.98C573.491 1292.76 597.339 1359.9 607.5 1436.98C614.919 1494.18 614.177 1555.38 605.756 1612H745.594C747.782 1514.32 734.85 1415.25 708.486 1332.66Z" fill="white" fill-opacity="0.03"/>
<path d="M260.089 436.681C238.152 467.588 220.348 513.396 216.473 566.289C212.597 619.182 225.293 678.233 249.767 700.218C272.914 721.051 300.167 706.174 323.117 684.479C344.886 663.904 365.665 636.578 379.992 598.003C394.318 559.427 401.417 508.213 394.504 462.26C374.766 331.073 299.706 380.821 260.089 436.681Z" fill="white" fill-opacity="0.05"/>
<path d="M254.576 847.917C254.447 867.933 260.826 888.665 270.574 893.579C280.772 898.717 291.032 886.414 299.121 873.037C306.124 861.473 312.711 848.41 316.879 832.29C324.945 801.136 318.493 738.537 295.453 756.683C278.027 770.407 254.841 807.673 254.576 847.917Z" fill="white" fill-opacity="0.05"/>
<path d="M1168.12 319.185C1169.53 326.842 1174.24 329.596 1178.33 330.267C1184.22 331.241 1190.4 329.943 1195.48 323.909C1205.44 312.099 1207.13 274.116 1192.38 272.818C1184.25 272.101 1164.75 300.893 1168.12 319.185Z" fill="white" fill-opacity="0.05"/>
<path d="M1211.15 226.719C1211.77 230.078 1213.84 231.343 1215.65 231.656C1218.25 232.104 1220.97 231.555 1223.22 228.925C1227.62 223.764 1228.4 207.017 1221.91 206.39C1218.31 206.043 1209.68 218.648 1211.15 226.719Z" fill="white" fill-opacity="0.05"/>
<path d="M1225.96 323.73C1226.81 330.704 1230.78 334.051 1234.33 335.45C1239.43 337.465 1244.9 337.566 1249.64 333.312C1258.93 324.972 1262.32 292.106 1249.5 288.042C1242.43 285.803 1223.93 307.072 1225.96 323.73Z" fill="white" fill-opacity="0.05"/>
<path d="M1153.22 249.477C1153.92 254.817 1156.98 257.313 1159.71 258.276C1163.65 259.698 1167.83 259.642 1171.45 256.261C1178.53 249.645 1180.92 224.346 1171.06 221.559C1165.62 219.991 1151.57 236.749 1153.22 249.477Z" fill="white" fill-opacity="0.05"/>
<path d="M1255.87 176.457C1256.9 182.457 1260.54 184.729 1263.71 185.412C1268.27 186.341 1273.09 185.524 1277.08 181.001C1284.9 172.124 1286.51 142.683 1275.06 141.228C1268.76 140.388 1253.39 162.15 1255.87 176.457Z" fill="white" fill-opacity="0.05"/>
<path d="M1192.33 143.4C1193.03 147.34 1195.45 148.795 1197.55 149.176C1200.57 149.724 1203.73 149.109 1206.36 146.053C1211.5 140.075 1212.44 120.597 1204.88 119.813C1200.71 119.377 1190.63 133.985 1192.33 143.4Z" fill="white" fill-opacity="0.05"/>
<path d="M1109.4 413.016C1110.68 421.971 1115.91 425.889 1120.53 427.345C1127.18 429.449 1134.26 429.024 1140.29 423.046C1152.1 411.314 1155.65 368.451 1138.96 364.477C1129.75 362.283 1106.36 391.668 1109.4 413.016Z" fill="white" fill-opacity="0.05"/>
<path d="M1203.92 442.905C1204.88 447.618 1207.83 449.14 1210.38 449.386C1214.05 449.756 1217.88 448.704 1220.97 444.752C1227.04 437.006 1227.72 413.329 1218.53 413.128C1213.47 413.005 1201.64 431.677 1203.92 442.905Z" fill="white" fill-opacity="0.05"/>
<path d="M843.413 1208.01C844.335 1214.88 848.312 1218.01 851.85 1219.2C856.913 1220.97 862.346 1220.81 866.993 1216.38C876.1 1207.7 879.075 1174.96 866.329 1171.6C859.292 1169.69 841.213 1191.61 843.413 1208.01Z" fill="white" fill-opacity="0.03"/>
<path d="M812.295 1335.83C813.42 1345.51 818.915 1350.22 823.803 1352.23C830.852 1355.15 838.428 1355.4 845.01 1349.62C857.947 1338.29 862.785 1292.88 845.066 1286.93C835.312 1283.71 809.583 1312.74 812.295 1335.83Z" fill="white" fill-opacity="0.03"/>
<path d="M891.725 1248.68C892.558 1255.07 896.225 1258.03 899.499 1259.22C904.207 1260.94 909.236 1260.88 913.561 1256.84C922.049 1248.91 924.935 1218.6 913.117 1215.2C906.609 1213.35 889.745 1233.41 891.725 1248.68Z" fill="white" fill-opacity="0.03"/>
<path d="M823.702 1124.74C824.636 1128.56 827.144 1129.5 829.276 1129.42C832.353 1129.3 835.52 1127.98 837.995 1124.33C842.832 1117.18 842.703 1097.34 835.036 1098.2C830.812 1098.68 821.474 1115.63 823.702 1124.74Z" fill="white" fill-opacity="0.03"/>
<path d="M1266.22 1102.2C1267.76 1112.08 1273.64 1116.17 1278.79 1117.54C1286.22 1119.51 1294.1 1118.66 1300.73 1111.69C1313.71 1098 1317.08 1050.12 1298.45 1046.59C1288.18 1044.66 1262.55 1078.61 1266.22 1102.2Z" fill="white" fill-opacity="0.03"/>
<path d="M1214.59 1050.93C1215.72 1058.84 1220.39 1062.28 1224.48 1063.52C1230.38 1065.32 1236.66 1064.89 1241.98 1059.52C1252.43 1049.02 1255.48 1011.02 1240.67 1007.65C1232.51 1005.79 1211.85 1032.04 1214.59 1050.93Z" fill="white" fill-opacity="0.03"/>
<path d="M1324.54 940.103C1325.72 946.707 1329.76 949.148 1333.27 949.786C1338.33 950.704 1343.66 949.685 1348.05 944.58C1356.65 934.572 1358.24 901.941 1345.57 900.609C1338.59 899.87 1321.71 924.33 1324.54 940.103Z" fill="white" fill-opacity="0.03"/>
<path d="M145.992 1410.6C147.736 1419.19 153.119 1421.95 157.765 1422.41C164.459 1423.07 171.439 1421.16 177.081 1413.96C188.14 1399.84 189.344 1356.69 172.621 1356.31C163.401 1356.1 141.835 1390.14 145.992 1410.6Z" fill="white" fill-opacity="0.05"/>
<path d="M131.777 1515.27C133.144 1521.61 137.177 1523.5 140.636 1523.69C145.626 1523.98 150.812 1522.32 154.958 1516.78C163.075 1505.92 163.631 1473.75 151.172 1474C144.304 1474.13 128.52 1500.16 131.777 1515.27Z" fill="white" fill-opacity="0.05"/>
<path d="M56.2503 1467.65C57.8197 1474.75 62.3647 1476.81 66.2628 1476.96C71.8878 1477.19 77.7041 1475.23 82.3391 1468.91C91.4291 1456.6 91.9016 1420.32 77.8784 1420.78C70.1272 1421.11 52.4872 1450.7 56.2503 1467.65Z" fill="white" fill-opacity="0.05"/>
<path d="M104.85 1340.61C105.784 1346.12 109.108 1348.26 112.011 1348.89C116.196 1349.78 120.611 1349.09 124.279 1344.99C131.473 1336.95 133.031 1309.98 122.546 1308.51C116.769 1307.7 102.617 1327.47 104.85 1340.61Z" fill="white" fill-opacity="0.05"/>
<path d="M274.567 1322.07C276.114 1330.91 281.486 1334.22 286.166 1335.14C292.916 1336.46 300.015 1335.14 305.887 1328.42C317.402 1315.24 319.674 1271.77 302.788 1269.75C293.484 1268.65 270.866 1300.93 274.567 1322.07Z" fill="white" fill-opacity="0.05"/>
<path d="M317.183 1422.3C318.797 1431.09 324.192 1434.26 328.877 1435.04C335.627 1436.16 342.72 1434.7 348.565 1427.81C359.989 1414.31 361.952 1370.72 345.055 1369.24C335.723 1368.39 313.313 1401.32 317.183 1422.3Z" fill="white" fill-opacity="0.05"/>
<path d="M466.735 1475.25C467.899 1483 472.472 1486.28 476.494 1487.43C482.288 1489.09 488.441 1488.55 493.645 1483.2C503.843 1472.72 506.661 1435.38 492.126 1432.33C484.11 1430.65 463.961 1456.77 466.735 1475.25Z" fill="white" fill-opacity="0.05"/>
<path d="M127.958 520C129.887 527.624 134.95 529.37 139.236 529.09C145.424 528.698 151.769 525.877 156.674 518.411C166.309 503.769 165.786 463.883 150.385 466.044C141.902 467.241 123.357 501.787 127.958 520Z" fill="white" fill-opacity="0.03"/>
<path d="M179.781 379.131C182.29 389.094 188.882 391.444 194.479 391.064C202.545 390.582 210.836 386.944 217.26 377.227C229.855 358.197 229.23 306.154 209.132 308.886C198.056 310.386 173.813 355.343 179.781 379.131Z" fill="white" fill-opacity="0.03"/>
<path d="M123.379 369.929C125.404 377.384 130.449 378.806 134.696 378.269C140.822 377.507 147.071 374.328 151.836 366.626C161.173 351.536 160.042 312.02 144.804 315.132C136.406 316.812 118.541 352.152 123.379 369.929Z" fill="white" fill-opacity="0.03"/>
<path d="M280.334 312.591C281.217 319.051 284.969 321.961 288.287 323.08C293.074 324.704 298.176 324.513 302.541 320.293C311.097 312.032 313.825 281.214 301.815 278.079C295.195 276.366 278.224 297.154 280.334 312.591Z" fill="white" fill-opacity="0.03"/>
<path d="M330.919 233.738C332.044 242.906 337.247 247.306 341.894 249.164C348.593 251.828 355.782 251.963 362.009 246.388C374.22 235.462 378.687 192.308 361.851 186.934C352.575 183.968 328.264 211.864 330.919 233.738Z" fill="white" fill-opacity="0.03"/>
<path d="M371.493 290.068C371.965 294.546 374.451 296.785 376.685 297.848C379.902 299.337 383.378 299.628 386.433 297.121C392.423 292.206 394.91 271.474 386.81 268.362C382.349 266.65 370.379 279.4 371.493 290.068Z" fill="white" fill-opacity="0.03"/>
<path d="M1049.36 1375.26C1052.81 1385.9 1060.41 1386.84 1066.71 1385.07C1075.79 1382.5 1084.92 1376.32 1091.56 1363.8C1104.58 1339.17 1100.56 1280.56 1078.06 1288.66C1065.65 1293.07 1041.11 1349.91 1049.36 1375.26Z" fill="white" fill-opacity="0.03"/>
<path d="M1067.29 1227.8C1069.11 1233.82 1073.31 1234.63 1076.82 1233.88C1081.88 1232.76 1087 1229.7 1090.8 1222.97C1098.25 1209.79 1096.58 1177.15 1084.05 1180.82C1077.1 1182.83 1062.96 1213.48 1067.29 1227.8Z" fill="white" fill-opacity="0.03"/>
<path d="M653.569 162.027C655.149 170.68 660.448 173.815 665.049 174.609C671.687 175.729 678.662 174.33 684.394 167.579C695.644 154.348 697.612 111.608 681.019 109.984C671.844 109.122 649.806 141.396 653.569 162.027Z" fill="white" fill-opacity="0.05"/>
<path d="M726.109 165.173C727.487 173.109 732.297 176.109 736.493 176.949C742.54 178.158 748.913 177.061 754.189 171.061C764.528 159.284 766.62 120.317 751.478 118.447C743.136 117.395 722.813 146.254 726.109 165.173Z" fill="white" fill-opacity="0.05"/>
<path d="M784.159 272.18C785.228 277.407 788.518 279.086 791.353 279.355C795.437 279.747 799.695 278.549 803.132 274.15C809.882 265.508 810.58 239.179 800.376 238.977C794.751 238.876 781.611 259.72 784.159 272.18Z" fill="white" fill-opacity="0.05"/>
<path d="M837.676 155.545C838.868 164.131 843.863 167.96 848.285 169.415C854.652 171.52 861.441 171.206 867.235 165.553C878.592 154.471 882.13 113.443 866.149 109.413C857.341 107.197 834.829 135.049 837.676 155.545Z" fill="white" fill-opacity="0.05"/>
<path d="M1133.49 3068C1185.24 3032.36 1242.32 3057.25 1296.65 3043.51C1352.06 3029.51 1403.34 2970.86 1440 2887.27V3224.02H1048.67C1065.11 3152.48 1096.04 3093.78 1133.49 3068Z" fill="white" fill-opacity="0.03"/>
<path d="M1202.66 1796.43C1177.31 1750.16 1163.05 1679.49 1164 1612.03H1440V1804.99C1415.61 1830.74 1390.15 1851.71 1363.25 1864.06C1307.78 1889.57 1244.61 1873.03 1202.66 1796.43Z" fill="white" fill-opacity="0.03"/>
<path d="M914.422 1785.17C871.526 1850.99 817.425 1879.08 765.056 1906.64C712.687 1934.2 658.687 1964.52 617.062 2033.55C578.222 2097.98 554.062 2189.66 526.005 2273.48C497.947 2357.29 461.959 2439.23 413.016 2464.57C367.29 2488.25 318.87 2457.77 276.39 2416.61C233.91 2375.44 193.624 2322.91 148.016 2298.34C100.063 2272.49 49.9836 2279.31 -0.00012207 2283.2V2090.12C6.05463 2095.08 12.3271 2098.9 18.7368 2101.55C52.0649 2115.22 86.9512 2105.91 120.296 2119.41C161.274 2135.99 196.582 2185.36 233.089 2225.94C269.595 2266.52 311.839 2299.83 352.468 2280.23C395.027 2259.69 425.593 2186.19 448.464 2111.91C471.336 2037.62 490.742 1956.09 524.25 1900C554.659 1849.1 593.719 1824.31 631.89 1802.38C670.061 1780.45 709.346 1759.39 741.876 1713.95C760.365 1688.13 776.396 1652.38 785.919 1612H971.623C964.26 1679.2 942.266 1742.44 914.422 1785.17Z" fill="white" fill-opacity="0.05"/>
<path d="M741.881 1713.98C709.352 1759.39 670.072 1780.44 631.895 1802.42C593.719 1824.39 554.664 1849.13 524.255 1900.03C490.742 1956.13 471.38 2037.64 448.464 2111.94C425.548 2186.24 395.027 2259.71 352.468 2280.26C311.827 2299.85 269.595 2266.56 233.089 2225.98C196.582 2185.4 161.274 2136.02 120.296 2119.44C86.9512 2105.94 52.0649 2115.26 18.7368 2101.59C12.3265 2098.93 6.05402 2095.09 -0.000183105 2090.12V1612.03H785.925C776.402 1652.46 760.37 1688.16 741.881 1713.98Z" fill="white" fill-opacity="0.03"/>
<path d="M420.52 1745.58C384.34 1776.42 341.77 1770.89 305.77 1739.21C278.961 1715.63 255.708 1678.84 232.803 1642.47L213.644 1612.03H483.531C473.524 1671.07 449.567 1720.81 420.52 1745.58Z" fill="white" fill-opacity="0.05"/>
<path d="M112.579 1612.03C99.8263 1662.25 80.1642 1704.21 55.8848 1733.03C38.7353 1753.14 19.7311 1766.18 0.000366211 1771.39V1612.03H112.579Z" fill="white" fill-opacity="0.05"/>
<path d="M832.5 3049C842.655 2971.93 866.495 2904.79 899.606 2860.01C955.901 2784.5 1028.68 2785.57 1096.57 2786.72C1164.45 2787.86 1237.97 2782.6 1291.11 2698.5C1330.1 2636.78 1351.48 2542.53 1376.27 2456.5C1392.97 2398.64 1413.56 2340.56 1440 2301.42V2887.27C1403.34 2970.86 1352.06 3029.51 1296.65 3043.51C1242.32 3057.25 1185.28 3032.32 1133.49 3068C1096.04 3093.74 1065.11 3152.48 1048.67 3224.02H834.266C825.846 3167.4 825.103 3106.2 832.5 3049Z" fill="white" fill-opacity="0.05"/>
<path d="M148.016 2298.34C193.624 2322.88 233.91 2375.49 276.39 2416.61C318.87 2457.72 367.29 2488.25 413.016 2464.58C461.953 2439.23 497.953 2357.24 526.005 2273.48C554.057 2189.71 578.222 2097.98 617.062 2033.55C658.687 1964.52 712.687 1934.19 765.045 1906.64C817.402 1879.09 871.515 1850.99 914.411 1785.17C942.266 1742.44 964.26 1679.2 971.623 1612.03H1058.88C1038.87 1729.96 993.021 1831.01 934.802 1877.54C870.784 1928.71 796.427 1917.37 735.143 1980.47C615.431 2103.78 590.102 2459.26 466.267 2565.18C395.758 2625.49 314.117 2584.21 243.084 2526.38C172.052 2468.55 101.812 2393.63 25.1605 2387.02C16.7737 2386.29 8.38684 2386.42 0 2387.02V2283.2C49.9837 2279.35 100.063 2272.5 148.016 2298.34Z" fill="white" fill-opacity="0.03"/>
<path d="M173.644 2901.55C212.417 2895.22 252.653 2903.79 287.325 2938.89C321.998 2974 350.399 3038.28 357.334 3114.45C360.664 3151 358.29 3189.77 351.074 3224.02H0.000488281V2980.97L59.5356 2948.64C97.0712 2928.32 134.871 2907.88 173.644 2901.55Z" fill="white" fill-opacity="0.03"/>
<path d="M501.564 3084.09C542.329 3060.89 590.023 3106.48 606.392 3184.35C609.045 3197.13 611.017 3210.43 612.275 3224.02H439.639C445.624 3159.99 469.834 3102.15 501.564 3084.09Z" fill="white" fill-opacity="0.05"/>
<path d="M731.514 2944.68C764.044 2842.81 816.677 2767.01 875.514 2737.45C935.139 2707.48 997.774 2724.02 1059.23 2729.19C1120.68 2734.36 1186.35 2725.49 1236.26 2654.02C1273.82 2600.28 1297.91 2517.33 1317.68 2434.09C1337.44 2350.85 1354.31 2263.68 1382.11 2190.06C1397.63 2148.97 1417.46 2112.13 1440 2087.39V2301.42C1413.56 2340.6 1392.97 2398.64 1376.3 2456.5C1351.51 2542.53 1330.13 2636.73 1291.13 2698.5C1237.99 2782.6 1164.47 2787.86 1096.59 2786.72C1028.71 2785.57 955.924 2784.48 899.629 2860.01C866.509 2904.78 842.661 2971.92 832.5 3049C825.081 3106.2 825.823 3167.4 834.244 3224.02H694.406C692.218 3126.34 705.15 3027.27 731.514 2944.68Z" fill="white" fill-opacity="0.03"/>
<path d="M1179.91 2048.7C1201.85 2079.61 1219.65 2125.42 1223.53 2178.31C1227.4 2231.21 1214.71 2290.26 1190.23 2312.24C1167.09 2333.08 1139.83 2318.2 1116.88 2296.5C1095.11 2275.93 1074.34 2248.6 1060.01 2210.03C1045.68 2171.45 1038.58 2120.24 1045.5 2074.28C1065.23 1943.1 1140.29 1992.84 1179.91 2048.7Z" fill="white" fill-opacity="0.05"/>
<path d="M1185.42 2459.94C1185.55 2479.96 1179.17 2500.69 1169.43 2505.6C1159.23 2510.74 1148.97 2498.44 1140.88 2485.06C1133.88 2473.5 1127.29 2460.43 1123.12 2444.31C1115.06 2413.16 1121.51 2350.56 1144.55 2368.71C1161.97 2382.43 1185.16 2419.7 1185.42 2459.94Z" fill="white" fill-opacity="0.05"/>
<path d="M271.884 1931.21C270.472 1938.87 265.764 1941.62 261.675 1942.29C255.78 1943.27 249.598 1941.97 244.519 1935.93C234.562 1924.12 232.875 1886.14 247.618 1884.84C255.746 1884.13 275.254 1912.92 271.884 1931.21Z" fill="white" fill-opacity="0.05"/>
<path d="M228.853 1838.74C228.235 1842.1 226.165 1843.37 224.353 1843.68C221.755 1844.13 219.026 1843.58 216.782 1840.95C212.377 1835.79 211.596 1819.04 218.093 1818.41C221.687 1818.07 230.316 1830.67 228.853 1838.74Z" fill="white" fill-opacity="0.05"/>
<path d="M214.037 1935.75C213.187 1942.73 209.216 1946.07 205.672 1947.47C200.57 1949.49 195.103 1949.59 190.361 1945.34C181.068 1937 177.682 1904.13 190.502 1900.07C197.567 1897.83 216.067 1919.1 214.037 1935.75Z" fill="white" fill-opacity="0.05"/>
<path d="M286.78 1861.5C286.082 1866.84 283.017 1869.34 280.288 1870.3C276.351 1871.72 272.166 1871.67 268.555 1868.29C261.473 1861.67 259.077 1836.37 268.937 1833.58C274.377 1832.02 288.433 1848.77 286.78 1861.5Z" fill="white" fill-opacity="0.05"/>
<path d="M184.134 1788.48C183.099 1794.48 179.46 1796.75 176.293 1797.44C171.725 1798.37 166.91 1797.55 162.916 1793.03C155.098 1784.15 153.495 1754.71 164.936 1753.25C171.241 1752.41 186.615 1774.17 184.134 1788.48Z" fill="white" fill-opacity="0.05"/>
<path d="M247.674 1755.42C246.966 1759.36 244.552 1760.82 242.454 1761.2C239.434 1761.75 236.267 1761.13 233.64 1758.08C228.504 1752.1 227.559 1732.62 235.119 1731.84C239.293 1731.4 249.368 1746.01 247.674 1755.42Z" fill="white" fill-opacity="0.05"/>
<path d="M330.598 2025.04C329.321 2034 324.09 2037.91 319.472 2039.37C312.823 2041.47 305.741 2041.05 299.711 2035.07C287.899 2023.34 284.349 1980.48 301.044 1976.5C310.247 1974.31 333.641 2003.69 330.598 2025.04Z" fill="white" fill-opacity="0.05"/>
<path d="M236.081 2054.93C235.125 2059.64 232.172 2061.16 229.624 2061.41C225.95 2061.78 222.12 2060.73 219.026 2056.78C212.957 2049.03 212.276 2025.35 221.467 2025.15C226.53 2025.03 238.359 2043.7 236.081 2054.93Z" fill="white" fill-opacity="0.05"/>
<path d="M596.587 2820.03C595.665 2826.9 591.688 2830.04 588.15 2831.22C583.087 2832.99 577.654 2832.84 573.007 2828.4C563.9 2819.73 560.925 2786.98 573.671 2783.63C580.708 2781.71 598.787 2803.63 596.587 2820.03Z" fill="white" fill-opacity="0.03"/>
<path d="M627.705 2947.86C626.58 2957.53 621.085 2962.24 616.197 2964.26C609.148 2967.17 601.572 2967.43 594.99 2961.64C582.053 2950.31 577.215 2904.91 594.934 2898.95C604.688 2895.74 630.417 2924.76 627.705 2947.86Z" fill="white" fill-opacity="0.03"/>
<path d="M548.275 2860.7C547.442 2867.09 543.775 2870.06 540.501 2871.24C535.793 2872.97 530.764 2872.9 526.439 2868.86C517.951 2860.93 515.065 2830.62 526.883 2827.23C533.391 2825.37 550.255 2845.43 548.275 2860.7Z" fill="white" fill-opacity="0.03"/>
<path d="M616.298 2736.77C615.364 2740.58 612.856 2741.52 610.724 2741.45C607.647 2741.32 604.48 2740 602.005 2736.35C597.168 2729.2 597.297 2709.36 604.964 2710.22C609.188 2710.71 618.526 2727.65 616.298 2736.77Z" fill="white" fill-opacity="0.03"/>
<path d="M173.779 2714.22C172.237 2724.11 166.359 2728.19 161.207 2729.57C153.776 2731.54 145.901 2730.69 139.269 2723.71C126.287 2710.02 122.923 2662.14 141.553 2658.62C151.824 2656.68 177.452 2690.63 173.779 2714.22Z" fill="white" fill-opacity="0.03"/>
<path d="M225.405 2662.95C224.28 2670.87 219.606 2674.3 215.516 2675.54C209.616 2677.35 203.344 2676.91 198.017 2671.55C187.571 2661.05 184.517 2623.04 199.333 2619.67C207.489 2617.82 228.15 2644.07 225.405 2662.95Z" fill="white" fill-opacity="0.03"/>
<path d="M115.459 2552.13C114.278 2558.73 110.239 2561.17 106.729 2561.81C101.666 2562.73 96.3394 2561.71 91.9519 2556.6C83.3513 2546.6 81.7595 2513.96 94.427 2512.63C101.408 2511.89 118.288 2536.35 115.459 2552.13Z" fill="white" fill-opacity="0.03"/>
<path d="M1294.01 3022.63C1292.26 3031.21 1286.88 3033.98 1282.24 3034.44C1275.54 3035.1 1268.56 3033.18 1262.92 3025.98C1251.86 3011.87 1250.66 2968.71 1267.38 2968.33C1276.6 2968.12 1298.17 3002.16 1294.01 3022.63Z" fill="white" fill-opacity="0.05"/>
<path d="M1308.22 3127.29C1306.86 3133.63 1302.82 3135.52 1299.36 3135.71C1294.37 3136 1289.19 3134.35 1285.04 3128.8C1276.93 3117.95 1276.37 3085.77 1288.83 3086.02C1295.7 3086.15 1311.48 3112.18 1308.22 3127.29Z" fill="white" fill-opacity="0.05"/>
<path d="M1383.75 3079.67C1382.18 3086.77 1377.64 3088.83 1373.74 3088.99C1368.11 3089.21 1362.3 3087.25 1357.66 3080.94C1348.57 3068.62 1348.1 3032.34 1362.12 3032.8C1369.87 3033.14 1387.51 3062.72 1383.75 3079.67Z" fill="white" fill-opacity="0.05"/>
<path d="M1335.15 2952.64C1334.22 2958.15 1330.89 2960.28 1327.99 2960.91C1323.8 2961.81 1319.39 2961.11 1315.72 2957.02C1308.53 2948.98 1306.97 2922 1317.45 2920.53C1323.23 2919.73 1337.38 2939.5 1335.15 2952.64Z" fill="white" fill-opacity="0.05"/>
<path d="M1165.43 2934.09C1163.89 2942.93 1158.51 2946.25 1153.83 2947.16C1147.08 2948.49 1139.99 2947.16 1134.11 2940.45C1122.6 2927.26 1120.33 2883.79 1137.21 2881.78C1146.52 2880.67 1169.13 2912.95 1165.43 2934.09Z" fill="white" fill-opacity="0.05"/>
<path d="M1122.82 3034.32C1121.2 3043.11 1115.81 3046.28 1111.12 3047.06C1104.37 3048.18 1097.28 3046.73 1091.44 3039.83C1080.01 3026.33 1078.05 2982.74 1094.95 2981.26C1104.28 2980.41 1126.69 3013.35 1122.82 3034.32Z" fill="white" fill-opacity="0.05"/>
<path d="M973.265 3087.27C972.101 3095.02 967.528 3098.3 963.506 3099.45C957.712 3101.11 951.559 3100.57 946.355 3095.22C936.157 3084.74 933.339 3047.4 947.874 3044.35C955.89 3042.67 976.039 3068.79 973.265 3087.27Z" fill="white" fill-opacity="0.05"/>
<path d="M1312.04 2132.02C1310.11 2139.65 1305.05 2141.39 1300.76 2141.11C1294.58 2140.72 1288.23 2137.9 1283.33 2130.43C1273.69 2115.79 1274.21 2075.91 1289.62 2078.07C1298.1 2079.27 1316.64 2113.81 1312.04 2132.02Z" fill="white" fill-opacity="0.03"/>
<path d="M1260.22 1991.15C1257.71 2001.12 1251.12 2003.47 1245.52 2003.09C1237.45 2002.61 1229.16 1998.97 1222.74 1989.25C1210.15 1970.22 1210.77 1918.18 1230.87 1920.91C1241.94 1922.41 1266.19 1967.37 1260.22 1991.15Z" fill="white" fill-opacity="0.03"/>
<path d="M1316.62 1981.95C1314.6 1989.41 1309.55 1990.83 1305.3 1990.29C1299.18 1989.53 1292.93 1986.35 1288.16 1978.65C1278.83 1963.56 1279.96 1924.04 1295.2 1927.16C1303.59 1928.84 1321.46 1964.18 1316.62 1981.95Z" fill="white" fill-opacity="0.03"/>
<path d="M1159.67 1924.62C1158.78 1931.07 1155.03 1933.98 1151.71 1935.1C1146.93 1936.73 1141.82 1936.54 1137.46 1932.32C1128.9 1924.06 1126.18 1893.24 1138.18 1890.1C1144.81 1888.39 1161.78 1909.18 1159.67 1924.62Z" fill="white" fill-opacity="0.03"/>
<path d="M1109.08 1845.76C1107.96 1854.93 1102.75 1859.33 1098.11 1861.19C1091.41 1863.85 1084.22 1863.99 1077.99 1858.41C1065.78 1847.49 1061.31 1804.33 1078.15 1798.96C1087.42 1795.99 1111.74 1823.89 1109.08 1845.76Z" fill="white" fill-opacity="0.03"/>
<path d="M1068.51 1902.09C1068.03 1906.57 1065.55 1908.81 1063.32 1909.87C1060.1 1911.36 1056.62 1911.65 1053.57 1909.14C1047.58 1904.23 1045.09 1883.5 1053.19 1880.39C1057.65 1878.67 1069.62 1891.42 1068.51 1902.09Z" fill="white" fill-opacity="0.03"/>
<path d="M390.639 2987.29C387.185 2997.92 379.591 2998.86 373.291 2997.09C364.213 2994.53 355.083 2988.35 348.44 2975.82C335.424 2951.19 339.44 2892.58 361.94 2900.69C374.349 2905.1 398.891 2961.93 390.639 2987.29Z" fill="white" fill-opacity="0.03"/>
<path d="M372.707 2839.82C370.89 2845.84 366.688 2846.65 363.178 2845.9C358.115 2844.78 353.002 2841.72 349.2 2835C341.752 2821.81 343.417 2789.18 355.95 2792.84C362.902 2794.85 377.043 2825.5 372.707 2839.82Z" fill="white" fill-opacity="0.03"/>
<path d="M786.431 1774.05C784.851 1782.7 779.552 1785.84 774.951 1786.63C768.313 1787.75 761.338 1786.35 755.606 1779.6C744.356 1766.37 742.388 1723.63 758.981 1722.01C768.156 1721.15 790.194 1753.42 786.431 1774.05Z" fill="white" fill-opacity="0.05"/>
<path d="M713.891 1777.2C712.513 1785.13 707.703 1788.13 703.507 1788.97C697.46 1790.18 691.087 1789.08 685.811 1783.08C675.472 1771.31 673.38 1732.34 688.522 1730.47C696.864 1729.42 717.187 1758.28 713.891 1777.2Z" fill="white" fill-opacity="0.05"/>
<path d="M655.841 1884.2C654.772 1889.43 651.482 1891.11 648.647 1891.38C644.563 1891.77 640.305 1890.57 636.868 1886.17C630.118 1877.53 629.42 1851.2 639.624 1851C645.249 1850.9 658.389 1871.74 655.841 1884.2Z" fill="white" fill-opacity="0.05"/>
<path d="M602.324 1767.57C601.132 1776.16 596.137 1779.98 591.715 1781.44C585.348 1783.54 578.559 1783.23 572.765 1777.58C561.408 1766.49 557.87 1725.47 573.851 1721.44C582.659 1719.22 605.171 1747.07 602.324 1767.57Z" fill="white" fill-opacity="0.05"/>
<path d="M1202.66 5018.43C1177.31 4972.16 1163.05 4901.49 1164 4834.03H1440V5026.99C1415.61 5052.74 1390.15 5073.71 1363.25 5086.06C1307.78 5111.57 1244.61 5095.03 1202.66 5018.43Z" fill="white" fill-opacity="0.03"/>
<path d="M914.422 5007.17C871.526 5072.99 817.425 5101.08 765.056 5128.64C712.687 5156.2 658.687 5186.52 617.062 5255.55C578.222 5319.98 554.062 5411.66 526.005 5495.48C497.947 5579.29 461.959 5661.23 413.016 5686.57C367.29 5710.25 318.87 5679.77 276.39 5638.61C233.91 5597.44 193.624 5544.91 148.016 5520.34C100.063 5494.49 49.9836 5501.31 -0.00012207 5505.2V5312.12C6.05463 5317.08 12.3271 5320.9 18.7368 5323.55C52.0649 5337.22 86.9512 5327.91 120.296 5341.41C161.274 5357.99 196.582 5407.36 233.089 5447.94C269.595 5488.52 311.839 5521.83 352.468 5502.23C395.027 5481.69 425.593 5408.19 448.464 5333.91C471.336 5259.62 490.742 5178.09 524.25 5122C554.659 5071.1 593.719 5046.31 631.89 5024.38C670.061 5002.45 709.346 4981.39 741.876 4935.95C760.365 4910.13 776.396 4874.38 785.919 4834H971.623C964.26 4901.2 942.266 4964.44 914.422 5007.17Z" fill="white" fill-opacity="0.05"/>
<path d="M741.881 4935.98C709.352 4981.39 670.072 5002.44 631.895 5024.42C593.719 5046.39 554.664 5071.13 524.255 5122.03C490.742 5178.13 471.38 5259.64 448.464 5333.94C425.548 5408.24 395.027 5481.71 352.468 5502.26C311.827 5521.85 269.595 5488.56 233.089 5447.98C196.582 5407.4 161.274 5358.02 120.296 5341.44C86.9512 5327.94 52.0649 5337.26 18.7368 5323.59C12.3265 5320.93 6.05402 5317.09 -0.000183105 5312.12V4834.03H785.925C776.402 4874.46 760.37 4910.16 741.881 4935.98Z" fill="white" fill-opacity="0.03"/>
<path d="M420.52 4967.58C384.34 4998.42 341.77 4992.89 305.77 4961.21C278.961 4937.63 255.708 4900.84 232.803 4864.47L213.644 4834.03H483.531C473.524 4893.07 449.567 4942.81 420.52 4967.58Z" fill="white" fill-opacity="0.05"/>
<path d="M112.579 4834.03C99.8263 4884.25 80.1642 4926.21 55.8848 4955.03C38.7353 4975.14 19.7311 4988.18 0.000366211 4993.39V4834.03H112.579Z" fill="white" fill-opacity="0.05"/>
<path d="M148.016 5520.34C193.624 5544.88 233.91 5597.49 276.39 5638.61C318.87 5679.72 367.29 5710.25 413.016 5686.58C461.953 5661.23 497.953 5579.24 526.005 5495.48C554.057 5411.71 578.222 5319.98 617.062 5255.55C658.687 5186.52 712.687 5156.19 765.045 5128.64C817.402 5101.09 871.515 5072.99 914.411 5007.17C942.266 4964.44 964.26 4901.2 971.623 4834.03H1058.88C1038.87 4951.96 993.021 5053.01 934.802 5099.54C870.784 5150.71 796.427 5139.37 735.143 5202.47C615.431 5325.78 590.102 5681.26 466.267 5787.18C395.758 5847.49 314.117 5806.21 243.084 5748.38C172.052 5690.55 101.812 5615.63 25.1605 5609.02C16.7737 5608.29 8.38684 5608.42 0 5609.02V5505.2C49.9837 5501.35 100.063 5494.5 148.016 5520.34Z" fill="white" fill-opacity="0.03"/>
<path d="M1133.49 3378.03C1185.24 3413.66 1242.32 3388.77 1296.65 3402.51C1352.06 3416.51 1403.34 3475.16 1440 3558.75V3222H1048.67C1065.11 3293.54 1096.04 3352.25 1133.49 3378.03Z" fill="white" fill-opacity="0.03"/>
<path d="M1202.66 4649.6C1177.31 4695.86 1163.05 4766.53 1164 4833.99H1440V4641.03C1415.61 4615.28 1390.15 4594.32 1363.25 4581.96C1307.78 4556.46 1244.61 4572.99 1202.66 4649.6Z" fill="white" fill-opacity="0.03"/>
<path d="M914.422 4660.86C871.526 4595.04 817.425 4566.95 765.056 4539.39C712.687 4511.83 658.687 4481.5 617.062 4412.48C578.222 4348.04 554.062 4256.36 526.005 4172.55C497.947 4088.74 461.959 4006.79 413.016 3981.45C367.29 3957.77 318.87 3988.26 276.39 4029.42C233.91 4070.58 193.624 4123.11 148.016 4147.69C100.063 4173.53 49.9836 4166.72 -0.00012207 4162.82V4355.9C6.05463 4350.95 12.3271 4347.12 18.7368 4344.47C52.0649 4330.8 86.9512 4340.12 120.296 4326.62C161.274 4310.04 196.582 4260.66 233.089 4220.08C269.595 4179.5 311.839 4146.2 352.468 4165.8C395.027 4186.33 425.593 4259.83 448.464 4334.12C471.336 4408.4 490.742 4489.93 524.25 4546.03C554.659 4596.93 593.719 4621.71 631.89 4643.64C670.061 4665.57 709.346 4686.64 741.876 4732.08C760.365 4757.89 776.396 4793.65 785.919 4834.02H971.623C964.26 4766.82 942.266 4703.59 914.422 4660.86Z" fill="white" fill-opacity="0.05"/>
<path d="M741.881 4732.04C709.352 4686.64 670.072 4665.58 631.895 4643.61C593.719 4621.63 554.664 4596.89 524.255 4545.99C490.742 4489.9 471.38 4408.38 448.464 4334.08C425.548 4259.79 395.027 4186.32 352.468 4165.76C311.827 4146.17 269.595 4179.47 233.089 4220.05C196.582 4260.62 161.274 4310 120.296 4326.58C86.9512 4340.08 52.0649 4330.77 18.7368 4344.44C12.3265 4347.1 6.05402 4350.93 -0.000183105 4355.9V4833.99H785.925C776.402 4793.57 760.37 4757.87 741.881 4732.04Z" fill="white" fill-opacity="0.03"/>
<path d="M420.52 4700.44C384.34 4669.6 341.77 4675.13 305.77 4706.81C278.961 4730.4 255.708 4767.18 232.803 4803.55L213.644 4833.99H483.531C473.524 4774.95 449.567 4725.21 420.52 4700.44Z" fill="white" fill-opacity="0.05"/>
<path d="M112.579 4833.99C99.8263 4783.78 80.1642 4741.81 55.8848 4712.99C38.7353 4692.89 19.7311 4679.84 0.000366211 4674.64V4833.99H112.579Z" fill="white" fill-opacity="0.05"/>
<path d="M832.5 3397.02C842.655 3474.09 866.495 3541.23 899.606 3586.02C955.901 3661.52 1028.68 3660.45 1096.57 3659.31C1164.45 3658.17 1237.97 3663.43 1291.11 3747.52C1330.1 3809.25 1351.48 3903.49 1376.27 3989.52C1392.97 4047.38 1413.56 4105.46 1440 4144.61V3558.75C1403.34 3475.16 1352.06 3416.51 1296.65 3402.51C1242.32 3388.77 1185.28 3413.7 1133.49 3378.03C1096.04 3352.28 1065.11 3293.54 1048.67 3222H834.266C825.846 3278.62 825.103 3339.82 832.5 3397.02Z" fill="white" fill-opacity="0.05"/>
<path d="M148.016 4147.69C193.624 4123.15 233.91 4070.53 276.39 4029.42C318.87 3988.3 367.29 3957.77 413.016 3981.45C461.953 4006.79 497.953 4088.78 526.005 4172.55C554.057 4256.32 578.222 4348.04 617.062 4412.48C658.687 4481.5 712.687 4511.84 765.045 4539.39C817.402 4566.94 871.515 4595.03 914.411 4660.86C942.266 4703.59 964.26 4766.82 971.623 4833.99H1058.88C1038.87 4716.07 993.021 4615.02 934.802 4568.48C870.784 4517.31 796.427 4528.65 735.143 4465.55C615.431 4342.24 590.102 3986.77 466.267 3880.84C395.758 3820.53 314.117 3861.81 243.084 3919.64C172.052 3977.47 101.812 4052.4 25.1605 4059C16.7737 4059.73 8.38684 4059.61 0 4059V4162.82C49.9837 4166.67 100.063 4173.52 148.016 4147.69Z" fill="white" fill-opacity="0.03"/>
<path d="M173.644 3544.48C212.417 3550.8 252.653 3542.24 287.325 3507.13C321.998 3472.03 350.399 3407.75 357.334 3331.57C360.664 3295.02 358.29 3256.25 351.074 3222H0.000488281V3465.05L59.5356 3497.38C97.0712 3517.7 134.871 3538.14 173.644 3544.48Z" fill="white" fill-opacity="0.03"/>
<path d="M501.564 3361.93C542.329 3385.14 590.023 3339.54 606.392 3261.67C609.045 3248.89 611.017 3235.6 612.275 3222H439.639C445.624 3286.03 469.834 3343.87 501.564 3361.93Z" fill="white" fill-opacity="0.05"/>
<path d="M731.514 3501.34C764.044 3603.21 816.677 3679.01 875.514 3708.57C935.139 3738.54 997.774 3722.01 1059.23 3716.84C1120.68 3711.66 1186.35 3720.53 1236.26 3792.01C1273.82 3845.74 1297.91 3928.69 1317.68 4011.93C1337.44 4095.17 1354.31 4182.34 1382.11 4255.97C1397.63 4297.05 1417.46 4333.89 1440 4358.63V4144.61C1413.56 4105.43 1392.97 4047.38 1376.3 3989.52C1351.51 3903.49 1330.13 3809.29 1291.13 3747.52C1237.99 3663.43 1164.47 3658.17 1096.59 3659.31C1028.71 3660.45 955.924 3661.55 899.629 3586.02C866.509 3541.24 842.661 3474.1 832.5 3397.02C825.081 3339.82 825.823 3278.62 834.244 3222H694.406C692.218 3319.68 705.15 3418.75 731.514 3501.34Z" fill="white" fill-opacity="0.03"/>
<path d="M1179.91 4397.32C1201.85 4366.41 1219.65 4320.6 1223.53 4267.71C1227.4 4214.82 1214.71 4155.77 1190.23 4133.78C1167.09 4112.95 1139.83 4127.83 1116.88 4149.52C1095.11 4170.1 1074.34 4197.42 1060.01 4236C1045.68 4274.57 1038.58 4325.79 1045.5 4371.74C1065.23 4502.93 1140.29 4453.18 1179.91 4397.32Z" fill="white" fill-opacity="0.05"/>
<path d="M1185.42 3986.08C1185.55 3966.07 1179.17 3945.34 1169.43 3940.42C1159.23 3935.28 1148.97 3947.59 1140.88 3960.96C1133.88 3972.53 1127.29 3985.59 1123.12 4001.71C1115.06 4032.86 1121.51 4095.46 1144.55 4077.32C1161.97 4063.59 1185.16 4026.33 1185.42 3986.08Z" fill="white" fill-opacity="0.05"/>
<path d="M271.884 4514.82C270.472 4507.16 265.764 4504.4 261.675 4503.73C255.78 4502.76 249.598 4504.06 244.519 4510.09C234.562 4521.9 232.875 4559.88 247.618 4561.18C255.746 4561.9 275.254 4533.11 271.884 4514.82Z" fill="white" fill-opacity="0.05"/>
<path d="M228.853 4607.28C228.235 4603.92 226.165 4602.66 224.353 4602.34C221.755 4601.9 219.026 4602.44 216.782 4605.08C212.377 4610.24 211.596 4626.98 218.093 4627.61C221.687 4627.96 230.316 4615.35 228.853 4607.28Z" fill="white" fill-opacity="0.05"/>
<path d="M214.037 4510.27C213.187 4503.3 209.216 4499.95 205.672 4498.55C200.57 4496.53 195.103 4496.43 190.361 4500.69C181.068 4509.03 177.682 4541.89 190.502 4545.96C197.567 4548.2 216.067 4526.93 214.037 4510.27Z" fill="white" fill-opacity="0.05"/>
<path d="M286.78 4584.52C286.082 4579.18 283.017 4576.69 280.288 4575.72C276.351 4574.3 272.166 4574.36 268.555 4577.74C261.473 4584.35 259.077 4609.65 268.937 4612.44C274.377 4614.01 288.433 4597.25 286.78 4584.52Z" fill="white" fill-opacity="0.05"/>
<path d="M184.134 4657.54C183.099 4651.54 179.46 4649.27 176.293 4648.59C171.725 4647.66 166.91 4648.48 162.916 4653C155.098 4661.88 153.495 4691.32 164.936 4692.77C171.241 4693.61 186.615 4671.85 184.134 4657.54Z" fill="white" fill-opacity="0.05"/>
<path d="M247.674 4690.6C246.966 4686.66 244.552 4685.2 242.454 4684.82C239.434 4684.28 236.267 4684.89 233.64 4687.95C228.504 4693.93 227.559 4713.4 235.119 4714.19C239.293 4714.62 249.368 4700.01 247.674 4690.6Z" fill="white" fill-opacity="0.05"/>
<path d="M330.598 4420.98C329.321 4412.03 324.09 4408.11 319.472 4406.66C312.823 4404.55 305.741 4404.98 299.711 4410.95C287.899 4422.69 284.349 4465.55 301.044 4469.52C310.247 4471.72 333.641 4442.33 330.598 4420.98Z" fill="white" fill-opacity="0.05"/>
<path d="M236.081 4391.1C235.125 4386.38 232.172 4384.86 229.624 4384.61C225.95 4384.24 222.12 4385.3 219.026 4389.25C212.957 4396.99 212.276 4420.67 221.467 4420.87C226.53 4421 238.359 4402.32 236.081 4391.1Z" fill="white" fill-opacity="0.05"/>
<path d="M596.587 3625.99C595.665 3619.12 591.688 3615.99 588.15 3614.8C583.087 3613.03 577.654 3613.19 573.007 3617.62C563.9 3626.3 560.925 3659.04 573.671 3662.4C580.708 3664.31 598.787 3642.39 596.587 3625.99Z" fill="white" fill-opacity="0.03"/>
<path d="M627.705 3498.17C626.58 3488.49 621.085 3483.78 616.197 3481.77C609.148 3478.86 601.572 3478.6 594.99 3484.39C582.053 3495.71 577.215 3541.12 594.934 3547.07C604.688 3550.29 630.417 3521.26 627.705 3498.17Z" fill="white" fill-opacity="0.03"/>
<path d="M548.275 3585.32C547.442 3578.93 543.775 3575.97 540.501 3574.78C535.793 3573.06 530.764 3573.12 526.439 3577.16C517.951 3585.09 515.065 3615.4 526.883 3618.8C533.391 3620.65 550.255 3600.59 548.275 3585.32Z" fill="white" fill-opacity="0.03"/>
<path d="M616.298 3709.26C615.364 3705.44 612.856 3704.5 610.724 3704.58C607.647 3704.7 604.48 3706.02 602.005 3709.67C597.168 3716.82 597.297 3736.66 604.964 3735.8C609.188 3735.32 618.526 3718.37 616.298 3709.26Z" fill="white" fill-opacity="0.03"/>
<path d="M173.779 3731.8C172.237 3721.92 166.359 3717.83 161.207 3716.46C153.776 3714.49 145.901 3715.34 139.269 3722.31C126.287 3736 122.923 3783.88 141.553 3787.41C151.824 3789.34 177.452 3755.39 173.779 3731.8Z" fill="white" fill-opacity="0.03"/>
<path d="M225.405 3783.07C224.28 3775.16 219.606 3771.72 215.516 3770.48C209.616 3768.68 203.344 3769.11 198.017 3774.48C187.571 3784.98 184.517 3822.98 199.333 3826.35C207.489 3828.21 228.15 3801.96 225.405 3783.07Z" fill="white" fill-opacity="0.03"/>
<path d="M115.459 3893.9C114.278 3887.29 110.239 3884.85 106.729 3884.21C101.666 3883.3 96.3394 3884.31 91.9519 3889.42C83.3513 3899.43 81.7595 3932.06 94.427 3933.39C101.408 3934.13 118.288 3909.67 115.459 3893.9Z" fill="white" fill-opacity="0.03"/>
<path d="M1294.01 3423.4C1292.26 3414.81 1286.88 3412.05 1282.24 3411.59C1275.54 3410.93 1268.56 3412.84 1262.92 3420.04C1251.86 3434.16 1250.66 3477.31 1267.38 3477.69C1276.6 3477.9 1298.17 3443.86 1294.01 3423.4Z" fill="white" fill-opacity="0.05"/>
<path d="M1308.22 3318.73C1306.86 3312.39 1302.82 3310.5 1299.36 3310.31C1294.37 3310.02 1289.19 3311.68 1285.04 3317.22C1276.93 3328.08 1276.37 3360.25 1288.83 3360C1295.7 3359.87 1311.48 3333.84 1308.22 3318.73Z" fill="white" fill-opacity="0.05"/>
<path d="M1383.75 3366.35C1382.18 3359.25 1377.64 3357.19 1373.74 3357.04C1368.11 3356.81 1362.3 3358.77 1357.66 3365.09C1348.57 3377.4 1348.1 3413.68 1362.12 3413.22C1369.87 3412.89 1387.51 3383.3 1383.75 3366.35Z" fill="white" fill-opacity="0.05"/>
<path d="M1335.15 3493.39C1334.22 3487.88 1330.89 3485.74 1327.99 3485.11C1323.8 3484.22 1319.39 3484.91 1315.72 3489.01C1308.53 3497.05 1306.97 3524.02 1317.45 3525.49C1323.23 3526.3 1337.38 3506.53 1335.15 3493.39Z" fill="white" fill-opacity="0.05"/>
<path d="M1165.43 3511.93C1163.89 3503.09 1158.51 3499.78 1153.83 3498.86C1147.08 3497.54 1139.99 3498.86 1134.11 3505.58C1122.6 3518.76 1120.33 3562.23 1137.21 3564.25C1146.52 3565.35 1169.13 3533.07 1165.43 3511.93Z" fill="white" fill-opacity="0.05"/>
<path d="M1122.82 3411.7C1121.2 3402.91 1115.81 3399.74 1111.12 3398.96C1104.37 3397.84 1097.28 3399.3 1091.44 3406.19C1080.01 3419.69 1078.05 3463.28 1094.95 3464.76C1104.28 3465.61 1126.69 3432.68 1122.82 3411.7Z" fill="white" fill-opacity="0.05"/>
<path d="M973.265 3358.75C972.101 3351 967.528 3347.72 963.506 3346.57C957.712 3344.91 951.559 3345.45 946.355 3350.8C936.157 3361.28 933.339 3398.62 947.874 3401.67C955.89 3403.35 976.039 3377.23 973.265 3358.75Z" fill="white" fill-opacity="0.05"/>
<path d="M1312.04 4314C1310.11 4306.38 1305.05 4304.63 1300.76 4304.91C1294.58 4305.3 1288.23 4308.12 1283.33 4315.59C1273.69 4330.23 1274.21 4370.12 1289.62 4367.96C1298.1 4366.76 1316.64 4332.21 1312.04 4314Z" fill="white" fill-opacity="0.03"/>
<path d="M1260.22 4454.87C1257.71 4444.91 1251.12 4442.56 1245.52 4442.94C1237.45 4443.42 1229.16 4447.06 1222.74 4456.77C1210.15 4475.8 1210.77 4527.85 1230.87 4525.11C1241.94 4523.61 1266.19 4478.66 1260.22 4454.87Z" fill="white" fill-opacity="0.03"/>
<path d="M1316.62 4464.07C1314.6 4456.62 1309.55 4455.19 1305.3 4455.73C1299.18 4456.49 1292.93 4459.67 1288.16 4467.37C1278.83 4482.46 1279.96 4521.98 1295.2 4518.87C1303.59 4517.19 1321.46 4481.85 1316.62 4464.07Z" fill="white" fill-opacity="0.03"/>
<path d="M1159.67 4521.41C1158.78 4514.95 1155.03 4512.04 1151.71 4510.92C1146.93 4509.3 1141.82 4509.49 1137.46 4513.71C1128.9 4521.97 1126.18 4552.79 1138.18 4555.92C1144.81 4557.63 1161.78 4536.85 1159.67 4521.41Z" fill="white" fill-opacity="0.03"/>
<path d="M1109.08 4600.26C1107.96 4591.09 1102.75 4586.69 1098.11 4584.84C1091.41 4582.17 1084.22 4582.04 1077.99 4587.61C1065.78 4598.54 1061.31 4641.69 1078.15 4647.07C1087.42 4650.03 1111.74 4622.14 1109.08 4600.26Z" fill="white" fill-opacity="0.03"/>
<path d="M1068.51 4543.93C1068.03 4539.45 1065.55 4537.22 1063.32 4536.15C1060.1 4534.66 1056.62 4534.37 1053.57 4536.88C1047.58 4541.79 1045.09 4562.53 1053.19 4565.64C1057.65 4567.35 1069.62 4554.6 1068.51 4543.93Z" fill="white" fill-opacity="0.03"/>
<path d="M390.639 3458.74C387.185 3448.1 379.591 3447.16 373.291 3448.93C364.213 3451.5 355.083 3457.68 348.44 3470.2C335.424 3494.83 339.44 3553.44 361.94 3545.34C374.349 3540.93 398.891 3484.09 390.639 3458.74Z" fill="white" fill-opacity="0.03"/>
<path d="M372.707 3606.2C370.89 3600.18 366.688 3599.37 363.178 3600.12C358.115 3601.24 353.002 3604.3 349.2 3611.03C341.752 3624.21 343.417 3656.85 355.95 3653.18C362.902 3651.17 377.043 3620.52 372.707 3606.2Z" fill="white" fill-opacity="0.03"/>
<path d="M786.431 4671.97C784.851 4663.32 779.552 4660.19 774.951 4659.39C768.313 4658.27 761.338 4659.67 755.606 4666.42C744.356 4679.65 742.388 4722.39 758.981 4724.02C768.156 4724.88 790.194 4692.6 786.431 4671.97Z" fill="white" fill-opacity="0.05"/>
<path d="M713.891 4668.83C712.513 4660.89 707.703 4657.89 703.507 4657.05C697.46 4655.84 691.087 4656.94 685.811 4662.94C675.472 4674.72 673.38 4713.68 688.522 4715.55C696.864 4716.6 717.187 4687.75 713.891 4668.83Z" fill="white" fill-opacity="0.05"/>
<path d="M655.841 4561.82C654.772 4556.59 651.482 4554.91 648.647 4554.64C644.563 4554.25 640.305 4555.45 636.868 4559.85C630.118 4568.49 629.42 4594.82 639.624 4595.02C645.249 4595.12 658.389 4574.28 655.841 4561.82Z" fill="white" fill-opacity="0.05"/>
<path d="M602.324 4678.45C601.132 4669.87 596.137 4666.04 591.715 4664.58C585.348 4662.48 578.559 4662.79 572.765 4668.45C561.408 4679.53 557.87 4720.56 573.851 4724.59C582.659 4726.8 605.171 4698.95 602.324 4678.45Z" fill="white" fill-opacity="0.05"/>
</g>
</svg>
