<svg width="60" height="60" viewBox="0 0 60 60" fill="none" xmlns="http://www.w3.org/2000/svg">
<rect width="60" height="60" fill="#E5EFFF"/>
<g clip-path="url(#clip0_1494_235)">
<path d="M18.029 29.8888V27.7949H18.9696L20.5847 29.8888H22.0634L20.2771 27.6331C21.0033 27.4017 21.5846 26.8806 21.5846 25.8553C21.5846 24.3427 20.3712 23.9072 19.2085 23.9072H16.7469V29.8888H18.029ZM18.029 25.0351H19.2687C19.8068 25.0351 20.2771 25.2655 20.2771 25.8807C20.2771 26.4874 19.8068 26.7273 19.2687 26.7273H18.029V25.0351Z" fill="#0274CA"/>
<path d="M22.3625 26.8973C22.3625 28.5218 23.4217 30.009 25.541 30.009C27.6612 30.009 28.7204 28.5218 28.7204 26.8973C28.7204 25.2738 27.6612 23.7866 25.541 23.7866C23.4217 23.7866 22.3625 25.2738 22.3625 26.8973ZM27.4044 26.8973C27.4044 27.949 26.7808 28.821 25.541 28.821C24.2937 28.821 23.67 27.949 23.67 26.8973C23.67 25.8466 24.2937 24.9747 25.541 24.9747C26.7808 24.9747 27.4044 25.8466 27.4044 26.8973Z" fill="#0274CA"/>
<path d="M30.9514 29.8888V26.8044C30.9514 26.5307 30.942 26.2316 30.925 25.9832L33.7112 29.8888H34.9162V23.9072H33.6341V26.9916C33.6341 27.2653 33.6426 27.5645 33.6604 27.8128L30.8742 23.9072H29.6693V29.8888H30.9514Z" fill="#0274CA"/>
<path d="M36.9077 29.8888L37.3526 28.7694H40.087L40.5226 29.8888H41.8479L39.4117 23.9072H38.027L35.5832 29.8888H36.9077ZM38.5829 25.5646C38.6347 25.4452 38.677 25.3257 38.7193 25.0943C38.7626 25.3257 38.8049 25.4452 38.8482 25.5646L39.6854 27.7103H37.7542L38.5829 25.5646Z" fill="#0274CA"/>
<path d="M43.7959 29.8888V27.7949H44.7365L46.3516 29.8888H47.8303L46.044 27.6331C46.7702 27.4017 47.3515 26.8806 47.3515 25.8553C47.3515 24.3427 46.1381 23.9072 44.9755 23.9072H42.5138V29.8888H43.7959ZM43.7959 25.0351H45.0357C45.5737 25.0351 46.044 25.2655 46.044 25.8807C46.044 26.4874 45.5737 26.7273 45.0357 26.7273H43.7959V25.0351Z" fill="#0274CA"/>
<path d="M49.2572 29.8888L49.7012 28.7694H52.4366L52.8721 29.8888H54.1965L51.7612 23.9072H50.3766L47.9328 29.8888H49.2572ZM50.9325 25.5646C50.9833 25.4452 51.0266 25.3257 51.0689 25.0943C51.1122 25.3257 51.1545 25.4452 51.1968 25.5646L52.0349 27.7103H50.1028L50.9325 25.5646Z" fill="#0274CA"/>
<path d="M10.6938 23.9072V29.8926H13.2675C14.3106 29.8926 15.6191 29.5765 15.6191 28.2163C15.6191 27.3359 15.0632 26.8994 14.4734 26.7292C15.0039 26.5495 15.3801 26.1215 15.3801 25.4207C15.3801 24.3945 14.5844 23.9072 13.3107 23.9072H10.6938ZM14.336 28.0799C14.336 28.7299 13.8234 28.8494 13.2505 28.8494H11.9675V27.3105H13.3192C13.8318 27.3105 14.336 27.4469 14.336 28.0799ZM14.1056 25.6427C14.1056 26.1046 13.7547 26.3266 13.2675 26.3266H11.9759V24.9589H13.1988C13.7632 24.9589 14.1056 25.1724 14.1056 25.6427Z" fill="#0274CA"/>
<path d="M33.305 30.6509C33.3126 30.6481 33.321 30.6443 33.3276 30.6396L33.3342 30.6359C33.3398 30.6321 33.3455 30.6283 33.3511 30.6236C33.3925 30.5907 33.417 30.5446 33.4226 30.4957C33.4283 30.4468 33.4151 30.396 33.3822 30.3546L31.9035 28.5589C31.8856 28.5345 31.8621 28.5138 31.8348 28.4997L31.8292 28.4968C31.8038 28.4846 31.7756 28.478 31.7464 28.478C31.6937 28.478 31.6457 28.4997 31.6109 28.5345C31.5761 28.5693 31.5545 28.6172 31.5545 28.6699V31.3799C31.5545 31.4279 31.594 31.4674 31.642 31.4674C31.6589 31.4674 31.674 31.4627 31.6871 31.4552C32.0145 31.2981 32.3211 31.1438 32.6287 30.9886C32.8601 30.872 33.0925 30.7553 33.305 30.6509Z" fill="#5FCE8C"/>
<path d="M31.6465 23.6824C31.6399 23.6852 31.6333 23.689 31.6277 23.6918L31.622 23.6956C31.6173 23.6984 31.6126 23.7012 31.6079 23.705C31.5731 23.7332 31.5534 23.7718 31.5487 23.8132C31.544 23.8536 31.5543 23.8969 31.5825 23.9308L32.8195 25.4339C32.8345 25.4546 32.8543 25.4715 32.8769 25.4838L32.8825 25.4856C32.9032 25.496 32.9267 25.5016 32.9512 25.5016C32.9954 25.5016 33.0349 25.4838 33.0641 25.4546C33.0942 25.4254 33.112 25.385 33.112 25.3408V23.0729C33.112 23.0324 33.0791 22.9995 33.0387 22.9995C33.0245 22.9995 33.0114 23.0033 33.001 23.0099C32.7273 23.1415 32.4705 23.2704 32.2128 23.4002C32.019 23.4971 31.8243 23.5949 31.6465 23.6824Z" fill="#FFAB00"/>
<path fill-rule="evenodd" clip-rule="evenodd" d="M53.7847 31.7871L10.1368 32.5961C10.0389 32.597 9.49996 33.389 9.48585 34.357C9.47174 35.3249 9.98815 36.1122 10.085 36.115L53.6802 37.2654C54.1327 37.2767 54.9765 35.7115 54.9906 34.7436C55.0216 32.6017 53.9305 31.8351 53.7847 31.7871Z" fill="#FFAB00"/>
<path d="M12.0645 33.6128H12.4059V35.3587H12.0645V34.6353H11.4154V35.3587H11.0712V33.6128H11.4154V34.3061H12.0645V33.6128ZM14.2007 35.131C14.0239 35.306 13.8094 35.3944 13.5564 35.3944C13.3033 35.3944 13.0898 35.306 12.9139 35.131C12.7389 34.9551 12.6505 34.7407 12.6505 34.4857C12.6505 34.2318 12.7389 34.0164 12.9139 33.8405C13.0898 33.6655 13.3033 33.578 13.5564 33.578C13.8094 33.578 14.0239 33.6655 14.2007 33.8405C14.3766 34.0164 14.465 34.2318 14.465 34.4857C14.465 34.7407 14.3766 34.9551 14.2007 35.131ZM13.1547 34.8959C13.2629 35.004 13.3964 35.0567 13.5564 35.0567C13.7163 35.0567 13.8498 35.004 13.958 34.8959C14.0662 34.7886 14.1207 34.6522 14.1207 34.4857C14.1207 34.3192 14.0662 34.1819 13.958 34.0737C13.8498 33.9656 13.7163 33.9119 13.5564 33.9119C13.3964 33.9119 13.2629 33.9656 13.1547 34.0737C13.0465 34.1819 12.9929 34.3192 12.9929 34.4857C12.9929 34.6522 13.0465 34.7886 13.1547 34.8959ZM15.7622 34.4538C15.9155 34.5412 15.9917 34.6748 15.9917 34.8526C15.9917 35.0003 15.939 35.1216 15.8346 35.2166C15.7302 35.3116 15.6013 35.3587 15.448 35.3587H14.7068V33.6128H15.3953C15.5449 33.6128 15.6709 33.6589 15.7735 33.7511C15.876 33.8433 15.9268 33.9609 15.9268 34.1038C15.9268 34.2487 15.8722 34.3653 15.7622 34.4538ZM15.3953 33.9345H15.051V34.3183H15.3953C15.4489 34.3183 15.4931 34.3004 15.5289 34.2637C15.5646 34.2271 15.5825 34.181 15.5825 34.1264C15.5825 34.0719 15.5656 34.0258 15.5298 33.9891C15.495 33.9524 15.4508 33.9345 15.3953 33.9345ZM15.448 35.037C15.5063 35.037 15.5543 35.0181 15.5929 34.9786C15.6305 34.9391 15.6502 34.8902 15.6502 34.83C15.6502 34.7717 15.6305 34.7237 15.5929 34.6842C15.5543 34.6447 15.5063 34.6259 15.448 34.6259H15.051V35.037H15.448ZM16.2165 35.3587V33.6128H16.5608V34.1866H16.8674C17.0358 34.1866 17.1769 34.2431 17.2917 34.3559C17.4064 34.4688 17.4638 34.608 17.4638 34.7726C17.4638 34.9373 17.4064 35.0765 17.2917 35.1893C17.1769 35.3022 17.0358 35.3587 16.8674 35.3587H16.2165ZM17.6237 35.3587V33.6128H17.9652V35.3587H17.6237ZM16.5608 35.037H16.8674C16.9408 35.037 17.0019 35.0125 17.0499 34.9626C17.0979 34.9128 17.1223 34.8498 17.1223 34.7726C17.1223 34.6964 17.0979 34.6334 17.0499 34.5836C17.0019 34.5337 16.9408 34.5083 16.8674 34.5083H16.5608V35.037ZM18.634 35.0294H19.3705V35.3587H18.2897V33.6128H19.3583V33.942H18.634V34.3136H19.2952V34.6381H18.634V35.0294ZM20.8878 33.6128C21.0552 33.6128 21.1972 33.6693 21.312 33.7821C21.4267 33.895 21.4841 34.0342 21.4841 34.1988C21.4841 34.3635 21.4267 34.5027 21.312 34.6155C21.1972 34.7284 21.0552 34.7849 20.8878 34.7849H20.5802V35.3587H20.2359V33.6128H20.8878ZM20.8878 34.4632C20.9602 34.4632 21.0213 34.4378 21.0693 34.387C21.1173 34.3362 21.1417 34.2741 21.1417 34.1988C21.1417 34.1227 21.1173 34.0596 21.0693 34.0088C21.0213 33.959 20.9602 33.9345 20.8878 33.9345H20.5802V34.4632H20.8878ZM22.0523 35.0294H22.7888V35.3587H21.708V33.6128H22.7766V33.942H22.0523V34.3136H22.7135V34.6381H22.0523V35.0294ZM24.7152 33.6128H25.0595V35.3587H23.0305V33.6128H23.3748V35.0294H23.8743V33.6128H24.2158V35.0294H24.7152V33.6128ZM25.7283 35.0294H26.4639V35.3587H25.384V33.6128H26.4517V33.942H25.7283V34.3136H26.3896V34.6381H25.7283V35.0294ZM27.699 33.6128H28.0414V35.3587H27.699V34.6353H27.0509V35.3587H26.7057V33.6128H27.0509V34.3061H27.699V33.6128ZM29.3761 35.3587V34.2938L28.6274 35.3587H28.3659V33.6128H28.7102V34.6805L29.458 33.6128H29.7204V35.3587H29.3761ZM31.2772 33.6128V35.3587H30.9329V34.7529H30.7363L30.3347 35.3587H29.9471L30.3742 34.7153C30.2622 34.6758 30.1719 34.6071 30.1023 34.5111C30.0327 34.4143 29.997 34.308 29.997 34.1913C29.997 34.0314 30.0544 33.895 30.1672 33.7821C30.2801 33.6693 30.4174 33.6128 30.5783 33.6128H31.2772ZM30.5783 34.4509H30.9329V33.9345H30.5783C30.5143 33.9345 30.4579 33.959 30.4118 34.0088C30.3648 34.0596 30.3422 34.1198 30.3422 34.1913C30.3422 34.2628 30.3648 34.3239 30.4118 34.3747C30.4579 34.4255 30.5143 34.4509 30.5783 34.4509ZM33.2808 34.4538C33.4341 34.5412 33.5103 34.6748 33.5103 34.8526C33.5103 35.0003 33.4586 35.1216 33.3532 35.2166C33.2488 35.3116 33.1199 35.3587 32.9666 35.3587H32.2254V33.6128H32.9139C33.0635 33.6128 33.1895 33.6589 33.2921 33.7511C33.3946 33.8433 33.4454 33.9609 33.4454 34.1038C33.4454 34.2487 33.3908 34.3653 33.2808 34.4538ZM32.9139 33.9345H32.5696V34.3183H32.9139C32.9675 34.3183 33.0117 34.3004 33.0475 34.2637C33.0832 34.2271 33.1011 34.181 33.1011 34.1264C33.1011 34.0719 33.0842 34.0258 33.0494 33.9891C33.0136 33.9524 32.9694 33.9345 32.9139 33.9345ZM32.9666 35.037C33.0249 35.037 33.0729 35.0181 33.1115 34.9786C33.15 34.9391 33.1688 34.8902 33.1688 34.83C33.1688 34.7717 33.15 34.7237 33.1115 34.6842C33.0729 34.6447 33.0249 34.6259 32.9666 34.6259H32.5696V35.037H32.9666ZM35.1875 35.3944C34.9241 35.3944 34.7077 35.3069 34.5356 35.132C34.3644 34.957 34.2788 34.7416 34.2788 34.4857C34.2788 34.228 34.3644 34.0126 34.5356 33.8386C34.7077 33.6646 34.9241 33.578 35.1875 33.578C35.3455 33.578 35.4913 33.6147 35.6249 33.689C35.7594 33.7624 35.8638 33.863 35.9381 33.9891L35.6418 34.1612C35.5985 34.0831 35.5364 34.022 35.4565 33.9778C35.3765 33.9336 35.2872 33.9119 35.1875 33.9119C35.0172 33.9119 34.8808 33.9656 34.7764 34.0719C34.6729 34.1781 34.6212 34.3164 34.6212 34.4857C34.6212 34.6541 34.6729 34.7915 34.7764 34.8977C34.8808 35.004 35.0172 35.0567 35.1875 35.0567C35.2872 35.0567 35.3775 35.0351 35.4584 34.9909C35.5383 34.9467 35.5995 34.8865 35.6418 34.8103L35.9381 34.9824C35.8638 35.1084 35.7594 35.2091 35.6267 35.2834C35.4932 35.3568 35.3474 35.3944 35.1875 35.3944ZM37.7347 33.9994C37.8796 34.1236 37.952 34.2863 37.952 34.4857C37.952 34.6852 37.8796 34.8479 37.7347 34.9721C37.5899 35.0972 37.3961 35.1715 37.1534 35.194V35.3963H36.8167V35.194C36.5721 35.1696 36.3783 35.0953 36.2353 34.9711C36.0924 34.8469 36.0209 34.6852 36.0209 34.4857C36.0209 34.2863 36.0924 34.1245 36.2353 34.0004C36.3783 33.8762 36.5721 33.8019 36.8167 33.7774V33.5752H37.1534V33.7774C37.3961 33.8 37.5899 33.8743 37.7347 33.9994ZM37.1534 34.8799C37.4563 34.8451 37.6077 34.7134 37.6077 34.4857C37.6077 34.2562 37.4563 34.1236 37.1534 34.0888V34.8799ZM36.3623 34.4857C36.3623 34.7134 36.5138 34.8441 36.8167 34.878V34.0916C36.5138 34.1245 36.3623 34.2562 36.3623 34.4857ZM38.5136 35.0294H39.2492V35.3587H38.1693V33.6128H39.2369V33.942H38.5136V34.3136H39.1749V34.6381H38.5136V35.0294ZM40.1428 33.6128C40.3112 33.6128 40.4523 33.6693 40.567 33.7821C40.6818 33.895 40.7392 34.0342 40.7392 34.1988C40.7392 34.3635 40.6818 34.5027 40.567 34.6155C40.4523 34.7284 40.3112 34.7849 40.1428 34.7849H39.8361V35.3587H39.4919V33.6128H40.1428ZM40.1428 34.4632C40.2162 34.4632 40.2764 34.4378 40.3253 34.387C40.3732 34.3362 40.3968 34.2741 40.3968 34.1988C40.3968 34.1227 40.3732 34.0596 40.3253 34.0088C40.2764 33.959 40.2162 33.9345 40.1428 33.9345H39.8361V34.4632H40.1428ZM41.3082 35.0294H42.0438V35.3587H40.964V33.6128H42.0316V33.942H41.3082V34.3136H41.9695V34.6381H41.3082V35.0294ZM44.0653 33.6128V33.942H43.5931V35.3587H43.2497V33.942H42.7804V33.6128H44.0653ZM45.2232 33.6128H45.5675L45.0436 34.878C44.9034 35.2166 44.6739 35.3775 44.355 35.3587V35.037C44.4481 35.0454 44.5234 35.0323 44.5808 34.9984C44.6381 34.9645 44.6852 34.909 44.7237 34.8328L44.1528 33.6128H44.497L44.8789 34.4556L45.2232 33.6128ZM46.4056 33.6128C46.574 33.6128 46.7151 33.6693 46.8298 33.7821C46.9446 33.895 47.002 34.0342 47.002 34.1988C47.002 34.3635 46.9446 34.5027 46.8298 34.6155C46.7151 34.7284 46.574 34.7849 46.4056 34.7849H46.099V35.3587H45.7547V33.6128H46.4056ZM46.4056 34.4632C46.479 34.4632 46.5392 34.4378 46.5881 34.387C46.6361 34.3362 46.6605 34.2741 46.6605 34.1988C46.6605 34.1227 46.6361 34.0596 46.5881 34.0088C46.5392 33.959 46.479 33.9345 46.4056 33.9345H46.099V34.4632H46.4056ZM48.237 35.3587V34.2938L47.4883 35.3587H47.2268V33.6128H47.5711V34.6805L48.3198 33.6128H48.5813V35.3587H48.237ZM49.8117 34.4556C49.9782 34.5441 50.061 34.6823 50.061 34.8705C50.061 35.0266 50.0017 35.1527 49.8841 35.2495C49.7656 35.3455 49.6132 35.3944 49.427 35.3944C49.1034 35.3944 48.8861 35.2571 48.776 34.9824L49.0733 34.815C49.126 34.9852 49.2445 35.0699 49.427 35.0699C49.522 35.0699 49.5944 35.0501 49.6443 35.0097C49.6941 34.9702 49.7195 34.9156 49.7195 34.8479C49.7195 34.7792 49.695 34.7256 49.6452 34.6852C49.5963 34.6457 49.5267 34.6259 49.4345 34.6259H49.2181V34.3183H49.3828C49.4693 34.3183 49.5361 34.2995 49.585 34.2628C49.633 34.2252 49.6565 34.1734 49.6565 34.1095C49.6565 34.0446 49.6358 33.9928 49.5944 33.9552C49.553 33.9185 49.4909 33.8997 49.41 33.8997C49.2605 33.8997 49.1551 33.9721 49.0959 34.1189L48.8033 33.9496C48.9218 33.7012 49.1241 33.578 49.41 33.578C49.5831 33.578 49.7242 33.6241 49.8343 33.7172C49.9434 33.8104 49.9989 33.9336 49.9989 34.0869C49.9989 34.2431 49.9359 34.3663 49.8117 34.4556ZM51.9949 33.6128V35.3587H51.6525V34.2261L51.1615 35.037H51.122L50.6301 34.2289V35.3587H50.2858V33.6128H50.6404L51.1418 34.4387L51.6403 33.6128H51.9949ZM53.4416 35.3587L53.3372 35.0445H52.6412L52.5367 35.3587H52.1642L52.7757 33.6128H53.2027L53.816 35.3587H53.4416ZM52.7512 34.7228H53.23L52.9901 34.0088L52.7512 34.7228Z" fill="#FEFEFE"/>
<path d="M6.04496 33.0455C6.04119 33.0417 6.03743 33.037 6.03367 33.0323L6.03179 33.0276C6.02897 33.0239 6.02614 33.0201 6.02426 33.0154C6.00733 32.9834 6.00545 32.9477 6.0158 32.9157C6.02614 32.8837 6.04778 32.8555 6.0807 32.8386L7.5086 32.1321C7.52647 32.1218 7.54623 32.1161 7.56786 32.1152L7.57257 32.1143C7.59138 32.1143 7.61113 32.118 7.62901 32.1255C7.66193 32.1406 7.68544 32.1679 7.69767 32.1999C7.7099 32.2309 7.7099 32.2666 7.69485 32.3005L6.93387 33.9927C6.91976 34.0228 6.88495 34.036 6.85485 34.0228C6.84451 34.0181 6.83604 34.0106 6.82946 34.0021C6.66955 33.8121 6.52186 33.6296 6.3723 33.4462C6.26131 33.3089 6.14843 33.1706 6.04496 33.0455Z" fill="#5FCE8C"/>
</g>
<defs>
<clipPath id="clip0_1494_235">
<rect width="49.0001" height="14.2658" fill="white" transform="translate(5.99994 23)"/>
</clipPath>
</defs>
</svg>
