<svg width="1440" height="750" viewBox="0 0 1440 750" fill="none" xmlns="http://www.w3.org/2000/svg">
<mask id="mask0_1359_5735" style="mask-type:alpha" maskUnits="userSpaceOnUse" x="0" y="0" width="1440" height="750">
<rect width="1440" height="750" fill="#E5EFFF"/>
</mask>
<g mask="url(#mask0_1359_5735)">
<g clip-path="url(#clip0_1359_5735)">
<path d="M1366.76 1214.76C1723.96 857.562 1723.96 278.431 1366.76 -78.7664C1009.56 -435.964 430.432 -435.964 73.2352 -78.7664C-283.962 278.431 -283.962 857.562 73.2352 1214.76C430.432 1571.96 1009.56 1571.96 1366.76 1214.76Z" stroke="white" stroke-opacity="0.3" stroke-width="1.99" stroke-miterlimit="10"/>
<path d="M851.136 -139.887C849.074 -151.423 844.539 -162.375 837.844 -171.992C831.148 -181.61 822.451 -189.664 812.348 -195.601C776.996 -217.4 687.429 -235.263 679.121 -187.981C670.814 -140.699 634.837 -170.93 634.837 -170.93C641.599 -174.649 647.407 -179.883 651.806 -186.222C656.206 -192.562 659.078 -199.834 660.196 -207.469C663.944 -233.639 593.739 -245.444 592.053 -222.272C590.366 -199.099 607.23 -188.294 588.305 -184.359C569.38 -180.424 551.766 -174.552 528.094 -172.929C504.422 -171.305 501.923 -200.099 501.923 -200.099C516.601 -198.782 531.395 -200.029 545.645 -203.784C571.691 -210.03 586.931 -234.701 558.137 -243.82C529.343 -252.939 559.948 -221.835 496.052 -231.328C496.052 -231.328 488.12 -234.139 481.124 -255.188C474.129 -276.237 415.354 -286.418 394.243 -267.68C373.131 -248.942 384.374 -233.952 401.925 -228.143C419.476 -222.334 394.43 -210.779 422.037 -205.158C449.644 -199.536 460.95 -196.226 453.267 -188.981C445.584 -181.735 307.424 -221.647 310.234 -253.002C310.234 -253.002 32.9755 -127.271 -77.7656 131.063C-76.5487 135.959 -73.9649 140.409 -70.3155 143.892C-66.666 147.376 -62.1014 149.75 -57.1539 150.738C-39.3529 154.985 -27.9227 156.609 -34.481 190.837C-41.0392 225.065 -51.4076 297.019 -5.81198 305.326C39.7836 313.633 16.9233 275.158 6.18027 256.857C-4.5628 238.556 -11.5583 182.405 14.9246 196.209C41.4075 210.012 2.43266 212.823 41.9697 287.087C81.5067 361.352 20.4211 355.793 67.8905 409.571C115.36 463.349 141.843 406.823 157.52 425.81C173.198 444.798 158.207 455.979 189.312 460.476C220.417 464.973 207.363 451.357 221.416 481.775C235.47 512.192 245.214 572.154 336.967 550.48C336.967 550.48 352.145 584.458 336.967 607.381C321.789 630.304 277.006 628.867 271.822 676.649C266.637 724.431 277.38 742.669 299.116 777.521C320.852 812.374 304.488 833.735 328.847 850.412C353.207 867.089 410.045 877.145 398.99 920.679C387.934 964.214 367.76 1044.97 378.253 1064.9C388.746 1084.82 375.442 1084.51 372.007 1109.12C368.572 1133.73 403.237 1158.78 400.551 1190.32C397.865 1221.86 366.51 1252.34 386.872 1285.38C407.234 1318.42 412.356 1305.74 421.475 1335.35C430.594 1364.96 437.152 1377.76 453.267 1381.76C469.382 1385.75 495.615 1389.5 505.234 1404.24C514.852 1418.98 538.712 1392.37 522.597 1376.64C506.483 1360.9 485.621 1366.33 491.367 1335.41C497.114 1304.49 515.539 1295.44 490.993 1280.2C466.446 1264.96 470.631 1247.16 480.687 1246.91C490.743 1246.66 513.978 1236.66 494.553 1220.49C475.128 1204.31 469.007 1200.06 483.997 1200.56C498.988 1201.06 545.333 1216.05 586.119 1176.76C613.631 1149.7 639.533 1121.04 663.694 1090.94C670.95 1073.9 673.62 1055.25 671.439 1036.85C667.004 1009.43 688.116 1002.44 724.405 1006C760.694 1009.56 756.447 992.195 756.447 992.195C756.447 992.195 788.488 1025.24 799.419 891.323C799.419 891.323 797.545 869.337 838.768 850.162C879.992 830.987 845.015 782.518 821.717 782.518C821.717 782.518 812.598 752.787 793.173 748.29C773.748 743.793 729.527 749.165 711.476 734.861C698.002 724.762 683.591 715.977 668.441 708.628C668.441 708.628 690.552 613.127 596.862 613.065C596.862 613.065 583.371 544.359 536.276 545.796C489.181 547.232 483.622 551.604 476.877 540.612C470.131 529.619 461.2 486.521 428.221 495.141C395.242 503.76 387.434 546.17 355.33 536.552C323.226 526.933 282.752 529.431 292.433 497.389C302.115 465.348 307.736 427.809 257.768 427.122C257.768 427.122 245.276 421.938 266.013 404.886C286.749 387.835 277.256 361.165 265.326 362.976C253.396 364.787 218.044 389.646 201.18 390.521C184.315 391.395 130.475 382.089 160.019 316.069C189.562 250.049 330.971 243.615 341.152 276.906C351.333 310.198 339.465 323.501 372.382 326.874C405.298 330.247 395.367 271.597 395.367 271.597L485.309 216.008C491.578 211.009 496.963 204.992 501.236 198.207C507.857 187.464 617.411 134.623 641.083 97.8968C664.756 61.1705 672.751 40.5588 703.856 56.7359C734.961 72.913 747.89 76.4108 755.884 55.8615C763.879 35.3123 804.79 87.9657 821.405 65.2928C838.019 42.62 830.336 14.7006 795.921 9.76624C761.506 4.83191 806.477 -28.8339 792.673 -37.5158C778.87 -46.1977 752.886 -16.4668 739.52 -28.4591C726.154 -40.4514 754.323 -84.6729 709.414 -86.2969C664.506 -87.9208 658.822 -83.5488 644.956 -33.7059C631.09 16.137 611.477 -33.7058 576.25 3.27036C541.023 40.2465 549.08 17.7611 545.582 -4.47458C542.085 -26.7103 517.725 -43.6369 492.929 -45.5107C468.132 -47.3845 478.001 -92.7928 514.54 -102.599C551.079 -112.405 595.301 -129.457 595.301 -129.457C595.301 -129.457 599.235 -98.7888 625.469 -106.721C651.702 -114.654 660.633 -141.824 660.633 -141.824L686.867 -138.076C686.867 -138.076 704.667 -157.251 709.789 -158.188C714.911 -159.125 768.814 -149.693 768.814 -149.693C768.814 -149.693 799.231 -152.004 770.438 -137.764C741.644 -123.523 724.093 -141.074 730.401 -115.091C736.709 -89.1077 738.771 -103.848 758.008 -86.047C777.246 -68.246 807.976 -72.181 814.659 -96.2905C814.659 -96.2905 854.196 -80.5507 862.878 -106.097C871.56 -131.643 851.136 -139.887 851.136 -139.887Z" fill="white" fill-opacity="0.3"/>
<path d="M640.714 135.997C652.207 149.301 683.374 142.243 654.08 112.825C654.08 112.825 629.284 122.631 640.714 135.997Z" fill="white" fill-opacity="0.3"/>
<path d="M707.043 93.6495C715.475 81.4699 690.678 67.9162 690.678 67.9162C688.729 67.374 686.681 67.2837 684.691 67.6523C682.701 68.021 680.822 68.8386 679.195 70.0432C677.569 71.2478 676.239 72.8075 675.307 74.6036C674.374 76.3997 673.864 78.3849 673.814 80.4081C671.441 96.7725 698.611 105.829 707.043 93.6495Z" fill="white" fill-opacity="0.3"/>
<path d="M715.91 136.747C715.91 136.747 764.379 125.316 731.337 98.8335C731.337 98.8335 719.158 113.824 705.604 115.198C692.05 116.572 674.374 112.325 684.055 137.184C693.736 162.043 715.91 136.747 715.91 136.747Z" fill="white" fill-opacity="0.3"/>
<path d="M783.37 74.5367C783.37 74.5367 740.522 70.0396 759.198 102.831C768.002 108.022 776.104 114.319 783.308 121.569C795.05 133.311 824.531 137.559 827.029 119.508C829.528 101.457 822.72 80.1581 783.37 74.5367Z" fill="white" fill-opacity="0.3"/>
<path d="M1628.19 445.11C1628.19 445.11 1545.06 453.23 1536.88 428.684C1528.69 404.137 1501.59 395.143 1446.81 404.012C1392.03 412.881 1413.52 390.833 1394.59 383.15C1381.96 378.499 1368.37 377.102 1355.06 379.091C1355.06 379.091 1411.27 280.154 1217.65 320.941C1217.65 320.941 1140.88 296.519 1115.52 344.738C1090.16 392.957 1100.97 399.515 1029.58 419.315C958.188 439.114 1012.22 482.087 1012.22 482.087C1012.22 482.087 1035.14 497.077 1007.72 513.316C980.298 529.556 968.556 576.276 981.173 604.82C993.79 633.364 1031.45 697.323 1058.12 709.565C1084.79 721.807 1162.06 731.176 1178.23 711.751C1194.41 692.326 1208.21 689.328 1228.76 709.003C1249.31 728.678 1317.96 716.81 1309.96 735.735C1301.97 754.661 1266.24 796.322 1293.97 847.164C1321.7 898.006 1341.19 937.543 1308.84 964.713C1276.48 991.883 1278.11 1027.17 1307.15 1058.09C1307.15 1058.09 1284.35 1123.42 1305.4 1151.78C1326.45 1180.14 1322.7 1217.8 1314.96 1236.79C1307.21 1255.78 1315.39 1245.22 1315.39 1245.22C1315.39 1245.22 1309.52 1274.45 1325.26 1258.34C1341 1242.22 1686.03 938.417 1628.19 445.11Z" fill="white" fill-opacity="0.3"/>
<path d="M1237.58 300.329C1282.55 290.085 1305.28 236.495 1305.28 236.495C1305.28 236.495 1350.44 259.73 1368.06 230.249C1368.06 230.249 1386.79 284.839 1414.34 292.147C1414.34 292.147 1388.6 296.769 1393.23 322.502C1397.85 348.236 1473.3 335.681 1456.94 286.525C1440.57 237.369 1364.31 244.802 1409.97 217.82C1455.62 190.837 1476.42 267.787 1476.86 287.649C1477.3 307.512 1460.43 355.543 1499.78 337.617C1539.13 319.691 1530.7 261.791 1543.13 291.959C1555.56 322.127 1532.26 355.668 1568.55 359.166C1584.01 360.115 1599.36 362.329 1614.46 365.787C1614.46 365.787 1552 124.38 1418.34 -26.9602C1418.34 -26.9602 1417.4 -8.72201 1383.67 -6.91068C1349.94 -5.09935 1329.08 35.4371 1352.44 60.4834C1375.8 85.5298 1410.96 72.2883 1410.03 90.5266C1409.09 108.765 1402.72 117.884 1376.05 105.704C1349.38 93.5246 1332.33 96.0855 1325.46 120.195C1318.59 144.304 1307.66 162.793 1288.92 153.424C1270.18 144.055 1226.46 159.67 1247.2 199.269C1247.2 199.269 1257.25 234.122 1233.39 225.69C1209.53 217.257 1147.51 194.959 1144.14 252.984C1140.76 311.009 1192.61 310.635 1237.58 300.329Z" fill="white" fill-opacity="0.3"/>
<path d="M1235.63 80.9702C1251.56 86.5916 1250.87 103.268 1240.07 108.39C1229.26 113.512 1208.21 132.25 1229.08 138.558C1249.94 144.867 1300.22 155.485 1299.53 125.317C1298.84 95.1486 1275.86 91.7758 1275.86 91.7758C1275.86 91.7758 1252.94 65.1055 1269.61 42.3701C1269.61 42.3701 1271.05 20.8214 1246 20.5715C1220.96 20.3217 1221.64 62.2323 1216.46 63.1691C1207.02 63.4805 1197.58 63.2512 1188.17 62.4822C1188.17 62.4822 1150.19 82.0946 1180.86 113.262C1211.53 144.429 1219.64 75.3488 1235.63 80.9702Z" fill="white" fill-opacity="0.3"/>
</g>
</g>
<defs>
<clipPath id="clip0_1359_5735">
<rect width="1842" height="1842" fill="white" transform="translate(-201 -353)"/>
</clipPath>
</defs>
</svg>
