<svg width="1440" height="355" viewBox="0 0 1440 355" fill="none" xmlns="http://www.w3.org/2000/svg">
<mask id="mask0_1368_17150" style="mask-type:alpha" maskUnits="userSpaceOnUse" x="0" y="0" width="1440" height="355">
<rect width="1440" height="355" fill="#E5EFFF"/>
</mask>
<g mask="url(#mask0_1368_17150)">
<path d="M525.576 -381.536C568.472 -336.497 622.573 -317.278 674.942 -298.42C727.311 -279.562 781.311 -258.812 822.936 -211.582C861.776 -167.492 885.936 -104.759 913.993 -47.4109C942.051 9.93744 978.039 66.0067 1026.98 83.3483C1072.71 99.5485 1121.13 78.6911 1163.61 50.5263C1206.09 22.3615 1246.37 -13.5855 1291.98 -30.3987C1339.94 -48.0849 1390.01 -43.4202 1440 -40.7546V-172.87C1433.94 -169.48 1427.67 -166.862 1421.26 -165.049C1387.93 -155.696 1353.05 -162.069 1319.7 -152.832C1278.72 -141.488 1243.42 -107.701 1206.91 -79.9341C1170.4 -52.1676 1128.16 -29.3799 1087.53 -42.7921C1044.97 -56.84 1014.4 -107.134 991.534 -157.964C968.663 -208.794 949.256 -264.579 915.748 -302.962C885.339 -337.791 846.279 -354.75 808.108 -369.755C769.937 -384.76 730.652 -399.176 698.122 -430.267C679.633 -447.93 663.602 -472.395 654.079 -500.024H468.375C475.738 -454.043 497.732 -410.773 525.576 -381.536Z" fill="white" fill-opacity="0.3"/>
<path d="M607.5 483.24C597.345 430.506 573.505 384.566 540.394 353.921C484.099 302.256 411.317 302.992 343.434 303.773C275.552 304.554 202.028 300.954 148.894 243.414C109.896 201.179 88.515 136.691 63.7256 77.8264C47.025 38.2333 26.4375 -1.50533 0 -28.2914V372.58C36.6638 429.775 87.9413 469.905 143.348 479.487C197.679 488.885 254.723 471.827 306.506 496.239C343.958 513.856 374.889 554.047 391.326 603H605.734C614.154 564.257 614.897 522.381 607.5 483.24Z" fill="white" fill-opacity="0.3"/>
<path d="M1291.98 -30.3979C1246.38 -13.6077 1206.09 22.3929 1163.61 50.5271C1121.13 78.6612 1072.71 99.5493 1026.99 83.349C978.048 66.0074 942.048 9.90759 913.996 -47.4101C885.944 -104.728 861.779 -167.492 822.939 -211.581C781.314 -258.811 727.314 -279.569 674.956 -298.419C622.598 -317.27 568.486 -336.496 525.59 -381.535C497.735 -410.772 475.741 -454.042 468.378 -500H381.117C401.131 -419.313 446.98 -350.168 505.199 -318.327C569.217 -283.314 643.574 -291.074 704.858 -247.896C824.57 -163.524 849.899 79.7107 973.734 152.187C1044.24 193.458 1125.88 165.208 1196.92 125.638C1267.95 86.0682 1338.19 34.8017 1414.84 30.2824C1423.23 29.7846 1431.61 29.8688 1440 30.2824V-40.7538C1390.02 -43.3887 1339.94 -48.0765 1291.98 -30.3979Z" fill="white" fill-opacity="0.2"/>
<path d="M708.486 411.859C675.956 342.156 623.323 290.292 564.486 270.062C504.861 249.557 442.226 260.871 380.773 264.41C319.32 267.948 253.648 261.882 203.743 212.975C166.185 176.208 142.088 119.449 122.321 62.4916C102.555 5.53392 85.6912 -54.1123 57.8925 -104.49C42.3675 -132.602 22.5394 -157.81 0 -174.738V-28.2914C26.4375 -1.48236 47.025 38.2333 63.7031 77.8264C88.4925 136.691 109.873 201.148 148.871 243.414C202.005 300.954 275.529 304.554 343.412 303.773C411.294 302.992 484.076 302.241 540.371 353.921C573.491 384.561 597.339 430.501 607.5 483.24C614.919 522.381 614.177 564.257 605.756 603H745.594C747.782 536.161 734.85 468.373 708.486 411.859Z" fill="white" fill-opacity="0.2"/>
<path d="M254.576 80.1779C254.447 93.8735 260.826 108.059 270.574 111.422C280.772 114.938 291.032 106.52 299.121 97.3664C306.124 89.4539 312.711 80.5149 316.879 69.4849C324.945 48.1679 318.493 5.33479 295.453 17.7512C278.027 27.142 254.841 52.6412 254.576 80.1779Z" fill="white" fill-opacity="0.3"/>
<path d="M843.411 326.568C844.333 331.271 848.31 333.416 851.848 334.228C856.911 335.438 862.344 335.331 866.991 332.298C876.098 326.361 879.073 303.957 866.327 301.659C859.29 300.349 841.211 315.347 843.411 326.568Z" fill="white" fill-opacity="0.2"/>
<path d="M891.723 354.396C892.556 358.77 896.223 360.799 899.497 361.611C904.205 362.791 909.234 362.745 913.559 359.98C922.047 354.557 924.933 333.814 913.115 331.493C906.607 330.222 889.743 343.948 891.723 354.396Z" fill="white" fill-opacity="0.2"/>
<path d="M823.698 269.595C824.632 272.207 827.14 272.851 829.272 272.797C832.349 272.713 835.516 271.809 837.991 269.312C842.829 264.417 842.699 250.844 835.032 251.434C830.808 251.763 821.47 263.36 823.698 269.595Z" fill="white" fill-opacity="0.2"/>
<path d="M1266.22 254.168C1267.76 260.932 1273.64 263.728 1278.79 264.67C1286.22 266.018 1294.1 265.436 1300.73 260.664C1313.71 251.296 1317.08 218.535 1298.45 216.123C1288.17 214.797 1262.55 238.029 1266.22 254.168Z" fill="white" fill-opacity="0.2"/>
<path d="M1214.6 219.087C1215.72 224.502 1220.4 226.854 1224.49 227.704C1230.39 228.937 1236.66 228.639 1241.99 224.97C1252.43 217.785 1255.49 191.78 1240.67 189.474C1232.51 188.203 1211.85 206.165 1214.6 219.087Z" fill="white" fill-opacity="0.2"/>
<path d="M1324.54 143.256C1325.72 147.775 1329.76 149.445 1333.27 149.881C1338.34 150.509 1343.66 149.812 1348.05 146.32C1356.65 139.472 1358.24 117.144 1345.57 116.232C1338.59 115.727 1321.71 132.463 1324.54 143.256Z" fill="white" fill-opacity="0.2"/>
<path d="M1067.3 340.111C1069.11 344.232 1073.31 344.783 1076.82 344.27C1081.89 343.504 1087 341.413 1090.8 336.809C1098.25 327.786 1096.58 305.458 1084.05 307.963C1077.1 309.341 1062.96 330.314 1067.3 340.111Z" fill="white" fill-opacity="0.2"/>
</g>
</svg>
