<svg width="40" height="40" viewBox="0 0 40 40" fill="none" xmlns="http://www.w3.org/2000/svg">
<g clip-path="url(#clip0_1624_563)">
<path d="M20.5041 0.00833706C12.3809 -0.265418 5.70996 6.23797 5.70996 14.2993C5.70996 23.448 14.4896 30.0876 19.4106 39.6361C19.6604 40.1209 20.3583 40.1215 20.609 39.6368C25.0608 31.045 32.6694 25.2838 34.0794 17.0066C35.5394 8.44141 29.1877 0.301096 20.5041 0.00833706ZM20.0091 21.7893C15.8726 21.7893 12.5191 18.4358 12.5191 14.2993C12.5191 10.1628 15.8726 6.80931 20.0091 6.80931C24.1457 6.80931 27.4992 10.1628 27.4992 14.2993C27.4992 18.4358 24.1457 21.7893 20.0091 21.7893Z" fill="#0274CA"/>
</g>
<defs>
<clipPath id="clip0_1624_563">
<rect width="40" height="40" fill="white"/>
</clipPath>
</defs>
</svg>
