<svg width="1440" height="156" viewBox="0 0 1440 156" fill="none" xmlns="http://www.w3.org/2000/svg">
<mask id="mask0_1359_5544" style="mask-type:alpha" maskUnits="userSpaceOnUse" x="0" y="0" width="1440" height="156">
<rect width="1440" height="156" fill="#E5EFFF"/>
</mask>
<g mask="url(#mask0_1359_5544)">
<path d="M237.341 126.171C262.688 94.5132 276.947 46.1574 275.996 -0.00012207H0V132.031C24.39 149.648 49.8488 163.995 76.7475 172.451C132.221 189.9 195.39 178.586 237.341 126.171Z" fill="white" fill-opacity="0.2"/>
<path d="M525.576 118.464C568.472 163.503 622.573 182.722 674.942 201.58C727.311 220.438 781.311 241.188 822.936 288.418C861.776 332.508 885.936 395.241 913.993 452.589C942.051 509.937 978.039 566.007 1026.98 583.348C1072.71 599.549 1121.13 578.691 1163.61 550.526C1206.09 522.362 1246.37 486.414 1291.98 469.601C1339.94 451.915 1390.01 456.58 1440 459.245V327.13C1433.94 330.52 1427.67 333.138 1421.26 334.951C1387.93 344.304 1353.05 337.931 1319.7 347.168C1278.72 358.512 1243.42 392.299 1206.91 420.066C1170.4 447.832 1128.16 470.62 1087.53 457.208C1044.97 443.16 1014.4 392.866 991.534 342.036C968.662 291.206 949.256 235.421 915.748 197.038C885.339 162.209 846.279 145.25 808.108 130.245C769.937 115.24 730.652 100.824 698.123 69.7332C679.633 52.0698 663.602 27.6047 654.079 -0.0239258H468.375C475.738 45.9574 497.732 89.2272 525.576 118.464Z" fill="white" fill-opacity="0.3"/>
<path d="M698.118 69.757C730.647 100.825 769.927 115.233 808.104 130.269C846.28 145.305 885.335 162.233 915.744 197.062C949.257 235.444 968.619 291.223 991.535 342.06C1014.45 392.898 1044.97 443.168 1087.53 457.232C1128.17 470.636 1170.4 447.856 1206.91 420.09C1243.42 392.323 1278.72 358.536 1319.7 347.192C1353.05 337.954 1387.93 344.327 1421.26 334.975C1427.67 333.155 1433.95 330.529 1440 327.131V-0.00012207H654.074C663.597 27.6591 679.629 52.086 698.118 69.757Z" fill="white" fill-opacity="0.2"/>
<path d="M1019.48 91.3804C1055.66 112.483 1098.23 108.699 1134.23 87.022C1161.04 70.883 1184.29 45.7131 1207.2 20.8267L1226.36 -0.00012207H956.469C966.476 40.3973 990.433 74.4294 1019.48 91.3804Z" fill="white" fill-opacity="0.3"/>
<path d="M1327.42 -0.00012207C1340.17 34.3579 1359.84 63.0718 1384.12 82.7938C1401.27 96.5495 1420.27 105.473 1440 109.036V-0.00012207H1327.42Z" fill="white" fill-opacity="0.3"/>
<path d="M1291.98 469.602C1246.38 486.392 1206.09 522.393 1163.61 550.527C1121.13 578.661 1072.71 599.549 1026.99 583.349C978.048 566.007 942.048 509.908 913.996 452.59C885.944 395.272 861.779 332.508 822.938 288.419C781.313 241.189 727.314 220.431 674.956 201.581C622.598 182.73 568.486 163.504 525.59 118.465C497.735 89.228 475.741 45.9582 468.378 -0.00012207H381.117C401.131 80.6874 446.98 149.832 505.199 181.673C569.217 216.686 643.574 208.926 704.858 252.104C824.57 336.476 849.899 579.711 973.734 652.187C1044.24 693.457 1125.88 665.208 1196.92 625.638C1267.95 586.068 1338.19 534.802 1414.84 530.282C1423.23 529.785 1431.61 529.869 1440 530.282V459.246C1390.02 456.611 1339.94 451.923 1291.98 469.602Z" fill="white" fill-opacity="0.2"/>
<path d="M1211.15 155.125C1211.77 157.423 1213.84 158.288 1215.65 158.503C1218.25 158.809 1220.98 158.434 1223.22 156.634C1227.63 153.103 1228.41 141.644 1221.91 141.215C1218.32 140.977 1209.69 149.602 1211.15 155.125Z" fill="white" fill-opacity="0.3"/>
<path d="M1153.22 170.697C1153.92 174.35 1156.99 176.059 1159.72 176.717C1163.65 177.69 1167.84 177.652 1171.45 175.339C1178.53 170.812 1180.93 153.501 1171.07 151.593C1165.63 150.521 1151.57 161.988 1153.22 170.697Z" fill="white" fill-opacity="0.3"/>
<path d="M1255.87 120.732C1256.9 124.838 1260.54 126.393 1263.71 126.86C1268.27 127.496 1273.09 126.937 1277.08 123.842C1284.9 117.768 1286.51 97.6231 1275.06 96.6273C1268.76 96.0529 1253.39 110.943 1255.87 120.732Z" fill="white" fill-opacity="0.3"/>
<path d="M1192.33 98.1133C1193.04 100.81 1195.45 101.805 1197.55 102.066C1200.57 102.441 1203.73 102.02 1206.36 99.9287C1211.5 95.8384 1212.44 82.5105 1204.88 81.9743C1200.71 81.6756 1190.63 91.6715 1192.33 98.1133Z" fill="white" fill-opacity="0.3"/>
<path d="M330.92 159.927C332.045 166.201 337.248 169.211 341.895 170.482C348.594 172.305 355.783 172.397 362.01 168.583C374.221 161.107 378.688 131.579 361.852 127.902C352.576 125.872 328.265 144.96 330.92 159.927Z" fill="white" fill-opacity="0.2"/>
<path d="M653.569 110.859C655.149 116.78 660.448 118.925 665.049 119.469C671.687 120.235 678.662 119.277 684.394 114.658C695.644 105.604 697.612 76.3597 681.019 75.249C671.844 74.6592 649.806 96.7422 653.569 110.859Z" fill="white" fill-opacity="0.3"/>
<path d="M726.108 113.011C727.486 118.442 732.296 120.495 736.492 121.069C742.539 121.897 748.912 121.146 754.188 117.04C764.527 108.982 766.62 82.319 751.477 81.0398C743.135 80.3198 722.812 100.067 726.108 113.011Z" fill="white" fill-opacity="0.3"/>
<path d="M837.677 106.424C838.869 112.299 843.864 114.919 848.286 115.914C854.653 117.355 861.442 117.14 867.236 113.272C878.593 105.689 882.131 77.6159 866.15 74.8584C857.342 73.3417 834.83 92.3991 837.677 106.424Z" fill="white" fill-opacity="0.3"/>
</g>
</svg>
