<svg width="1440" height="1103" viewBox="0 0 1440 1103" fill="none" xmlns="http://www.w3.org/2000/svg">
<rect width="1440" height="1103" fill="#E5EFFF"/>
<mask id="mask0_634_510" style="mask-type:alpha" maskUnits="userSpaceOnUse" x="0" y="0" width="1440" height="1103">
<rect width="1440" height="1103" fill="#E5EFFF"/>
</mask>
<g mask="url(#mask0_634_510)">
<path d="M306.506 996.239C254.756 971.858 197.679 988.885 143.347 979.487C87.9412 969.905 36.6638 929.775 0 872.58V1103H391.326C374.889 1054.05 343.958 1013.88 306.506 996.239Z" fill="white" fill-opacity="0.3"/>
<path d="M237.341 126.171C262.688 94.5132 276.947 46.1574 275.996 -0.00012207H0V132.031C24.39 149.648 49.8488 163.995 76.7475 172.451C132.221 189.9 195.39 178.586 237.341 126.171Z" fill="white" fill-opacity="0.3"/>
<path d="M525.577 118.464C568.474 163.503 622.575 182.722 674.944 201.58C727.312 220.438 781.312 241.188 822.937 288.418C861.778 332.508 885.937 395.241 913.995 452.589C942.052 509.937 978.041 566.007 1026.98 583.348C1072.71 599.549 1121.13 578.691 1163.61 550.526C1206.09 522.362 1246.38 486.414 1291.98 469.601C1339.94 451.915 1390.02 456.58 1440 459.245V327.13C1433.95 330.52 1427.67 333.138 1421.26 334.951C1387.93 344.304 1353.05 337.931 1319.7 347.168C1278.73 358.512 1243.42 392.299 1206.91 420.066C1170.41 447.832 1128.16 470.62 1087.53 457.208C1044.97 443.16 1014.41 392.866 991.536 342.036C968.664 291.206 949.258 235.421 915.75 197.038C885.341 162.209 846.281 145.25 808.11 130.245C769.939 115.24 730.654 100.824 698.124 69.7332C679.635 52.0698 663.604 27.6047 654.081 -0.0239258H468.377C475.74 45.9574 497.734 89.2272 525.577 118.464Z" fill="white" fill-opacity="0.4"/>
<path d="M698.119 69.757C730.648 100.825 769.927 115.233 808.104 130.269C846.281 145.305 885.336 162.233 915.744 197.062C949.258 235.444 968.619 291.223 991.536 342.06C1014.45 392.898 1044.97 443.168 1087.53 457.232C1128.17 470.636 1170.4 447.856 1206.91 420.09C1243.42 392.323 1278.73 358.536 1319.7 347.192C1353.05 337.954 1387.93 344.327 1421.26 334.975C1427.67 333.155 1433.95 330.529 1440 327.131V-0.00012207H654.075C663.598 27.6591 679.629 52.086 698.119 69.757Z" fill="white" fill-opacity="0.3"/>
<path d="M1019.48 91.3804C1055.66 112.483 1098.23 108.699 1134.23 87.022C1161.04 70.883 1184.29 45.7131 1207.2 20.8267L1226.36 -0.00012207H956.469C966.476 40.3973 990.433 74.4294 1019.48 91.3804Z" fill="white" fill-opacity="0.4"/>
<path d="M1327.42 -0.00012207C1340.17 34.3579 1359.84 63.0718 1384.12 82.7938C1401.27 96.5495 1420.27 105.473 1440 109.036V-0.00012207H1327.42Z" fill="white" fill-opacity="0.4"/>
<path d="M607.5 983.24C597.345 930.506 573.505 884.566 540.394 853.921C484.099 802.256 411.317 802.992 343.434 803.773C275.552 804.554 202.028 800.954 148.894 743.414C109.896 701.179 88.515 636.691 63.7256 577.826C47.025 538.233 26.4375 498.495 0 471.709V872.58C36.6638 929.775 87.9413 969.905 143.348 979.487C197.679 988.885 254.723 971.827 306.506 996.239C343.958 1013.86 374.889 1054.05 391.326 1103H605.734C614.154 1064.26 614.897 1022.38 607.5 983.24Z" fill="white" fill-opacity="0.4"/>
<path d="M1291.98 469.602C1246.38 486.392 1206.09 522.393 1163.61 550.527C1121.13 578.661 1072.71 599.549 1026.98 583.349C978.047 566.007 942.047 509.908 913.995 452.59C885.943 395.272 861.778 332.508 822.938 288.419C781.313 241.189 727.313 220.431 674.955 201.581C622.598 182.73 568.485 163.504 525.589 118.465C497.734 89.228 475.74 45.9582 468.377 -0.00012207H381.116C401.13 80.6874 446.979 149.832 505.198 181.673C569.216 216.686 643.573 208.926 704.857 252.104C824.569 336.476 849.898 579.711 973.733 652.187C1044.24 693.457 1125.88 665.208 1196.92 625.638C1267.95 586.068 1338.19 534.802 1414.84 530.282C1423.23 529.785 1431.61 529.869 1440 530.282V459.246C1390.02 456.611 1339.94 451.923 1291.98 469.602Z" fill="white" fill-opacity="0.3"/>
<path d="M1266.36 882.346C1227.58 878.019 1187.35 883.878 1152.68 907.899C1118 931.92 1089.6 975.902 1082.67 1028.03C1079.34 1053.04 1081.71 1079.56 1088.93 1103H1440V936.692L1380.46 914.571C1342.93 900.668 1305.13 886.682 1266.36 882.346Z" fill="white" fill-opacity="0.3"/>
<path d="M938.436 1007.25C897.671 991.375 849.977 1022.57 833.608 1075.85C830.955 1084.6 828.983 1093.7 827.724 1103H1000.36C994.376 1059.19 970.166 1019.61 938.436 1007.25Z" fill="white" fill-opacity="0.4"/>
<path d="M708.486 911.859C675.956 842.156 623.323 790.292 564.486 770.063C504.861 749.557 442.226 760.871 380.773 764.41C319.32 767.948 253.648 761.882 203.743 712.975C166.185 676.208 142.088 619.449 122.321 562.492C102.555 505.534 85.6912 445.888 57.8925 395.51C42.3675 367.399 22.5394 342.19 0 325.262V471.709C26.4375 498.518 47.025 538.233 63.7031 577.826C88.4925 636.691 109.873 701.148 148.871 743.414C202.005 800.954 275.529 804.554 343.412 803.773C411.294 802.992 484.076 802.241 540.371 853.921C573.491 884.561 597.339 930.501 607.5 983.24C614.919 1022.38 614.177 1064.26 605.756 1103H745.594C747.782 1036.16 734.85 968.373 708.486 911.859Z" fill="white" fill-opacity="0.3"/>
<path d="M260.089 298.79C238.151 319.939 220.348 351.282 216.472 387.475C212.597 423.667 225.292 464.072 249.767 479.115C272.914 493.37 300.167 483.19 323.117 468.346C344.886 454.267 365.664 435.57 379.991 409.175C394.318 382.779 401.417 347.736 394.504 316.293C374.766 226.529 299.706 260.568 260.089 298.79Z" fill="white" fill-opacity="0.4"/>
<path d="M254.576 580.178C254.447 593.874 260.826 608.059 270.574 611.422C280.772 614.938 291.032 606.52 299.121 597.366C306.124 589.454 312.711 580.515 316.879 569.485C324.945 548.168 318.493 505.335 295.453 517.751C278.027 527.142 254.841 552.641 254.576 580.178Z" fill="white" fill-opacity="0.4"/>
<path d="M1168.12 218.394C1169.53 223.633 1174.24 225.518 1178.32 225.977C1184.22 226.644 1190.4 225.755 1195.48 221.626C1205.44 213.545 1207.12 187.556 1192.38 186.667C1184.25 186.177 1164.75 205.878 1168.12 218.394Z" fill="white" fill-opacity="0.4"/>
<path d="M1211.15 155.125C1211.77 157.423 1213.84 158.288 1215.65 158.503C1218.25 158.809 1220.97 158.434 1223.22 156.634C1227.62 153.103 1228.4 141.644 1221.91 141.215C1218.31 140.977 1209.68 149.602 1211.15 155.125Z" fill="white" fill-opacity="0.4"/>
<path d="M1225.96 221.504C1226.81 226.276 1230.78 228.566 1234.33 229.524C1239.43 230.902 1244.9 230.971 1249.64 228.061C1258.93 222.354 1262.32 199.865 1249.5 197.085C1242.43 195.553 1223.93 210.106 1225.96 221.504Z" fill="white" fill-opacity="0.4"/>
<path d="M1153.22 170.697C1153.92 174.35 1156.98 176.059 1159.71 176.717C1163.65 177.69 1167.83 177.652 1171.45 175.339C1178.53 170.812 1180.92 153.501 1171.06 151.593C1165.62 150.521 1151.57 161.988 1153.22 170.697Z" fill="white" fill-opacity="0.4"/>
<path d="M1255.87 120.732C1256.9 124.838 1260.54 126.393 1263.71 126.86C1268.27 127.496 1273.09 126.937 1277.08 123.842C1284.9 117.768 1286.5 97.6231 1275.06 96.6273C1268.76 96.0529 1253.38 110.943 1255.87 120.732Z" fill="white" fill-opacity="0.4"/>
<path d="M1192.33 98.1133C1193.03 100.81 1195.45 101.805 1197.55 102.066C1200.57 102.441 1203.73 102.02 1206.36 99.9287C1211.5 95.8384 1212.44 82.5105 1204.88 81.9743C1200.71 81.6756 1190.63 91.6715 1192.33 98.1133Z" fill="white" fill-opacity="0.4"/>
<path d="M1109.4 282.598C1110.68 288.726 1115.91 291.406 1120.53 292.402C1127.18 293.842 1134.26 293.551 1140.29 289.461C1152.1 281.433 1155.65 252.104 1138.96 249.385C1129.75 247.884 1106.36 267.991 1109.4 282.598Z" fill="white" fill-opacity="0.4"/>
<path d="M1203.92 303.049C1204.88 306.274 1207.83 307.316 1210.38 307.484C1214.05 307.737 1217.88 307.017 1220.97 304.313C1227.04 299.013 1227.72 282.812 1218.53 282.674C1213.47 282.59 1201.64 295.367 1203.92 303.049Z" fill="white" fill-opacity="0.4"/>
<path d="M843.413 826.568C844.335 831.271 848.312 833.416 851.85 834.228C856.912 835.438 862.346 835.331 866.992 832.298C876.099 826.361 879.075 803.957 866.329 801.659C859.292 800.349 841.213 815.347 843.413 826.568Z" fill="white" fill-opacity="0.3"/>
<path d="M812.295 914.035C813.42 920.653 818.916 923.877 823.804 925.256C830.852 927.248 838.429 927.424 845.01 923.464C857.948 915.712 862.785 884.644 845.066 880.569C835.313 878.371 809.584 898.233 812.295 914.035Z" fill="white" fill-opacity="0.3"/>
<path d="M891.726 854.396C892.558 858.77 896.226 860.799 899.499 861.611C904.207 862.791 909.236 862.745 913.562 859.98C922.05 854.557 924.936 833.814 913.117 831.493C906.609 830.222 889.746 843.948 891.726 854.396Z" fill="white" fill-opacity="0.3"/>
<path d="M823.703 769.595C824.636 772.207 827.145 772.851 829.277 772.797C832.354 772.713 835.521 771.809 837.996 769.312C842.833 764.417 842.704 750.844 835.037 751.434C830.813 751.763 821.475 763.36 823.703 769.595Z" fill="white" fill-opacity="0.3"/>
<path d="M1266.22 754.168C1267.76 760.932 1273.64 763.728 1278.79 764.67C1286.22 766.018 1294.1 765.436 1300.73 760.664C1313.71 751.296 1317.08 718.535 1298.45 716.123C1288.18 714.797 1262.55 738.029 1266.22 754.168Z" fill="white" fill-opacity="0.3"/>
<path d="M1214.59 719.087C1215.72 724.502 1220.39 726.854 1224.48 727.704C1230.38 728.937 1236.66 728.639 1241.98 724.97C1252.43 717.785 1255.48 691.78 1240.67 689.474C1232.51 688.203 1211.85 706.165 1214.59 719.087Z" fill="white" fill-opacity="0.3"/>
<path d="M1324.54 643.256C1325.72 647.775 1329.76 649.445 1333.27 649.881C1338.33 650.509 1343.66 649.812 1348.05 646.32C1356.65 639.472 1358.24 617.144 1345.57 616.232C1338.59 615.727 1321.71 632.463 1324.54 643.256Z" fill="white" fill-opacity="0.3"/>
<path d="M145.991 965.194C147.735 971.069 153.118 972.961 157.764 973.275C164.458 973.727 171.439 972.417 177.081 967.492C188.139 957.833 189.343 928.305 172.62 928.044C163.401 927.899 141.834 951.192 145.991 965.194Z" fill="white" fill-opacity="0.4"/>
<path d="M131.777 1036.81C133.144 1041.15 137.177 1042.44 140.636 1042.57C145.626 1042.77 150.812 1041.64 154.958 1037.85C163.074 1030.42 163.631 1008.4 151.172 1008.57C144.304 1008.66 128.52 1026.47 131.777 1036.81Z" fill="white" fill-opacity="0.4"/>
<path d="M56.2501 1004.23C57.8194 1009.08 62.3645 1010.49 66.2626 1010.6C71.8876 1010.75 77.7038 1009.41 82.3388 1005.09C91.4288 996.668 91.9013 971.842 77.8782 972.157C70.127 972.386 52.4869 992.631 56.2501 1004.23Z" fill="white" fill-opacity="0.4"/>
<path d="M104.85 917.305C105.784 921.074 109.108 922.537 112.011 922.966C116.196 923.579 120.611 923.104 124.279 920.3C131.473 914.8 133.031 896.341 122.546 895.337C116.769 894.786 102.617 908.313 104.85 917.305Z" fill="white" fill-opacity="0.4"/>
<path d="M274.568 904.613C276.114 910.664 281.486 912.932 286.166 913.56C292.916 914.464 300.015 913.56 305.888 908.964C317.402 899.941 319.674 870.198 302.788 868.819C293.484 868.061 270.866 890.152 274.568 904.613Z" fill="white" fill-opacity="0.4"/>
<path d="M317.183 973.198C318.797 979.211 324.191 981.379 328.877 981.915C335.627 982.681 342.72 981.685 348.564 976.967C359.989 967.729 361.952 937.902 345.055 936.891C335.723 936.309 313.313 958.844 317.183 973.198Z" fill="white" fill-opacity="0.4"/>
<path d="M466.734 1009.43C467.899 1014.73 472.472 1016.97 476.494 1017.76C482.288 1018.9 488.441 1018.53 493.644 1014.87C503.843 1007.7 506.661 982.145 492.126 980.061C484.11 978.912 463.961 996.782 466.734 1009.43Z" fill="white" fill-opacity="0.4"/>
<path d="M127.958 355.802C129.887 361.018 134.949 362.213 139.236 362.021C145.423 361.753 151.768 359.823 156.673 354.714C166.309 344.695 165.786 317.403 150.384 318.882C141.902 319.701 123.356 343.339 127.958 355.802Z" fill="white" fill-opacity="0.3"/>
<path d="M179.781 259.412C182.289 266.229 188.882 267.837 194.479 267.577C202.545 267.248 210.836 264.758 217.26 258.11C229.854 245.088 229.23 209.478 209.132 211.347C198.056 212.373 173.812 243.135 179.781 259.412Z" fill="white" fill-opacity="0.3"/>
<path d="M123.379 253.115C125.404 258.217 130.449 259.19 134.696 258.822C140.822 258.301 147.071 256.126 151.836 250.856C161.173 240.531 160.043 213.492 144.804 215.621C136.406 216.77 118.541 240.952 123.379 253.115Z" fill="white" fill-opacity="0.3"/>
<path d="M280.333 213.882C281.216 218.302 284.968 220.294 288.287 221.06C293.074 222.17 298.176 222.04 302.541 219.152C311.096 213.499 313.824 192.412 301.815 190.267C295.194 189.096 278.224 203.32 280.333 213.882Z" fill="white" fill-opacity="0.3"/>
<path d="M330.919 159.927C332.044 166.201 337.247 169.211 341.893 170.482C348.593 172.305 355.781 172.397 362.008 168.583C374.22 161.107 378.686 131.579 361.851 127.902C352.575 125.872 328.264 144.96 330.919 159.927Z" fill="white" fill-opacity="0.3"/>
<path d="M371.492 198.471C371.964 201.535 374.451 203.067 376.684 203.794C379.901 204.813 383.378 205.012 386.432 203.297C392.423 199.934 394.909 185.748 386.809 183.619C382.348 182.447 370.378 191.171 371.492 198.471Z" fill="white" fill-opacity="0.3"/>
<path d="M1049.36 941.012C1052.81 948.289 1060.41 948.932 1066.71 947.722C1075.79 945.968 1084.92 941.74 1091.56 933.169C1104.58 916.317 1100.56 876.211 1078.06 881.756C1065.65 884.774 1041.11 923.663 1049.36 941.012Z" fill="white" fill-opacity="0.3"/>
<path d="M1067.29 840.111C1069.11 844.232 1073.31 844.783 1076.82 844.27C1081.88 843.504 1087 841.413 1090.8 836.809C1098.25 827.786 1096.58 805.458 1084.05 807.963C1077.1 809.341 1062.96 830.314 1067.29 840.111Z" fill="white" fill-opacity="0.3"/>
<path d="M653.569 110.859C655.15 116.78 660.448 118.925 665.05 119.469C671.687 120.235 678.662 119.277 684.394 114.658C695.644 105.604 697.613 76.3597 681.019 75.249C671.844 74.6592 649.806 96.7422 653.569 110.859Z" fill="white" fill-opacity="0.4"/>
<path d="M726.109 113.011C727.487 118.442 732.296 120.495 736.493 121.069C742.539 121.897 748.913 121.146 754.189 117.04C764.528 108.982 766.62 82.319 751.478 81.0398C743.136 80.3198 722.813 100.067 726.109 113.011Z" fill="white" fill-opacity="0.4"/>
<path d="M784.159 186.231C785.228 189.808 788.518 190.957 791.353 191.141C795.437 191.409 799.695 190.589 803.132 187.579C809.882 181.666 810.579 163.65 800.376 163.512C794.751 163.443 781.611 177.705 784.159 186.231Z" fill="white" fill-opacity="0.4"/>
<path d="M837.675 106.424C838.867 112.299 843.863 114.919 848.284 115.914C854.651 117.355 861.441 117.14 867.234 113.272C878.591 105.689 882.129 77.6159 866.149 74.8584C857.34 73.3417 834.829 92.3991 837.675 106.424Z" fill="white" fill-opacity="0.4"/>
</g>
</svg>
