<svg width="1440" height="462" viewBox="0 0 1440 462" fill="none" xmlns="http://www.w3.org/2000/svg">
<rect width="1440" height="462" fill="white"/>
<mask id="mask0_1624_3892" style="mask-type:alpha" maskUnits="userSpaceOnUse" x="0" y="0" width="1440" height="462">
<rect width="1440" height="462" fill="#E5EFFF"/>
</mask>
<g mask="url(#mask0_1624_3892)">
<path d="M237.341 126.171C262.688 94.5132 276.947 46.1574 275.996 -0.00012207H0V132.031C24.39 149.648 49.8488 163.995 76.7475 172.451C132.221 189.9 195.39 178.586 237.341 126.171Z" fill="#E5EFFF" fill-opacity="0.2"/>
<path d="M525.578 118.464C568.474 163.503 622.575 182.722 674.944 201.58C727.313 220.438 781.313 241.188 822.938 288.418C861.778 332.508 885.938 395.241 913.995 452.589C942.053 509.937 978.041 566.007 1026.98 583.348C1072.71 599.549 1121.13 578.691 1163.61 550.526C1206.09 522.362 1246.38 486.414 1291.98 469.601C1339.94 451.915 1390.02 456.58 1440 459.245V327.13C1433.95 330.52 1427.67 333.138 1421.26 334.951C1387.94 344.304 1353.05 337.931 1319.7 347.168C1278.73 358.512 1243.42 392.299 1206.91 420.066C1170.41 447.832 1128.16 470.62 1087.53 457.208C1044.97 443.16 1014.41 392.866 991.536 342.036C968.664 291.206 949.258 235.421 915.75 197.038C885.341 162.209 846.281 145.25 808.11 130.245C769.939 115.24 730.654 100.824 698.124 69.7332C679.635 52.0698 663.604 27.6047 654.081 -0.0239258H468.377C475.74 45.9574 497.734 89.2272 525.578 118.464Z" fill="#E5EFFF" fill-opacity="0.4"/>
<path d="M698.118 69.757C730.647 100.825 769.927 115.233 808.104 130.269C846.28 145.305 885.335 162.233 915.744 197.062C949.257 235.444 968.619 291.223 991.535 342.06C1014.45 392.898 1044.97 443.168 1087.53 457.232C1128.17 470.636 1170.4 447.856 1206.91 420.09C1243.42 392.323 1278.72 358.536 1319.7 347.192C1353.05 337.954 1387.93 344.327 1421.26 334.975C1427.67 333.155 1433.95 330.529 1440 327.131V-0.00012207H654.074C663.597 27.6591 679.629 52.086 698.118 69.757Z" fill="#E5EFFF" fill-opacity="0.2"/>
<path d="M1019.48 91.3804C1055.66 112.483 1098.23 108.699 1134.23 87.022C1161.04 70.883 1184.29 45.7131 1207.2 20.8267L1226.36 -0.00012207H956.469C966.476 40.3973 990.433 74.4294 1019.48 91.3804Z" fill="#E5EFFF" fill-opacity="0.4"/>
<path d="M1327.42 -0.00012207C1340.17 34.3579 1359.83 63.0718 1384.11 82.7938C1401.26 96.5495 1420.27 105.473 1440 109.036V-0.00012207H1327.42Z" fill="#E5EFFF" fill-opacity="0.4"/>
<path d="M1291.98 469.602C1246.38 486.392 1206.09 522.393 1163.61 550.527C1121.13 578.661 1072.71 599.549 1026.99 583.349C978.048 566.007 942.048 509.908 913.996 452.59C885.944 395.272 861.779 332.508 822.938 288.419C781.313 241.189 727.314 220.431 674.956 201.581C622.598 182.73 568.486 163.504 525.59 118.465C497.735 89.228 475.741 45.9582 468.378 -0.00012207H381.117C401.131 80.6874 446.98 149.832 505.199 181.673C569.217 216.686 643.574 208.926 704.858 252.104C824.57 336.476 849.899 579.711 973.734 652.187C1044.24 693.457 1125.88 665.208 1196.92 625.638C1267.95 586.068 1338.19 534.802 1414.84 530.282C1423.23 529.785 1431.61 529.869 1440 530.282V459.246C1390.02 456.611 1339.94 451.923 1291.98 469.602Z" fill="#E5EFFF" fill-opacity="0.2"/>
<path d="M708.486 911.859C675.956 842.156 623.323 790.292 564.486 770.062C504.861 749.557 442.226 760.871 380.773 764.41C319.32 767.948 253.648 761.882 203.743 712.975C166.185 676.208 142.088 619.449 122.321 562.492C102.555 505.534 85.6912 445.888 57.8925 395.51C42.3675 367.398 22.5394 342.19 0 325.262V471.709C26.4375 498.518 47.025 538.233 63.7031 577.826C88.4925 636.691 109.873 701.148 148.871 743.414C202.005 800.954 275.529 804.554 343.412 803.773C411.294 802.992 484.076 802.241 540.371 853.921C573.491 884.561 597.339 930.501 607.5 983.24C614.919 1022.38 614.177 1064.26 605.756 1103H745.594C747.782 1036.16 734.85 968.373 708.486 911.859Z" fill="#E5EFFF" fill-opacity="0.2"/>
<path d="M260.089 298.79C238.152 319.939 220.348 351.282 216.473 387.475C212.597 423.667 225.293 464.072 249.767 479.115C272.914 493.37 300.167 483.19 323.117 468.346C344.886 454.267 365.665 435.57 379.992 409.175C394.318 382.779 401.417 347.736 394.504 316.293C374.766 226.529 299.706 260.568 260.089 298.79Z" fill="#E5EFFF" fill-opacity="0.4"/>
<path d="M1168.12 218.394C1169.53 223.633 1174.24 225.518 1178.33 225.977C1184.22 226.644 1190.4 225.755 1195.48 221.626C1205.44 213.545 1207.13 187.556 1192.38 186.667C1184.25 186.177 1164.75 205.878 1168.12 218.394Z" fill="#E5EFFF" fill-opacity="0.4"/>
<path d="M1211.15 155.125C1211.76 157.423 1213.83 158.288 1215.65 158.503C1218.24 158.809 1220.97 158.434 1223.22 156.634C1227.62 153.103 1228.4 141.644 1221.91 141.215C1218.31 140.977 1209.68 149.602 1211.15 155.125Z" fill="#E5EFFF" fill-opacity="0.4"/>
<path d="M1225.96 221.504C1226.81 226.276 1230.78 228.566 1234.33 229.524C1239.43 230.902 1244.9 230.971 1249.64 228.061C1258.93 222.354 1262.32 199.865 1249.5 197.085C1242.43 195.553 1223.93 210.106 1225.96 221.504Z" fill="#E5EFFF" fill-opacity="0.4"/>
<path d="M1153.22 170.697C1153.92 174.35 1156.98 176.059 1159.71 176.717C1163.65 177.69 1167.83 177.652 1171.45 175.339C1178.53 170.812 1180.92 153.501 1171.06 151.593C1165.62 150.521 1151.57 161.988 1153.22 170.697Z" fill="#E5EFFF" fill-opacity="0.4"/>
<path d="M1255.87 120.732C1256.9 124.838 1260.54 126.393 1263.71 126.86C1268.27 127.496 1273.09 126.937 1277.08 123.842C1284.9 117.768 1286.51 97.6231 1275.06 96.6273C1268.76 96.0529 1253.39 110.943 1255.87 120.732Z" fill="#E5EFFF" fill-opacity="0.4"/>
<path d="M1192.33 98.1133C1193.04 100.81 1195.45 101.805 1197.55 102.066C1200.57 102.441 1203.73 102.02 1206.36 99.9287C1211.5 95.8384 1212.44 82.5105 1204.88 81.9743C1200.71 81.6756 1190.63 91.6715 1192.33 98.1133Z" fill="#E5EFFF" fill-opacity="0.4"/>
<path d="M1109.4 282.598C1110.68 288.726 1115.91 291.406 1120.53 292.402C1127.18 293.842 1134.26 293.551 1140.29 289.461C1152.1 281.433 1155.65 252.104 1138.96 249.385C1129.75 247.884 1106.36 267.991 1109.4 282.598Z" fill="#E5EFFF" fill-opacity="0.4"/>
<path d="M1203.92 303.049C1204.88 306.274 1207.83 307.316 1210.38 307.484C1214.05 307.737 1217.88 307.017 1220.97 304.313C1227.04 299.013 1227.72 282.812 1218.53 282.674C1213.47 282.59 1201.64 295.367 1203.92 303.049Z" fill="#E5EFFF" fill-opacity="0.4"/>
<path d="M127.957 355.802C129.886 361.018 134.949 362.213 139.235 362.021C145.423 361.753 151.768 359.823 156.673 354.714C166.308 344.695 165.785 317.403 150.384 318.882C141.901 319.701 123.356 343.339 127.957 355.802Z" fill="#E5EFFF" fill-opacity="0.2"/>
<path d="M179.781 259.412C182.29 266.229 188.882 267.837 194.479 267.577C202.545 267.248 210.836 264.758 217.26 258.11C229.855 245.088 229.23 209.478 209.132 211.347C198.056 212.373 173.813 243.135 179.781 259.412Z" fill="#E5EFFF" fill-opacity="0.2"/>
<path d="M123.38 253.115C125.405 258.217 130.45 259.19 134.697 258.822C140.823 258.301 147.072 256.126 151.837 250.856C161.174 240.531 160.043 213.492 144.805 215.621C136.407 216.77 118.542 240.952 123.38 253.115Z" fill="#E5EFFF" fill-opacity="0.2"/>
<path d="M280.333 213.882C281.216 218.302 284.968 220.294 288.286 221.06C293.073 222.17 298.175 222.04 302.54 219.152C311.096 213.499 313.824 192.412 301.814 190.267C295.194 189.096 278.223 203.32 280.333 213.882Z" fill="#E5EFFF" fill-opacity="0.2"/>
<path d="M330.918 159.927C332.043 166.201 337.246 169.211 341.893 170.482C348.592 172.305 355.781 172.397 362.008 168.583C374.219 161.107 378.686 131.579 361.85 127.902C352.574 125.872 328.263 144.96 330.918 159.927Z" fill="#E5EFFF" fill-opacity="0.2"/>
<path d="M371.493 198.471C371.965 201.535 374.451 203.067 376.685 203.794C379.902 204.813 383.378 205.012 386.433 203.297C392.423 199.934 394.91 185.748 386.81 183.619C382.349 182.447 370.379 191.171 371.493 198.471Z" fill="#E5EFFF" fill-opacity="0.2"/>
<path d="M653.569 110.859C655.149 116.78 660.448 118.925 665.049 119.469C671.687 120.235 678.662 119.277 684.394 114.658C695.644 105.604 697.612 76.3597 681.019 75.249C671.844 74.6592 649.806 96.7422 653.569 110.859Z" fill="#E5EFFF" fill-opacity="0.4"/>
<path d="M726.108 113.011C727.486 118.442 732.296 120.495 736.492 121.069C742.539 121.897 748.912 121.146 754.188 117.04C764.527 108.982 766.62 82.319 751.477 81.0398C743.135 80.3198 722.812 100.067 726.108 113.011Z" fill="#E5EFFF" fill-opacity="0.4"/>
<path d="M784.16 186.231C785.229 189.808 788.519 190.957 791.354 191.141C795.438 191.409 799.696 190.589 803.133 187.579C809.883 181.666 810.581 163.65 800.377 163.512C794.752 163.443 781.612 177.705 784.16 186.231Z" fill="#E5EFFF" fill-opacity="0.4"/>
<path d="M837.675 106.424C838.867 112.299 843.862 114.919 848.284 115.914C854.651 117.355 861.44 117.14 867.234 113.272C878.591 105.689 882.129 77.6159 866.148 74.8584C857.34 73.3417 834.828 92.3991 837.675 106.424Z" fill="#E5EFFF" fill-opacity="0.4"/>
</g>
</svg>
