<svg width="1440" height="1756" viewBox="0 0 1440 1756" fill="none" xmlns="http://www.w3.org/2000/svg">
<mask id="mask0_1368_8621" style="mask-type:alpha" maskUnits="userSpaceOnUse" x="0" y="0" width="1440" height="1756">
<rect width="1440" height="1756" fill="#E5EFFF"/>
</mask>
<g mask="url(#mask0_1368_8621)">
<path d="M306.506 996.239C254.756 971.858 197.679 988.885 143.348 979.487C87.9412 969.905 36.6637 929.775 0 872.58V1103H391.326C374.889 1054.05 343.958 1013.88 306.506 996.239Z" fill="#E5EFFF" fill-opacity="0.3"/>
<path d="M237.341 126.171C262.688 94.5132 276.947 46.1574 275.996 -0.00012207H0V132.031C24.39 149.648 49.8488 163.995 76.7475 172.451C132.221 189.9 195.39 178.586 237.341 126.171Z" fill="#E5EFFF" fill-opacity="0.3"/>
<path d="M525.578 118.464C568.474 163.503 622.575 182.722 674.944 201.58C727.313 220.438 781.313 241.188 822.938 288.418C861.778 332.508 885.938 395.241 913.995 452.589C942.053 509.937 978.041 566.007 1026.98 583.348C1072.71 599.549 1121.13 578.691 1163.61 550.526C1206.09 522.362 1246.38 486.414 1291.98 469.601C1339.94 451.915 1390.02 456.58 1440 459.245V327.13C1433.95 330.52 1427.67 333.138 1421.26 334.951C1387.94 344.304 1353.05 337.931 1319.7 347.168C1278.73 358.512 1243.42 392.299 1206.91 420.066C1170.41 447.832 1128.16 470.62 1087.53 457.208C1044.97 443.16 1014.41 392.866 991.536 342.036C968.664 291.206 949.258 235.421 915.75 197.038C885.341 162.209 846.281 145.25 808.11 130.245C769.939 115.24 730.654 100.824 698.124 69.7332C679.635 52.0698 663.604 27.6047 654.081 -0.0239258H468.377C475.74 45.9574 497.734 89.2272 525.578 118.464Z" fill="#E5EFFF" fill-opacity="0.4"/>
<path d="M698.118 69.757C730.647 100.825 769.927 115.233 808.104 130.269C846.28 145.305 885.335 162.233 915.744 197.062C949.257 235.444 968.619 291.223 991.535 342.06C1014.45 392.898 1044.97 443.168 1087.53 457.232C1128.17 470.636 1170.4 447.856 1206.91 420.09C1243.42 392.323 1278.72 358.536 1319.7 347.192C1353.05 337.954 1387.93 344.327 1421.26 334.975C1427.67 333.155 1433.95 330.529 1440 327.131V-0.00012207H654.074C663.597 27.6591 679.629 52.086 698.118 69.757Z" fill="#E5EFFF" fill-opacity="0.3"/>
<path d="M1019.48 91.3805C1055.66 112.483 1098.23 108.699 1134.23 87.0221C1161.04 70.8831 1184.29 45.7132 1207.2 20.8268L1226.36 0H956.469C966.476 40.3974 990.433 74.4295 1019.48 91.3805Z" fill="#E5EFFF" fill-opacity="0.4"/>
<path d="M1327.42 0C1340.17 34.358 1359.84 63.0719 1384.12 82.7939C1401.27 96.5496 1420.27 105.474 1440 109.036V0H1327.42Z" fill="#E5EFFF" fill-opacity="0.4"/>
<path d="M607.5 983.24C597.345 930.506 573.505 884.566 540.394 853.921C484.099 802.256 411.317 802.991 343.434 803.773C275.552 804.554 202.028 800.954 148.894 743.414C109.896 701.178 88.515 636.691 63.7256 577.826C47.025 538.233 26.4375 498.495 0 471.708V872.58C36.6638 929.775 87.9413 969.904 143.348 979.487C197.679 988.885 254.723 971.827 306.506 996.239C343.958 1013.86 374.889 1054.05 391.326 1103H605.734C614.154 1064.26 614.897 1022.38 607.5 983.24Z" fill="#E5EFFF" fill-opacity="0.4"/>
<path d="M1291.98 469.602C1246.38 486.392 1206.09 522.393 1163.61 550.527C1121.13 578.661 1072.71 599.549 1026.99 583.349C978.048 566.007 942.048 509.908 913.996 452.59C885.944 395.272 861.779 332.508 822.939 288.419C781.314 241.189 727.314 220.431 674.956 201.581C622.598 182.73 568.486 163.504 525.59 118.465C497.735 89.228 475.741 45.9582 468.378 -0.00012207H381.117C401.131 80.6874 446.98 149.832 505.199 181.673C569.217 216.686 643.574 208.926 704.858 252.104C824.57 336.476 849.899 579.711 973.734 652.187C1044.24 693.458 1125.88 665.208 1196.92 625.638C1267.95 586.068 1338.19 534.802 1414.84 530.282C1423.23 529.785 1431.61 529.869 1440 530.282V459.246C1390.02 456.611 1339.94 451.923 1291.98 469.602Z" fill="#E5EFFF" fill-opacity="0.3"/>
<path d="M1266.36 882.346C1227.58 878.019 1187.35 883.878 1152.67 907.899C1118 931.92 1089.6 975.902 1082.67 1028.03C1079.34 1053.04 1081.71 1079.56 1088.93 1103H1440V936.692L1380.46 914.571C1342.93 900.668 1305.13 886.682 1266.36 882.346Z" fill="#E5EFFF" fill-opacity="0.3"/>
<path d="M938.436 1007.25C897.671 991.375 849.977 1022.57 833.608 1075.85C830.955 1084.6 828.983 1093.7 827.725 1103H1000.36C994.376 1059.19 970.166 1019.61 938.436 1007.25Z" fill="#E5EFFF" fill-opacity="0.4"/>
<path d="M708.486 911.859C675.956 842.156 623.323 790.292 564.486 770.062C504.861 749.557 442.226 760.871 380.773 764.41C319.32 767.948 253.648 761.882 203.743 712.975C166.185 676.208 142.088 619.449 122.321 562.492C102.555 505.534 85.6912 445.888 57.8925 395.51C42.3675 367.398 22.5394 342.19 0 325.262V471.709C26.4375 498.518 47.025 538.233 63.7031 577.826C88.4925 636.691 109.873 701.148 148.871 743.414C202.005 800.954 275.529 804.554 343.412 803.773C411.294 802.992 484.076 802.241 540.371 853.921C573.491 884.561 597.339 930.501 607.5 983.24C614.919 1022.38 614.177 1064.26 605.756 1103H745.594C747.782 1036.16 734.85 968.373 708.486 911.859Z" fill="#E5EFFF" fill-opacity="0.3"/>
<path d="M260.089 298.79C238.152 319.939 220.348 351.282 216.473 387.475C212.597 423.667 225.293 464.072 249.767 479.116C272.914 493.37 300.167 483.191 323.117 468.346C344.886 454.267 365.665 435.57 379.992 409.175C394.318 382.779 401.417 347.736 394.504 316.293C374.766 226.529 299.706 260.568 260.089 298.79Z" fill="#E5EFFF" fill-opacity="0.4"/>
<path d="M254.576 580.178C254.447 593.874 260.826 608.059 270.574 611.422C280.772 614.938 291.032 606.52 299.121 597.366C306.124 589.454 312.711 580.515 316.879 569.485C324.945 548.168 318.493 505.335 295.453 517.751C278.027 527.142 254.841 552.641 254.576 580.178Z" fill="#E5EFFF" fill-opacity="0.4"/>
<path d="M1168.12 218.394C1169.53 223.633 1174.24 225.518 1178.33 225.977C1184.22 226.644 1190.4 225.755 1195.48 221.626C1205.44 213.545 1207.13 187.556 1192.38 186.667C1184.25 186.177 1164.75 205.878 1168.12 218.394Z" fill="#E5EFFF" fill-opacity="0.4"/>
<path d="M1211.15 155.125C1211.76 157.422 1213.83 158.288 1215.65 158.503C1218.24 158.809 1220.97 158.434 1223.22 156.634C1227.62 153.102 1228.4 141.643 1221.91 141.215C1218.31 140.977 1209.68 149.602 1211.15 155.125Z" fill="#E5EFFF" fill-opacity="0.4"/>
<path d="M1225.96 221.504C1226.81 226.276 1230.78 228.566 1234.33 229.524C1239.43 230.902 1244.9 230.971 1249.64 228.061C1258.93 222.354 1262.32 199.865 1249.5 197.085C1242.43 195.553 1223.93 210.106 1225.96 221.504Z" fill="#E5EFFF" fill-opacity="0.4"/>
<path d="M1153.22 170.697C1153.92 174.35 1156.98 176.059 1159.71 176.717C1163.65 177.69 1167.83 177.652 1171.45 175.339C1178.53 170.812 1180.92 153.501 1171.06 151.593C1165.62 150.521 1151.57 161.988 1153.22 170.697Z" fill="#E5EFFF" fill-opacity="0.4"/>
<path d="M1255.87 120.733C1256.9 124.838 1260.54 126.393 1263.71 126.86C1268.27 127.496 1273.09 126.937 1277.08 123.842C1284.9 117.768 1286.51 97.6232 1275.06 96.6275C1268.76 96.053 1253.39 110.943 1255.87 120.733Z" fill="#E5EFFF" fill-opacity="0.4"/>
<path d="M1192.33 98.1133C1193.04 100.81 1195.45 101.805 1197.55 102.066C1200.57 102.441 1203.73 102.02 1206.36 99.9287C1211.5 95.8384 1212.44 82.5105 1204.88 81.9743C1200.71 81.6756 1190.63 91.6715 1192.33 98.1133Z" fill="#E5EFFF" fill-opacity="0.4"/>
<path d="M1109.4 282.598C1110.68 288.726 1115.91 291.407 1120.53 292.402C1127.18 293.842 1134.26 293.551 1140.29 289.461C1152.1 281.434 1155.65 252.105 1138.96 249.385C1129.75 247.884 1106.36 267.991 1109.4 282.598Z" fill="#E5EFFF" fill-opacity="0.4"/>
<path d="M1203.92 303.049C1204.88 306.274 1207.83 307.316 1210.38 307.484C1214.05 307.737 1217.88 307.017 1220.97 304.313C1227.04 299.012 1227.72 282.812 1218.53 282.674C1213.47 282.59 1201.64 295.366 1203.92 303.049Z" fill="#E5EFFF" fill-opacity="0.4"/>
<path d="M843.411 826.568C844.333 831.271 848.31 833.416 851.848 834.228C856.911 835.438 862.344 835.331 866.991 832.298C876.098 826.361 879.073 803.957 866.327 801.659C859.29 800.349 841.211 815.347 843.411 826.568Z" fill="#E5EFFF" fill-opacity="0.3"/>
<path d="M812.295 914.035C813.42 920.653 818.915 923.878 823.803 925.256C830.852 927.248 838.428 927.424 845.01 923.464C857.947 915.712 862.785 884.645 845.066 880.57C835.312 878.371 809.583 898.233 812.295 914.035Z" fill="#E5EFFF" fill-opacity="0.3"/>
<path d="M891.725 854.396C892.558 858.77 896.225 860.799 899.499 861.611C904.207 862.791 909.236 862.745 913.561 859.98C922.049 854.557 924.935 833.814 913.117 831.493C906.609 830.222 889.745 843.948 891.725 854.396Z" fill="#E5EFFF" fill-opacity="0.3"/>
<path d="M823.702 769.595C824.636 772.207 827.144 772.851 829.276 772.797C832.353 772.713 835.52 771.809 837.995 769.312C842.832 764.417 842.703 750.844 835.036 751.434C830.812 751.764 821.474 763.36 823.702 769.595Z" fill="#E5EFFF" fill-opacity="0.3"/>
<path d="M1266.22 754.168C1267.76 760.932 1273.64 763.728 1278.79 764.67C1286.22 766.018 1294.1 765.436 1300.73 760.664C1313.71 751.296 1317.08 718.535 1298.45 716.123C1288.17 714.797 1262.55 738.029 1266.22 754.168Z" fill="#E5EFFF" fill-opacity="0.3"/>
<path d="M1214.59 719.087C1215.72 724.502 1220.39 726.854 1224.48 727.704C1230.38 728.937 1236.66 728.639 1241.98 724.97C1252.43 717.785 1255.48 691.78 1240.67 689.474C1232.51 688.203 1211.85 706.165 1214.59 719.087Z" fill="#E5EFFF" fill-opacity="0.3"/>
<path d="M1324.54 643.256C1325.72 647.775 1329.76 649.445 1333.27 649.881C1338.33 650.509 1343.66 649.812 1348.05 646.32C1356.65 639.472 1358.24 617.144 1345.57 616.232C1338.59 615.727 1321.71 632.463 1324.54 643.256Z" fill="#E5EFFF" fill-opacity="0.3"/>
<path d="M145.991 965.194C147.735 971.069 153.118 972.961 157.764 973.275C164.458 973.727 171.438 972.417 177.08 967.492C188.139 957.833 189.343 928.305 172.62 928.044C163.4 927.899 141.834 951.192 145.991 965.194Z" fill="#E5EFFF" fill-opacity="0.4"/>
<path d="M131.777 1036.81C133.144 1041.15 137.177 1042.44 140.636 1042.57C145.626 1042.77 150.812 1041.64 154.958 1037.85C163.075 1030.42 163.631 1008.4 151.172 1008.57C144.304 1008.66 128.52 1026.47 131.777 1036.81Z" fill="#E5EFFF" fill-opacity="0.4"/>
<path d="M56.2503 1004.23C57.8197 1009.08 62.3647 1010.49 66.2628 1010.6C71.8878 1010.75 77.7041 1009.41 82.3391 1005.09C91.4291 996.667 91.9016 971.842 77.8784 972.156C70.1272 972.386 52.4872 992.631 56.2503 1004.23Z" fill="#E5EFFF" fill-opacity="0.4"/>
<path d="M104.85 917.305C105.784 921.074 109.108 922.537 112.011 922.966C116.196 923.579 120.611 923.104 124.279 920.3C131.473 914.8 133.031 896.341 122.546 895.337C116.769 894.786 102.617 908.313 104.85 917.305Z" fill="#E5EFFF" fill-opacity="0.4"/>
<path d="M274.567 904.613C276.114 910.664 281.486 912.932 286.166 913.56C292.916 914.464 300.015 913.56 305.887 908.964C317.402 899.941 319.674 870.198 302.788 868.819C293.484 868.061 270.866 890.152 274.567 904.613Z" fill="#E5EFFF" fill-opacity="0.4"/>
<path d="M317.183 973.198C318.797 979.211 324.192 981.379 328.877 981.915C335.627 982.681 342.72 981.685 348.565 976.967C359.989 967.729 361.952 937.902 345.055 936.891C335.723 936.309 313.313 958.844 317.183 973.198Z" fill="#E5EFFF" fill-opacity="0.4"/>
<path d="M466.735 1009.43C467.899 1014.73 472.472 1016.97 476.494 1017.76C482.288 1018.9 488.441 1018.53 493.645 1014.87C503.843 1007.7 506.661 982.145 492.126 980.062C484.11 978.913 463.961 996.783 466.735 1009.43Z" fill="#E5EFFF" fill-opacity="0.4"/>
<path d="M127.957 355.802C129.886 361.018 134.949 362.213 139.235 362.021C145.423 361.753 151.768 359.823 156.673 354.714C166.308 344.695 165.785 317.403 150.384 318.882C141.901 319.701 123.356 343.339 127.957 355.802Z" fill="#E5EFFF" fill-opacity="0.3"/>
<path d="M179.781 259.412C182.29 266.229 188.882 267.837 194.479 267.577C202.545 267.248 210.836 264.758 217.26 258.11C229.855 245.088 229.23 209.478 209.132 211.347C198.056 212.373 173.813 243.135 179.781 259.412Z" fill="#E5EFFF" fill-opacity="0.3"/>
<path d="M123.38 253.115C125.405 258.217 130.45 259.19 134.697 258.822C140.823 258.301 147.072 256.126 151.837 250.856C161.174 240.531 160.043 213.492 144.805 215.621C136.407 216.77 118.542 240.952 123.38 253.115Z" fill="#E5EFFF" fill-opacity="0.3"/>
<path d="M280.333 213.882C281.216 218.302 284.968 220.294 288.286 221.06C293.073 222.17 298.175 222.04 302.54 219.152C311.096 213.499 313.824 192.412 301.814 190.267C295.194 189.096 278.223 203.32 280.333 213.882Z" fill="#E5EFFF" fill-opacity="0.3"/>
<path d="M330.918 159.927C332.043 166.201 337.246 169.211 341.893 170.482C348.592 172.305 355.781 172.397 362.008 168.583C374.219 161.107 378.686 131.579 361.85 127.902C352.574 125.872 328.263 144.96 330.918 159.927Z" fill="#E5EFFF" fill-opacity="0.3"/>
<path d="M371.491 198.471C371.963 201.535 374.449 203.067 376.683 203.794C379.9 204.813 383.376 205.012 386.431 203.297C392.421 199.934 394.908 185.748 386.808 183.619C382.347 182.447 370.377 191.171 371.491 198.471Z" fill="#E5EFFF" fill-opacity="0.3"/>
<path d="M1049.36 941.012C1052.81 948.289 1060.41 948.932 1066.71 947.722C1075.79 945.968 1084.92 941.74 1091.56 933.168C1104.58 916.317 1100.56 876.211 1078.06 881.756C1065.65 884.774 1041.11 923.663 1049.36 941.012Z" fill="#E5EFFF" fill-opacity="0.3"/>
<path d="M1067.29 840.111C1069.11 844.232 1073.31 844.783 1076.82 844.27C1081.88 843.504 1087 841.413 1090.8 836.809C1098.25 827.786 1096.58 805.458 1084.05 807.963C1077.1 809.341 1062.96 830.314 1067.29 840.111Z" fill="#E5EFFF" fill-opacity="0.3"/>
<path d="M653.569 110.859C655.149 116.78 660.448 118.925 665.049 119.469C671.687 120.235 678.662 119.277 684.394 114.658C695.644 105.605 697.612 76.3598 681.019 75.2491C671.844 74.6593 649.806 96.7423 653.569 110.859Z" fill="#E5EFFF" fill-opacity="0.4"/>
<path d="M726.108 113.011C727.486 118.442 732.296 120.495 736.492 121.069C742.539 121.897 748.912 121.146 754.188 117.04C764.527 108.982 766.62 82.319 751.477 81.0398C743.135 80.3198 722.812 100.067 726.108 113.011Z" fill="#E5EFFF" fill-opacity="0.4"/>
<path d="M784.16 186.231C785.229 189.808 788.519 190.957 791.354 191.141C795.438 191.409 799.696 190.589 803.133 187.579C809.883 181.666 810.581 163.65 800.377 163.512C794.752 163.443 781.612 177.705 784.16 186.231Z" fill="#E5EFFF" fill-opacity="0.4"/>
<path d="M837.677 106.424C838.869 112.299 843.864 114.919 848.286 115.914C854.653 117.355 861.442 117.14 867.236 113.272C878.593 105.689 882.131 77.6159 866.15 74.8584C857.342 73.3417 834.83 92.3991 837.677 106.424Z" fill="#E5EFFF" fill-opacity="0.4"/>
<path d="M306.506 1209.76C254.756 1234.14 197.679 1217.11 143.348 1226.51C87.9412 1236.1 36.6637 1276.22 0 1333.42V1103H391.326C374.889 1151.95 343.958 1192.12 306.506 1209.76Z" fill="#E5EFFF" fill-opacity="0.3"/>
<path d="M525.578 2087.54C568.474 2042.5 622.575 2023.28 674.944 2004.42C727.313 1985.56 781.313 1964.81 822.938 1917.58C861.778 1873.49 885.938 1810.76 913.995 1753.41C942.053 1696.06 978.041 1639.99 1026.98 1622.65C1072.71 1606.45 1121.13 1627.31 1163.61 1655.47C1206.09 1683.64 1246.38 1719.59 1291.98 1736.4C1339.94 1754.08 1390.02 1749.42 1440 1746.75V1878.87C1433.95 1875.48 1427.67 1872.86 1421.26 1871.05C1387.94 1861.7 1353.05 1868.07 1319.7 1858.83C1278.73 1847.49 1243.42 1813.7 1206.91 1785.93C1170.41 1758.17 1128.16 1735.38 1087.53 1748.79C1044.97 1762.84 1014.41 1813.13 991.536 1863.96C968.664 1914.79 949.258 1970.58 915.75 2008.96C885.341 2043.79 846.281 2060.75 808.11 2075.76C769.939 2090.76 730.654 2105.18 698.124 2136.27C679.635 2153.93 663.604 2178.4 654.081 2206.02H468.377C475.74 2160.04 497.734 2116.77 525.578 2087.54Z" fill="#E5EFFF" fill-opacity="0.4"/>
<path d="M698.118 2136.24C730.647 2105.18 769.927 2090.77 808.104 2075.73C846.28 2060.7 885.335 2043.77 915.744 2008.94C949.257 1970.56 968.619 1914.78 991.535 1863.94C1014.45 1813.1 1044.97 1762.83 1087.53 1748.77C1128.17 1735.36 1170.4 1758.14 1206.91 1785.91C1243.42 1813.68 1278.72 1847.46 1319.7 1858.81C1353.05 1868.05 1387.93 1861.67 1421.26 1871.03C1427.67 1872.85 1433.95 1875.47 1440 1878.87V2206H654.074C663.597 2178.34 679.629 2153.91 698.118 2136.24Z" fill="#E5EFFF" fill-opacity="0.3"/>
<path d="M607.5 1222.76C597.345 1275.49 573.505 1321.43 540.394 1352.08C484.099 1403.74 411.317 1403.01 343.434 1402.23C275.552 1401.45 202.028 1405.05 148.894 1462.59C109.896 1504.82 88.515 1569.31 63.7256 1628.17C47.025 1667.77 26.4375 1707.51 0 1734.29V1333.42C36.6638 1276.22 87.9413 1236.1 143.348 1226.51C197.679 1217.11 254.723 1234.17 306.506 1209.76C343.958 1192.14 374.889 1151.95 391.326 1103H605.734C614.154 1141.74 614.897 1183.62 607.5 1222.76Z" fill="#E5EFFF" fill-opacity="0.4"/>
<path d="M1291.98 1736.4C1246.38 1719.61 1206.09 1683.61 1163.61 1655.47C1121.13 1627.34 1072.71 1606.45 1026.99 1622.65C978.048 1639.99 942.048 1696.09 913.996 1753.41C885.944 1810.73 861.779 1873.49 822.939 1917.58C781.314 1964.81 727.314 1985.57 674.956 2004.42C622.598 2023.27 568.486 2042.5 525.59 2087.53C497.735 2116.77 475.741 2160.04 468.378 2206H381.117C401.131 2125.31 446.98 2056.17 505.199 2024.33C569.217 1989.31 643.574 1997.07 704.858 1953.9C824.57 1869.52 849.899 1626.29 973.734 1553.81C1044.24 1512.54 1125.88 1540.79 1196.92 1580.36C1267.95 1619.93 1338.19 1671.2 1414.84 1675.72C1423.23 1676.22 1431.61 1676.13 1440 1675.72V1746.75C1390.02 1749.39 1339.94 1754.08 1291.98 1736.4Z" fill="#E5EFFF" fill-opacity="0.3"/>
<path d="M1266.36 1323.65C1227.58 1327.98 1187.35 1322.12 1152.67 1298.1C1118 1274.08 1089.6 1230.1 1082.67 1177.97C1079.34 1152.96 1081.71 1126.44 1088.93 1103H1440V1269.31L1380.46 1291.43C1342.93 1305.33 1305.13 1319.32 1266.36 1323.65Z" fill="#E5EFFF" fill-opacity="0.3"/>
<path d="M938.436 1198.75C897.671 1214.63 849.977 1183.43 833.608 1130.15C830.955 1121.4 828.983 1112.3 827.725 1103H1000.36C994.376 1146.81 970.166 1186.39 938.436 1198.75Z" fill="#E5EFFF" fill-opacity="0.4"/>
<path d="M708.486 1294.14C675.956 1363.84 623.323 1415.71 564.486 1435.94C504.861 1456.44 442.226 1445.13 380.773 1441.59C319.32 1438.05 253.648 1444.12 203.743 1493.03C166.185 1529.79 142.088 1586.55 122.321 1643.51C102.555 1700.47 85.6912 1760.11 57.8925 1810.49C42.3675 1838.6 22.5394 1863.81 0 1880.74V1734.29C26.4375 1707.48 47.025 1667.77 63.7031 1628.17C88.4925 1569.31 109.873 1504.85 148.871 1462.59C202.005 1405.05 275.529 1401.45 343.412 1402.23C411.294 1403.01 484.076 1403.76 540.371 1352.08C573.491 1321.44 597.339 1275.5 607.5 1222.76C614.919 1183.62 614.177 1141.74 605.756 1103H745.594C747.782 1169.84 734.85 1237.63 708.486 1294.14Z" fill="#E5EFFF" fill-opacity="0.3"/>
<path d="M260.089 1907.21C238.152 1886.06 220.348 1854.72 216.473 1818.53C212.597 1782.33 225.293 1741.93 249.767 1726.88C272.914 1712.63 300.167 1722.81 323.117 1737.65C344.886 1751.73 365.665 1770.43 379.992 1796.83C394.318 1823.22 401.417 1858.26 394.504 1889.71C374.766 1979.47 299.706 1945.43 260.089 1907.21Z" fill="#E5EFFF" fill-opacity="0.4"/>
<path d="M254.576 1625.82C254.447 1612.13 260.826 1597.94 270.574 1594.58C280.772 1591.06 291.032 1599.48 299.121 1608.63C306.124 1616.55 312.711 1625.49 316.879 1636.52C324.945 1657.83 318.493 1700.67 295.453 1688.25C278.027 1678.86 254.841 1653.36 254.576 1625.82Z" fill="#E5EFFF" fill-opacity="0.4"/>
<path d="M843.411 1379.43C844.333 1374.73 848.31 1372.58 851.848 1371.77C856.911 1370.56 862.344 1370.67 866.991 1373.7C876.098 1379.64 879.073 1402.04 866.327 1404.34C859.29 1405.65 841.211 1390.65 843.411 1379.43Z" fill="#E5EFFF" fill-opacity="0.3"/>
<path d="M812.295 1291.97C813.42 1285.35 818.915 1282.12 823.803 1280.74C830.852 1278.75 838.428 1278.58 845.01 1282.54C857.947 1290.29 862.785 1321.36 845.066 1325.43C835.312 1327.63 809.583 1307.77 812.295 1291.97Z" fill="#E5EFFF" fill-opacity="0.3"/>
<path d="M891.725 1351.6C892.558 1347.23 896.225 1345.2 899.499 1344.39C904.207 1343.21 909.236 1343.25 913.561 1346.02C922.049 1351.44 924.935 1372.19 913.117 1374.51C906.609 1375.78 889.745 1362.05 891.725 1351.6Z" fill="#E5EFFF" fill-opacity="0.3"/>
<path d="M823.702 1436.4C824.636 1433.79 827.144 1433.15 829.276 1433.2C832.353 1433.29 835.52 1434.19 837.995 1436.69C842.832 1441.58 842.703 1455.16 835.036 1454.57C830.812 1454.24 821.474 1442.64 823.702 1436.4Z" fill="#E5EFFF" fill-opacity="0.3"/>
<path d="M1266.22 1451.83C1267.76 1445.07 1273.64 1442.27 1278.79 1441.33C1286.22 1439.98 1294.1 1440.56 1300.73 1445.34C1313.71 1454.7 1317.08 1487.46 1298.45 1489.88C1288.17 1491.2 1262.55 1467.97 1266.22 1451.83Z" fill="#E5EFFF" fill-opacity="0.3"/>
<path d="M1214.59 1486.91C1215.72 1481.5 1220.39 1479.15 1224.48 1478.3C1230.38 1477.06 1236.66 1477.36 1241.98 1481.03C1252.43 1488.22 1255.48 1514.22 1240.67 1516.53C1232.51 1517.8 1211.85 1499.83 1214.59 1486.91Z" fill="#E5EFFF" fill-opacity="0.3"/>
<path d="M1324.54 1562.74C1325.72 1558.22 1329.76 1556.56 1333.27 1556.12C1338.33 1555.49 1343.66 1556.19 1348.05 1559.68C1356.65 1566.53 1358.24 1588.86 1345.57 1589.77C1338.59 1590.27 1321.71 1573.54 1324.54 1562.74Z" fill="#E5EFFF" fill-opacity="0.3"/>
<path d="M145.991 1240.81C147.735 1234.93 153.118 1233.04 157.764 1232.73C164.458 1232.27 171.438 1233.58 177.08 1238.51C188.139 1248.17 189.343 1277.7 172.62 1277.96C163.4 1278.1 141.834 1254.81 145.991 1240.81Z" fill="#E5EFFF" fill-opacity="0.4"/>
<path d="M131.777 1169.19C133.144 1164.85 137.177 1163.56 140.636 1163.43C145.626 1163.23 150.812 1164.36 154.958 1168.15C163.075 1175.58 163.631 1197.6 151.172 1197.43C144.304 1197.34 128.52 1179.53 131.777 1169.19Z" fill="#E5EFFF" fill-opacity="0.4"/>
<path d="M56.2503 1201.77C57.8197 1196.92 62.3647 1195.51 66.2628 1195.4C71.8878 1195.25 77.7041 1196.59 82.3391 1200.91C91.4291 1209.33 91.9016 1234.16 77.8784 1233.84C70.1272 1233.61 52.4872 1213.37 56.2503 1201.77Z" fill="#E5EFFF" fill-opacity="0.4"/>
<path d="M104.85 1288.69C105.784 1284.93 109.108 1283.46 112.011 1283.03C116.196 1282.42 120.611 1282.9 124.279 1285.7C131.473 1291.2 133.031 1309.66 122.546 1310.66C116.769 1311.21 102.617 1297.69 104.85 1288.69Z" fill="#E5EFFF" fill-opacity="0.4"/>
<path d="M274.567 1301.39C276.114 1295.34 281.486 1293.07 286.166 1292.44C292.916 1291.54 300.015 1292.44 305.887 1297.04C317.402 1306.06 319.674 1335.8 302.788 1337.18C293.484 1337.94 270.866 1315.85 274.567 1301.39Z" fill="#E5EFFF" fill-opacity="0.4"/>
<path d="M317.183 1232.8C318.797 1226.79 324.192 1224.62 328.877 1224.08C335.627 1223.32 342.72 1224.31 348.565 1229.03C359.989 1238.27 361.952 1268.1 345.055 1269.11C335.723 1269.69 313.313 1247.16 317.183 1232.8Z" fill="#E5EFFF" fill-opacity="0.4"/>
<path d="M466.735 1196.57C467.899 1191.27 472.472 1189.03 476.494 1188.24C482.288 1187.1 488.441 1187.47 493.645 1191.13C503.843 1198.3 506.661 1223.86 492.126 1225.94C484.11 1227.09 463.961 1209.22 466.735 1196.57Z" fill="#E5EFFF" fill-opacity="0.4"/>
<path d="M1049.36 1264.99C1052.81 1257.71 1060.41 1257.07 1066.71 1258.28C1075.79 1260.03 1084.92 1264.26 1091.56 1272.83C1104.58 1289.68 1100.56 1329.79 1078.06 1324.24C1065.65 1321.23 1041.11 1282.34 1049.36 1264.99Z" fill="#E5EFFF" fill-opacity="0.3"/>
<path d="M1067.29 1365.89C1069.11 1361.77 1073.31 1361.22 1076.82 1361.73C1081.88 1362.5 1087 1364.59 1090.8 1369.19C1098.25 1378.21 1096.58 1400.54 1084.05 1398.04C1077.1 1396.66 1062.96 1375.69 1067.29 1365.89Z" fill="#E5EFFF" fill-opacity="0.3"/>
</g>
</svg>
