<svg width="10" height="10" viewBox="0 0 10 10" fill="none" xmlns="http://www.w3.org/2000/svg">
<g clip-path="url(#clip0_1368_7774)">
<path d="M9.3428 2.01815C9.75258 1.4687 9.99895 0.898255 10.0001 0.490694C10.005 0.381374 9.97814 0.272981 9.9228 0.178578C9.89852 0.137796 9.86464 0.103568 9.82411 0.0788674C9.72899 0.0214233 9.61889 -0.00628464 9.50791 -0.00069883C9.10137 -0.00069883 8.53074 0.245511 7.98112 0.656486C7.44239 1.09897 6.93963 1.58352 6.47758 2.10557C6.3732 2.21553 6.26312 2.33112 6.14736 2.45235L4.95626 2.09533L4.95968 2.09191C5.00895 2.04176 5.03649 1.97422 5.03633 1.90392C5.03617 1.83362 5.00832 1.7662 4.95883 1.71627L4.74387 1.50097C4.69362 1.45065 4.62545 1.42234 4.55434 1.42226C4.51941 1.42218 4.48482 1.42905 4.45257 1.44248C4.42033 1.4559 4.39107 1.47561 4.36652 1.50046L4.04467 1.82248L3.87393 1.77126C3.91386 1.72001 3.93372 1.65595 3.92979 1.5911C3.92586 1.52626 3.89841 1.46507 3.85259 1.41902L3.63643 1.20303C3.58615 1.15295 3.51804 1.12489 3.44708 1.125C3.41214 1.12485 3.37753 1.13169 3.34527 1.14512C3.31302 1.15855 3.28377 1.17829 3.25927 1.20319L2.96388 1.49858L1.75264 1.13576C1.72453 1.1275 1.69537 1.12335 1.66608 1.12346C1.58249 1.1233 1.50215 1.15584 1.44223 1.21413L1.01641 1.63996C0.969131 1.68628 0.942168 1.74947 0.941446 1.81565C0.940872 1.8606 0.952696 1.90485 0.975617 1.94352C0.998538 1.98219 1.03167 2.0138 1.07138 2.03488L3.61851 3.45784C3.64044 3.47166 3.66112 3.48738 3.68032 3.5048L4.40648 4.2308C3.72727 4.94637 3.12216 5.63941 2.65057 6.24229C2.60652 6.2983 2.5652 6.35311 2.52388 6.40706L0.553348 6.22813C0.54202 6.22672 0.530612 6.22604 0.519197 6.22608C0.428088 6.22791 0.341004 6.26393 0.275215 6.32699L0.0766382 6.52522C0.0529077 6.54798 0.0339492 6.57524 0.0208741 6.6054C0.00779902 6.63557 0.000872345 6.66804 0.000490164 6.70091C0.000305268 6.74781 0.0137433 6.79376 0.0391738 6.83316C0.0646044 6.87256 0.100931 6.90373 0.143741 6.92287L1.53 7.58142C1.54897 7.59224 1.56676 7.605 1.58309 7.6195L1.69817 7.73355C1.66536 7.8188 1.64662 7.90883 1.64268 8.00009C1.64081 8.04709 1.64841 8.09398 1.66505 8.13798C1.68168 8.18198 1.707 8.22219 1.73949 8.2562L1.74444 8.26064L1.74581 8.26149C1.77979 8.2936 1.81985 8.3186 1.86362 8.33502C1.9074 8.35144 1.95401 8.35895 2.00072 8.35711C2.0912 8.35302 2.18044 8.33446 2.26504 8.30213L2.38182 8.41857C2.39546 8.43447 2.40759 8.45162 2.41802 8.46979L3.07503 9.85281C3.0941 9.89562 3.12505 9.93207 3.16421 9.95782C3.20338 9.98358 3.2491 9.99755 3.29597 9.9981H3.29734C3.32996 9.99799 3.36225 9.99142 3.39232 9.97876C3.42238 9.9661 3.44964 9.9476 3.47252 9.92434L3.67604 9.71946C3.73754 9.65318 3.77218 9.56638 3.7732 9.47598C3.7732 9.46471 3.7732 9.456 3.77235 9.45139L3.59289 7.47403C3.64702 7.4334 3.70149 7.39139 3.75766 7.34785C4.36141 6.87558 5.0553 6.26996 5.76883 5.5916L6.4955 6.31896C6.51335 6.33811 6.52925 6.35899 6.54297 6.38128L7.9632 8.9238C7.98133 8.95841 8.0074 8.98826 8.03926 9.01088C8.07113 9.0335 8.1079 9.04825 8.14656 9.05395C8.18522 9.05964 8.22468 9.05611 8.26172 9.04364C8.29875 9.03117 8.33232 9.01012 8.35967 8.9822L8.78856 8.55363C8.84537 8.49306 8.87678 8.413 8.87633 8.32996C8.87636 8.3016 8.87239 8.27338 8.86454 8.24612L8.50172 7.03472L8.79693 6.73881C8.8467 6.68881 8.87463 6.62113 8.87463 6.55058C8.87463 6.48002 8.8467 6.41234 8.79693 6.36233L8.58043 6.146C8.53455 6.09999 8.47342 6.07235 8.40857 6.06829C8.34372 6.06423 8.27962 6.08404 8.22836 6.12397L8.17714 5.95408L8.49933 5.63207C8.54906 5.58172 8.57696 5.51382 8.57701 5.44306C8.57717 5.40816 8.57039 5.37358 8.55706 5.34134C8.54372 5.30909 8.5241 5.27983 8.49933 5.25525L8.28385 5.03977C8.25905 5.01482 8.22957 4.99501 8.19708 4.9815C8.1646 4.96799 8.12976 4.96103 8.09458 4.96103C8.0594 4.96103 8.02457 4.96799 7.99209 4.9815C7.95961 4.99501 7.93012 5.01482 7.90532 5.03977L7.9031 5.04182L7.54642 3.85072C7.66958 3.73325 7.78693 3.6217 7.89848 3.51607C8.54474 2.90379 9.01139 2.46105 9.3428 2.01815Z" fill="white"/>
</g>
<defs>
<clipPath id="clip0_1368_7774">
<rect width="10" height="10" fill="white"/>
</clipPath>
</defs>
</svg>
