<svg width="12" height="12" viewBox="0 0 12 12" fill="none" xmlns="http://www.w3.org/2000/svg">
<path d="M0.367487 8.32058V6.75088C0.367487 6.64027 0.411418 6.53417 0.489658 6.45599C0.841379 6.10421 1.3091 5.91053 1.80657 5.91053C2.30398 5.91053 2.7717 6.10421 3.12342 6.45599L3.1896 6.52216C3.38384 6.71634 3.64202 6.82333 3.91667 6.82333C4.19132 6.82333 4.44951 6.7164 4.64375 6.52216L4.71826 6.4477C5.06993 6.09598 5.53759 5.90224 6.03512 5.90224C6.53259 5.90224 7.00025 6.09598 7.35197 6.44776L7.39735 6.49313C7.59164 6.68743 7.84983 6.79436 8.12453 6.79436C8.39918 6.79436 8.65743 6.68743 8.85161 6.49319L8.87224 6.47256C9.22396 6.12078 9.69168 5.92704 10.1892 5.92704C10.6866 5.92704 11.1543 6.12078 11.5061 6.47256C11.5843 6.55074 11.6282 6.65684 11.6282 6.76745V8.33976C10.8767 8.04699 9.98913 8.20308 9.38322 8.80899L9.35926 8.83295C9.12103 9.07118 8.80434 9.20236 8.46741 9.20236C8.13054 9.20236 7.8138 9.07118 7.57563 8.83301L7.52274 8.78013C6.70575 7.96319 5.37644 7.96319 4.55933 8.78018L4.47297 8.8666C3.98118 9.35834 3.18109 9.35834 2.68935 8.86665L2.6125 8.78975C2.00654 8.1839 1.11903 8.0278 0.367487 8.32058ZM9.973 9.39882L9.94904 9.42279C9.55327 9.81855 9.02711 10.0365 8.46736 10.0365C7.90766 10.0365 7.3815 9.81861 6.98568 9.42279L6.9328 9.3699C6.44111 8.87827 5.64091 8.87827 5.14917 9.36996L5.06281 9.45638C4.65431 9.86487 4.1177 10.0692 3.58108 10.0692C3.04452 10.0692 2.50795 9.86498 2.0994 9.45643L2.02255 9.37952C1.57146 8.92849 0.861509 8.89251 0.367432 9.26903V11.5829C0.367432 11.8133 0.554164 12 0.784492 12H11.211C11.4413 12 11.6281 11.8133 11.6281 11.5829V9.28822C11.1342 8.91169 10.4242 8.94767 9.973 9.39882ZM9.07032 1.74804C8.62128 1.74804 8.25599 2.11333 8.25599 2.56236C8.25599 3.01134 8.62128 3.37663 9.07032 3.37663C9.5193 3.37663 9.88459 3.01134 9.88459 2.56236C9.88459 2.11333 9.5193 1.74804 9.07032 1.74804ZM9.07032 3.72257C8.83999 3.72257 8.65326 3.9093 8.65326 4.13963V4.70761C8.65326 4.93794 8.83999 5.12467 9.07032 5.12467C9.30064 5.12467 9.48738 4.93794 9.48738 4.70761V4.13963C9.48738 3.9093 9.30064 3.72257 9.07032 3.72257ZM9.07032 1.4021C9.30064 1.4021 9.48738 1.21537 9.48738 0.985041V0.417061C9.48738 0.186732 9.30064 0 9.07032 0C8.83999 0 8.65326 0.186732 8.65326 0.417061V0.985041C8.65326 1.21537 8.83999 1.4021 9.07032 1.4021ZM7.91011 2.56236C7.91011 2.33204 7.72338 2.1453 7.49305 2.1453H6.92507C6.69474 2.1453 6.50801 2.33204 6.50801 2.56236C6.50801 2.79269 6.69474 2.97942 6.92507 2.97942H7.49305C7.72338 2.97942 7.91011 2.79269 7.91011 2.56236ZM11.2156 2.1453H10.6476C10.4173 2.1453 10.2305 2.33204 10.2305 2.56236C10.2305 2.79269 10.4173 2.97942 10.6476 2.97942H11.2156C11.4459 2.97942 11.6326 2.79269 11.6326 2.56236C11.6326 2.33204 11.4459 2.1453 11.2156 2.1453ZM7.6601 3.38275L7.25844 3.78441C7.09556 3.94728 7.09556 4.21137 7.25844 4.37419C7.33985 4.4556 7.44662 4.49636 7.55333 4.49636C7.66004 4.49636 7.76681 4.45565 7.84822 4.37419L8.24988 3.97253C8.41275 3.80965 8.41275 3.54557 8.24988 3.38275C8.08705 3.21987 7.82297 3.21987 7.6601 3.38275ZM10.1856 1.86409C10.2924 1.86409 10.3991 1.82339 10.4805 1.74192L10.8822 1.34027C11.0451 1.17739 11.0451 0.913307 10.8822 0.750487C10.7193 0.58761 10.4552 0.58761 10.2924 0.750487L9.89076 1.15214C9.72788 1.31502 9.72788 1.5791 9.89076 1.74192C9.97217 1.82339 10.0789 1.86409 10.1856 1.86409ZM7.6601 1.74192C7.74151 1.82333 7.84827 1.86409 7.95499 1.86409C8.0617 1.86409 8.16847 1.82339 8.24988 1.74192C8.41275 1.57905 8.41275 1.31496 8.24988 1.15214L7.84822 0.750487C7.68534 0.58761 7.42126 0.58761 7.25844 0.750487C7.09556 0.913363 7.09556 1.17745 7.25844 1.34027L7.6601 1.74192ZM10.4805 3.38275C10.3177 3.21987 10.0536 3.21987 9.89076 3.38275C9.72788 3.54563 9.72788 3.80971 9.89076 3.97253L10.2924 4.37419C10.3738 4.4556 10.4806 4.49636 10.5873 4.49636C10.694 4.49636 10.8008 4.45565 10.8822 4.37419C11.0451 4.21131 11.0451 3.94723 10.8822 3.78441L10.4805 3.38275Z" fill="white"/>
</svg>
