<svg width="10" height="10" viewBox="0 0 10 10" fill="none" xmlns="http://www.w3.org/2000/svg">
<g clip-path="url(#clip0_1368_7754)">
<path d="M5.82814 3.16609C6.27931 3.16609 6.64506 2.80034 6.64506 2.34917C6.64506 1.898 6.27931 1.53226 5.82814 1.53226C5.37698 1.53226 5.01123 1.898 5.01123 2.34917C5.01123 2.80034 5.37698 3.16609 5.82814 3.16609Z" fill="white"/>
<path d="M5.82848 1.12836C6.00639 1.12836 6.1506 0.984139 6.1506 0.806229V0.322128C6.1506 0.144218 6.00637 0 5.82848 0C5.65059 0 5.50635 0.144218 5.50635 0.322128V0.806229C5.50635 0.984119 5.65055 1.12836 5.82848 1.12836Z" fill="white"/>
<path d="M6.91927 1.58026C7.00171 1.58026 7.08415 1.54881 7.14704 1.4859L7.48935 1.14358C7.61515 1.01778 7.61515 0.813833 7.48935 0.688032C7.36357 0.562251 7.1596 0.562231 7.0338 0.688032L6.69152 1.03036C6.56572 1.15616 6.56572 1.3601 6.69152 1.4859C6.75439 1.54883 6.83683 1.58026 6.91927 1.58026Z" fill="white"/>
<path d="M7.04932 2.34926C7.04932 2.52717 7.19354 2.67139 7.37144 2.67139H7.85553C8.03344 2.67139 8.17765 2.52717 8.17765 2.34926C8.17765 2.17135 8.03342 2.02713 7.85553 2.02713H7.37144C7.19354 2.02713 7.04932 2.17135 7.04932 2.34926Z" fill="white"/>
<path d="M6.69152 3.21253C6.56572 3.33833 6.56572 3.54228 6.69152 3.66808L7.0338 4.01036C7.09671 4.07327 7.17915 4.10472 7.26158 4.10472C7.344 4.10472 7.42646 4.07327 7.48935 4.01036C7.61515 3.88456 7.61515 3.68062 7.48935 3.55481L7.14706 3.21253C7.02128 3.08671 6.8173 3.08671 6.69152 3.21253Z" fill="white"/>
<path d="M5.50635 3.89238V4.37648C5.50635 4.55439 5.65057 4.69861 5.82848 4.69861C6.00639 4.69861 6.1506 4.55439 6.1506 4.37648V3.89238C6.1506 3.71447 6.00639 3.57025 5.82848 3.57025C5.65057 3.57025 5.50635 3.71449 5.50635 3.89238Z" fill="white"/>
<path d="M4.50937 3.21255L4.16708 3.55483C4.0413 3.68064 4.04132 3.88458 4.1671 4.01038C4.23001 4.07329 4.31245 4.10472 4.39487 4.10472C4.4773 4.10472 4.55976 4.07325 4.62267 4.01036L4.96494 3.66808C5.09074 3.54228 5.09072 3.33833 4.96494 3.21253C4.83915 3.08675 4.63517 3.08675 4.50937 3.21255Z" fill="white"/>
<path d="M3.80113 2.67139H4.28521C4.46312 2.67139 4.60734 2.52717 4.60734 2.34926C4.60734 2.17135 4.46312 2.02713 4.28521 2.02713H3.80113C3.62322 2.02713 3.479 2.17135 3.479 2.34926C3.479 2.52717 3.62322 2.67139 3.80113 2.67139Z" fill="white"/>
<path d="M4.50939 1.4859C4.57232 1.54883 4.65476 1.58025 4.73718 1.58025C4.8196 1.58025 4.90206 1.54881 4.96496 1.48592C5.09074 1.36014 5.09076 1.15617 4.96498 1.03037L4.62269 0.688049C4.49689 0.562249 4.29294 0.562229 4.1671 0.68803C4.04132 0.813811 4.0413 1.01778 4.16708 1.14358L4.50939 1.4859Z" fill="white"/>
<path d="M9.20475 9.37259L0.824669 6.54381C0.656017 6.48689 0.473342 6.57742 0.416428 6.746C0.359514 6.91457 0.450041 7.09733 0.618595 7.15424L2.06209 7.64151L1.11822 9.53405C1.03883 9.69325 1.1035 9.88667 1.26273 9.96609C1.30891 9.98911 1.35793 10 1.40625 10C1.52453 10 1.6384 9.93462 1.69477 9.82157L2.67828 7.8495L8.9987 9.98302C9.03288 9.99454 9.0676 10 9.10178 10C9.23618 10 9.36159 9.91525 9.40694 9.78083C9.46383 9.61228 9.37332 9.4295 9.20475 9.37259Z" fill="white"/>
<path d="M1.55523 6.25086L1.83099 6.3442C2.1141 6.44008 2.42126 6.28829 2.51714 6.0052L2.61052 5.72945C2.70638 5.44635 2.5546 5.13914 2.2715 5.04326L1.99578 4.94992C1.71267 4.85404 1.40546 5.00584 1.30963 5.28894L1.21625 5.56463C1.12037 5.84777 1.27214 6.15496 1.55523 6.25086Z" fill="white"/>
<path d="M9.48587 7.49292L8.07273 5.6481C8.0314 5.59415 7.98213 5.5499 7.92781 5.51568C7.76918 5.41494 7.56332 5.39693 7.38254 5.48626L5.8343 6.25118C5.82092 6.24576 5.8074 6.24052 5.79354 6.23581L3.82909 5.5706C3.46983 5.44892 3.08001 5.64154 2.95835 6.00081C2.83669 6.36001 3.02932 6.74986 3.38856 6.8715L5.35305 7.53669C5.35666 7.53792 5.36024 7.53892 5.36385 7.54005C5.40233 7.55335 5.44225 7.56235 5.48289 7.56702C5.68803 7.5945 5.89152 7.52692 6.03912 7.39101L7.46617 6.68591L8.60259 8.16948C8.78941 8.41337 9.13859 8.45962 9.38249 8.27282C9.62642 8.08599 9.67273 7.73685 9.48587 7.49292Z" fill="white"/>
</g>
<defs>
<clipPath id="clip0_1368_7754">
<rect width="10" height="10" fill="white"/>
</clipPath>
</defs>
</svg>
