<svg width="108" height="24" viewBox="0 0 108 24" fill="none" xmlns="http://www.w3.org/2000/svg">
<path d="M35.4389 18H37.3749V13.504H41.9829V11.76H37.3749V8.368H42.8629V6.64H35.4389V18ZM47.4484 18.128C48.5364 18.128 49.3684 17.712 49.9284 16.96L49.9604 16.976V18H51.6724V10.192H49.8804V11.136L49.8484 11.152C49.2884 10.448 48.4244 10.08 47.4324 10.08C45.2884 10.08 43.6724 11.776 43.6724 14.128C43.6724 16.544 45.2884 18.128 47.4484 18.128ZM47.7364 16.496C46.4084 16.496 45.4964 15.52 45.4964 14.144C45.4964 12.64 46.4884 11.696 47.7364 11.696C49.0164 11.696 49.9604 12.752 49.9604 14.144C49.9604 15.552 48.9524 16.496 47.7364 16.496ZM57.4536 18.128C59.1496 18.128 60.1576 17.52 60.8136 16.672L59.5816 15.584C59.1816 16.112 58.4776 16.496 57.6136 16.496C56.2376 16.496 55.2936 15.536 55.2936 14.096C55.2936 12.672 56.2216 11.696 57.6136 11.696C58.4616 11.696 59.1336 12.064 59.5816 12.592L60.7976 11.536C60.0136 10.576 58.7336 10.08 57.5176 10.08C55.1496 10.08 53.4696 11.712 53.4696 14.112C53.4696 16.496 55.1496 18.128 57.4536 18.128ZM69.5853 14C69.5853 11.728 68.0973 10.08 65.9053 10.08C63.6173 10.08 61.9853 11.696 61.9853 14.096C61.9853 16.544 63.6653 18.128 66.0333 18.128C67.7133 18.128 68.6893 17.504 69.3453 16.656L68.0973 15.584C67.6973 16.08 67.0573 16.496 66.1293 16.496C64.9133 16.496 64.0653 15.824 63.8413 14.688H69.5373C69.5533 14.56 69.5853 14.288 69.5853 14ZM65.8893 11.696C66.9133 11.696 67.5533 12.336 67.7773 13.28H63.8733C64.1293 12.256 64.8973 11.696 65.8893 11.696ZM75.7056 18.128C77.8816 18.128 79.4976 16.544 79.4976 14.128C79.4976 11.776 77.8816 10.08 75.7216 10.08C74.6976 10.08 73.8496 10.432 73.2416 11.12H73.2256V6.224H71.4336V18H73.1456V16.96H73.1776C73.7536 17.712 74.5856 18.128 75.7056 18.128ZM75.4336 16.496C74.1536 16.496 73.1456 15.552 73.1456 14.144C73.1456 12.752 74.0736 11.696 75.4176 11.696C76.6656 11.696 77.6736 12.64 77.6736 14.144C77.6736 15.52 76.7456 16.496 75.4336 16.496ZM85.0031 18.128C87.4031 18.128 89.0991 16.48 89.0991 14.112C89.0991 11.712 87.4031 10.08 85.0031 10.08C82.5391 10.08 80.9071 11.808 80.9071 14.112C80.9071 16.4 82.5391 18.128 85.0031 18.128ZM85.0031 16.496C83.6591 16.496 82.7311 15.44 82.7311 14.112C82.7311 12.752 83.6431 11.696 85.0031 11.696C86.2831 11.696 87.2751 12.672 87.2751 14.112C87.2751 15.52 86.2671 16.496 85.0031 16.496ZM94.5969 18.128C96.9969 18.128 98.6929 16.48 98.6929 14.112C98.6929 11.712 96.9969 10.08 94.5969 10.08C92.1329 10.08 90.5009 11.808 90.5009 14.112C90.5009 16.4 92.1329 18.128 94.5969 18.128ZM94.5969 16.496C93.2529 16.496 92.3249 15.44 92.3249 14.112C92.3249 12.752 93.2369 11.696 94.5969 11.696C95.8769 11.696 96.8689 12.672 96.8689 14.112C96.8689 15.52 95.8609 16.496 94.5969 16.496ZM100.559 18H102.351V15.936L103.615 14.56L105.711 18H107.727L104.863 13.328L107.679 10.192H105.551L102.383 13.808L102.351 13.792V6.224H100.559V18Z" fill="white"/>
<g clip-path="url(#clip0_1359_5330)">
<path d="M15.9965 3.985H18.1875V0.169C17.8095 0.117 16.5095 0 14.9955 0C8.06352 0 9.94952 7.85 9.67352 9H6.18652V13.266H9.67252V24H13.9465V13.267H17.2915L17.8225 9.001H13.9455C14.1335 6.177 13.1845 3.985 15.9965 3.985Z" fill="white"/>
</g>
<defs>
<clipPath id="clip0_1359_5330">
<rect width="24" height="24" fill="white"/>
</clipPath>
</defs>
</svg>
