<svg width="30" height="30" viewBox="0 0 30 30" fill="none" xmlns="http://www.w3.org/2000/svg">
<g clip-path="url(#clip0_1359_5695)">
<path d="M15.0043 30.0009C12.0368 30.002 9.13568 29.123 6.66777 27.4752C4.19985 25.8273 2.27606 23.4846 1.13969 20.7433C0.00332951 18.002 -0.294559 14.9853 0.283704 12.0747C0.861968 9.16404 2.29041 6.4903 4.38836 4.39158C6.48631 2.29285 9.15954 0.863435 12.0699 0.284105C14.9803 -0.295225 17.9972 0.00155857 20.7389 1.13692C23.4806 2.27228 25.824 4.19522 27.4728 6.66252C29.1216 9.12983 30.0016 12.0307 30.0016 14.9982C29.9958 18.9744 28.414 22.7862 25.6029 25.5984C22.7918 28.4105 18.9806 29.9937 15.0043 30.0009Z" fill="#245A9B"/>
<path fill-rule="evenodd" clip-rule="evenodd" d="M12.6441 15.0687V23.7571C12.6441 23.8169 12.6678 23.8742 12.7101 23.9164C12.7523 23.9587 12.8097 23.9824 12.8694 23.9824H16.0953C16.1253 23.9831 16.1552 23.9779 16.1832 23.9669C16.2112 23.9559 16.2367 23.9394 16.2582 23.9184C16.2797 23.8974 16.2968 23.8723 16.3084 23.8446C16.3201 23.8169 16.3261 23.7872 16.3261 23.7571V14.9258H18.6892C18.7453 14.9261 18.7995 14.9054 18.8412 14.8678C18.8829 14.8302 18.909 14.7783 18.9145 14.7225L19.1398 12.0572C19.1421 12.0262 19.1379 11.9951 19.1276 11.9659C19.1173 11.9366 19.1011 11.9098 19.0799 11.8871C19.0588 11.8644 19.0332 11.8463 19.0047 11.8339C18.9762 11.8216 18.9455 11.8153 18.9145 11.8154H16.3261V9.9249C16.3261 9.7121 16.4106 9.50802 16.5611 9.35755C16.7116 9.20708 16.9156 9.12255 17.1284 9.12255H18.931C18.961 9.12328 18.9909 9.118 19.0189 9.107C19.0468 9.09601 19.0723 9.07953 19.0938 9.05853C19.1154 9.03754 19.1324 9.01245 19.1441 8.98475C19.1558 8.95705 19.1618 8.92729 19.1618 8.89723V6.23741C19.1618 6.17619 19.1375 6.11748 19.0942 6.0742C19.0509 6.03091 18.9922 6.0066 18.931 6.0066H15.8864C15.4605 6.00587 15.0385 6.08924 14.6448 6.25193C14.2511 6.41462 13.8934 6.65342 13.5921 6.95464C13.2909 7.25587 13.0521 7.61359 12.8894 8.0073C12.7267 8.40101 12.6434 8.82295 12.6441 9.24895V11.8154H11.0339C10.9742 11.8154 10.9168 11.8391 10.8746 11.8813C10.8323 11.9236 10.8086 11.9809 10.8086 12.0407V14.7005C10.8086 14.7603 10.8323 14.8176 10.8746 14.8598C10.9168 14.9021 10.9742 14.9258 11.0339 14.9258H12.6441V15.0687Z" fill="white"/>
</g>
<defs>
<clipPath id="clip0_1359_5695">
<rect width="30" height="30" fill="white"/>
</clipPath>
</defs>
</svg>
