<svg width="30" height="30" viewBox="0 0 30 30" fill="none" xmlns="http://www.w3.org/2000/svg">
<g clip-path="url(#clip0_1368_17226)">
<path d="M14.9861 28.0085C22.2423 28.0085 28.1246 22.1262 28.1246 14.87C28.1246 7.61381 22.2423 1.73151 14.9861 1.73151C7.72996 1.73151 1.84766 7.61381 1.84766 14.87C1.84766 22.1262 7.72996 28.0085 14.9861 28.0085Z" fill="white"/>
<path d="M14.995 29.9989C12.0275 29.9989 9.12661 29.1188 6.65929 27.4701C4.19198 25.8213 2.26904 23.4779 1.13368 20.7362C-0.00167882 17.9944 -0.29846 14.9776 0.280873 12.0672C0.860207 9.15679 2.28963 6.48356 4.38836 4.38561C6.48709 2.28765 9.16084 0.859214 12.0715 0.280954C14.9821 -0.297306 17.9988 0.000587698 20.7401 1.13696C23.4814 2.27333 25.8241 4.19713 27.472 6.66505C29.1199 9.13297 29.9988 12.0341 29.9977 15.0017C29.9933 18.9788 28.4111 22.7917 25.5983 25.6034C22.7856 28.4151 18.9721 29.996 14.995 29.9989ZM20.0567 8.91093C19.8379 8.91093 19.624 8.97582 19.442 9.09739C19.2601 9.21896 19.1183 9.39176 19.0346 9.59393C18.9508 9.79609 18.9289 10.0186 18.9716 10.2332C19.0143 10.4478 19.1197 10.6449 19.2744 10.7997C19.4291 10.9544 19.6263 11.0598 19.8409 11.1025C20.0555 11.1452 20.278 11.1232 20.4801 11.0395C20.6823 10.9558 20.8551 10.814 20.9767 10.632C21.0982 10.4501 21.1631 10.2361 21.1631 10.0173C21.1631 9.72389 21.0466 9.44247 20.8391 9.23498C20.6316 9.02749 20.3502 8.91093 20.0567 8.91093ZM15.1222 10.3382C14.1996 10.3371 13.2974 10.6097 12.5298 11.1214C11.7622 11.6332 11.1636 12.3611 10.8098 13.2132C10.456 14.0652 10.3628 15.0031 10.5421 15.9081C10.7214 16.813 11.1652 17.6445 11.8171 18.2973C12.4691 18.95 13.3001 19.3947 14.2048 19.5751C15.1096 19.7555 16.0476 19.6635 16.9 19.3107C17.7525 18.9579 18.4811 18.3601 18.9938 17.5931C19.5065 16.8261 19.7801 15.9242 19.7801 15.0017C19.7787 13.7662 19.2876 12.5817 18.4146 11.7076C17.5415 10.8336 16.3576 10.3411 15.1222 10.3382ZM15.1222 17.9834C14.5311 17.9834 13.9534 17.8081 13.462 17.4796C12.9706 17.1511 12.5877 16.6842 12.3618 16.138C12.1358 15.5918 12.077 14.9909 12.1927 14.4113C12.3084 13.8317 12.5935 13.2994 13.0118 12.8818C13.4302 12.4643 13.963 12.1802 14.5428 12.0656C15.1226 11.9509 15.7235 12.0109 16.2692 12.2378C16.815 12.4648 17.2811 12.8485 17.6087 13.3405C17.9363 13.8325 18.1106 14.4106 18.1095 15.0017C18.108 15.793 17.7926 16.5514 17.2326 17.1104C16.6725 17.6694 15.9135 17.9834 15.1222 17.9834ZM24.5266 11.1237C24.5266 9.61547 23.9274 8.16898 22.8609 7.10249C21.7944 6.03599 20.3479 5.43684 18.8397 5.43684H11.3328C9.82452 5.43684 8.37804 6.03599 7.31154 7.10249C6.24504 8.16898 5.64589 9.61547 5.64589 11.1237V18.6306C5.64589 20.1389 6.24504 21.5854 7.31154 22.6519C8.37804 23.7184 9.82452 24.3175 11.3328 24.3175H18.8397C20.3479 24.3175 21.7944 23.7184 22.8609 22.6519C23.9274 21.5854 24.5266 20.1389 24.5266 18.6306V11.1237ZM22.7453 18.6306C22.7453 19.6665 22.3338 20.6599 21.6014 21.3923C20.8689 22.1247 19.8755 22.5362 18.8397 22.5362H11.3328C10.2974 22.5348 9.30485 22.1228 8.57273 21.3907C7.84061 20.6586 7.42866 19.666 7.42719 18.6306V11.1237C7.42866 10.0883 7.84061 9.09579 8.57273 8.36367C9.30485 7.63155 10.2974 7.2196 11.3328 7.21814H18.8397C19.8755 7.21814 20.8689 7.62962 21.6014 8.36206C22.3338 9.0945 22.7453 10.0879 22.7453 11.1237V18.6306Z" fill="url(#paint0_linear_1368_17226)"/>
</g>
<defs>
<linearGradient id="paint0_linear_1368_17226" x1="2.87989" y1="25.3188" x2="40.0936" y2="-6.36844" gradientUnits="userSpaceOnUse">
<stop stop-color="#FFE185"/>
<stop offset="0.21" stop-color="#FFBB36"/>
<stop offset="0.38" stop-color="#FF5176"/>
<stop offset="0.52" stop-color="#F63395"/>
<stop offset="0.74" stop-color="#A436D2"/>
<stop offset="1" stop-color="#5F4EED"/>
</linearGradient>
<clipPath id="clip0_1368_17226">
<rect width="30" height="30" fill="white"/>
</clipPath>
</defs>
</svg>
