<svg width="30" height="30" viewBox="0 0 30 30" fill="none" xmlns="http://www.w3.org/2000/svg">
<path d="M15 30C23.2843 30 30 23.2843 30 15C30 6.71573 23.2843 0 15 0C6.71573 0 0 6.71573 0 15C0 23.2843 6.71573 30 15 30Z" fill="#039BE5"/>
<path d="M6.86481 14.675L21.3273 9.0987C21.9986 8.8562 22.5848 9.26245 22.3673 10.2775L22.3686 10.2762L19.9061 21.8775C19.7236 22.7 19.2348 22.9 18.5511 22.5125L14.8011 19.7487L12.9923 21.4912C12.7923 21.6912 12.6236 21.86 12.2361 21.86L12.5023 18.0437L19.4523 11.765C19.7548 11.4987 19.3848 11.3487 18.9861 11.6137L10.3973 17.0212L6.69481 15.8662C5.89106 15.6112 5.87356 15.0625 6.86481 14.675Z" fill="white"/>
</svg>
