<svg width="30" height="30" viewBox="0 0 30 30" fill="none" xmlns="http://www.w3.org/2000/svg">
<g clip-path="url(#clip0_1359_5704)">
<path d="M2.49521e-07 15.0018C-0.000540799 12.0347 0.878814 9.13405 2.52686 6.66673C4.1749 4.19941 6.51761 2.27622 9.2587 1.14038C11.9998 0.00454652 15.0162 -0.292921 17.9263 0.285601C20.8365 0.864123 23.5097 2.29265 25.608 4.39052C27.7062 6.48839 29.1352 9.16137 29.7143 12.0714C30.2934 14.9815 29.9964 17.9979 28.8611 20.7392C27.7258 23.4805 25.803 25.8236 23.336 27.472C20.8689 29.1205 17.9685 30.0004 15.0014 30.0004C11.0232 30.0004 7.20799 28.4203 4.39477 25.6076C1.58154 22.7949 0.000725658 18.9799 2.49521e-07 15.0018Z" fill="#7B519D"/>
<path d="M21.5818 18.4344C21.0976 18.046 20.5806 17.6958 20.0718 17.3402C19.0569 16.6263 18.1296 16.5715 17.3719 17.7177C16.9451 18.3606 16.3515 18.3906 15.7306 18.1062C14.0286 17.3964 12.6597 16.0666 11.9009 14.3859C11.559 13.6145 11.5617 12.9224 12.3659 12.3781C12.7899 12.0881 13.2194 11.7462 13.1866 11.117C13.1428 10.2964 11.1459 7.56088 10.3581 7.25724C10.0411 7.1409 9.69307 7.1409 9.37607 7.25724C7.52688 7.87819 6.76095 9.39912 7.49406 11.1991C9.69065 16.5579 13.5395 20.3082 18.8381 22.5896C19.1048 22.6887 19.3793 22.7655 19.6587 22.8194C20.8651 22.8194 22.2793 21.6677 22.6869 20.5134C23.0781 19.4192 22.2492 18.9651 21.5927 18.4344H21.5818Z" fill="#F1F2F2"/>
<path d="M15.6375 7.59641C19.5137 8.19274 21.3 10.0337 21.7924 13.9373C21.8389 14.2983 21.7048 14.84 22.2191 14.8482C22.7334 14.8564 22.6267 14.3257 22.6322 13.9646C22.6759 10.2881 19.4727 6.88245 15.7497 6.75662C15.4761 6.79765 14.888 6.5624 14.8525 7.19156C14.8278 7.61556 15.3175 7.54717 15.6375 7.59641Z" fill="#F1F2F2"/>
<path d="M16.3949 8.66598C16.0229 8.62221 15.5305 8.4444 15.4429 8.96141C15.3554 9.47841 15.9025 9.45106 16.2636 9.53039C18.6544 10.0638 19.4887 10.9337 19.8826 13.3081C19.9401 13.6555 19.8252 14.1944 20.4133 14.1041C20.8482 14.0385 20.6868 13.5762 20.7279 13.3053C20.747 11.0267 18.7939 8.9532 16.4031 8.65503L16.3949 8.66598Z" fill="#F1F2F2"/>
<path d="M16.6164 10.5398C16.3674 10.5398 16.124 10.5726 16.031 10.8407C15.8942 11.2373 16.1842 11.3303 16.4768 11.3878C17.4589 11.5437 17.9759 12.1236 18.0744 13.1029C18.099 13.3765 18.2686 13.5844 18.5257 13.5516C18.8813 13.5105 18.9142 13.1932 18.9032 12.8923C18.9196 11.7981 17.6777 10.5234 16.6164 10.548V10.5398Z" fill="#F1F2F2"/>
</g>
<defs>
<clipPath id="clip0_1359_5704">
<rect width="29.9973" height="30" fill="white"/>
</clipPath>
</defs>
</svg>
